<?xml version="1.0" standalone="no"?>
<!DOCTYPE svg PUBLIC "-//W3C//DTD SVG 1.1//EN" "http://www.w3.org/Graphics/SVG/1.1/DTD/svg11.dtd" >
<svg>
<metadata>
Created by FontForge 20110222 at Fri Jan 30 13:13:19 2015
 By deploy user
Font designed by Loic Sander, 2012. Distributed under the terms of the SIL OFL Licence. Free for commercial use. This font file can me modified at will under the conditions that any modification made is identified as a modifed version and the author named in the file-name or accompanying info. No modified version can be distributed without notice that it isnO~t the original file.
</metadata>
<defs>
<font id="FengardoNeue" horiz-adv-x="559" >
  <font-face 
    font-family="Fengardo Neue"
    font-weight="400"
    font-stretch="normal"
    units-per-em="1000"
    panose-1="2 0 0 0 0 0 0 0 0 0"
    ascent="720"
    descent="-280"
    x-height="485"
    cap-height="700"
    bbox="-64 -265 1315.52 913"
    underline-thickness="65"
    underline-position="-36"
    unicode-range="U+0020-FB06"
  />
<missing-glyph horiz-adv-x="227" 
 />
    <glyph glyph-name="IJ" unicode="IJ" horiz-adv-x="591" 
d="M410 700h90q3 -567 0 -665t-57.5 -151.5t-143.5 -53.5q-91 0 -149 57t-60 148h90q2 -58 35 -94t84 -36q107 0 111 130v665zM180 700v-585h-90v585h90z" />
    <glyph glyph-name="arrowleft" unicode="&#x3c;&#x2d;" horiz-adv-x="769" 
d="M383 489l-175 -158l-41 -27l575 1v-75l-576 1l40 -26l180 -159l-52 -55l-297 272v6l297 274z" />
    <glyph glyph-name="arrowup" unicode="&#x2d;&#x2265;" horiz-adv-x="593" 
d="M510 328l-147 169l-29 51l3 -584h-80l3 584l-28 -49l-155 -171l-50 50l268 286h11l260 -286z" />
    <glyph glyph-name="arrowright" unicode="&#x2d;&#x3e;" horiz-adv-x="769" 
d="M396 45l175 158l41 27l-575 -1v75l576 -1l-40 26l-180 159l52 55l297 -272v-6l-297 -274z" />
    <glyph glyph-name="arrowdown" unicode="&#x2264;&#x2d;" horiz-adv-x="593" 
d="M83 300l147 -169l29 -51l-3 584h80l-3 -584l28 49l155 171l50 -50l-268 -286h-11l-260 286z" />
    <glyph glyph-name="ff" unicode="ff" horiz-adv-x="592" 
d="M172 552v-67h210v77q0 93 43 140.5t112 47.5q59 0 98 -35l-27 -57q-25 17 -66 17q-39 0 -57 -27t-18 -91v-72h120v-60h-120v-425h-85v425h-210v-425h-85v425h-70v60h70v72q0 93 43 140.5t112 47.5q59 0 98 -35l-27 -57q-25 17 -66 17q-39 0 -57 -27t-18 -91z" />
    <glyph glyph-name="fi" unicode="fi" horiz-adv-x="543" 
d="M451 485v-359q0 -37 14.5 -51.5t50.5 -14.5v-60q-61 -17 -105.5 5t-44.5 91v329h-194v-425h-85v425h-70v60h70v77q0 93 43 140.5t110 47.5q56 0 95 -32l-27 -57q-23 14 -63 14q-37 0 -55 -27t-18 -91v-72h279zM351 662q0 25 16 41.5t40 16.5q25 0 42 -16.5t17 -41.5
t-16.5 -41t-42.5 -16q-24 0 -40 16t-16 41z" />
    <glyph glyph-name="fl" unicode="fl" horiz-adv-x="558" 
d="M526 60v-60q-58 -17 -104 4.5t-46 90.5v557q-30 28 -98 28q-103 0 -106 -123v-72h120v-60h-120v-425h-85v425h-70v60h70v72q0 92 52.5 142.5t126.5 50.5q67 0 112 -34l83 34v-625q0 -37 14.5 -51t50.5 -14z" />
    <glyph glyph-name="ffi" unicode="ffi" horiz-adv-x="838" 
d="M172 557v-72h210v77q0 93 43 140.5t110 47.5q56 0 95 -32l-27 -57q-23 14 -63 14q-37 0 -55 -27t-18 -91v-72h279v-359q0 -37 14.5 -51.5t50.5 -14.5v-60q-61 -17 -105.5 5t-44.5 91v329h-194v-425h-85v425h-210v-425h-85v425h-70v60h70v77q0 92 46 140t115 48t107 -30
l-13 -59q-38 19 -78 19q-46 0 -69 -28t-23 -95zM646 662q0 25 16 41.5t40 16.5q25 0 42 -16.5t17 -41.5t-16.5 -41t-42.5 -16q-24 0 -40 16t-16 41z" />
    <glyph glyph-name="ffl" unicode="ffl" horiz-adv-x="853" 
d="M467 557v-72h120v-60h-120v-425h-85v425h-210v-425h-85v425h-70v60h70v77q0 92 46 140t115 48t107 -30l-13 -59q-38 19 -78 19q-46 0 -69 -28t-23 -95v-72h210v72q0 92 52.5 142.5t126.5 50.5q67 0 112 -34l83 34v-625q0 -37 14.5 -51t50.5 -14v-60q-58 -17 -104 4.5
t-46 90.5v557q-30 28 -98 28q-103 0 -106 -123z" />
    <glyph glyph-name="F_J" unicode="FJ" horiz-adv-x="847" 
d="M90 0v700h374v-75h-284v-250h255v-75h-255v-300h-90zM675 700h90q3 -407 0 -505q-3 -94 -55.5 -152t-147.5 -58q-94 0 -148 57.5t-49 147.5l79 5q-1 -62 28 -98.5t90 -36.5q108 0 113 135v505z" />
    <glyph glyph-name="fb" unicode="fb" horiz-adv-x="821" 
d="M375 33v620q-41 27 -97 27q-103 0 -106 -123v-72h120v-60h-120v-425h-85v425h-70v60h70v72q0 92 52.5 142.5t126.5 50.5q68 0 111 -34l83 34v-330h1q20 33 58 56.5t85 23.5q68 0 111.5 -43.5t46.5 -123.5q3 -85 0 -167q-2 -80 -59 -130.5t-137 -50.5q-45 0 -100 13
t-91 35zM460 333v-261q40 -17 98 -17q52 0 84.5 27.5t34.5 83.5q3 69 0 166q-1 48 -29 73t-68 25q-48 0 -84 -31t-36 -66z" />
    <glyph glyph-name="ffb" unicode="ffb" horiz-adv-x="1117" 
d="M467 557v-72h120v-60h-120v-425h-85v425h-210v-425h-85v425h-70v60h70v77q0 92 46 140t115 48t107 -30l-13 -59q-38 19 -78 19q-46 0 -69 -28t-23 -95v-72h210v72q0 92 52.5 142.5t126.5 50.5q67 0 112 -34l83 34v-330h1q20 33 58 56.5t85 23.5q68 0 111.5 -43.5
t46.5 -123.5q3 -85 0 -167q-2 -80 -59 -130.5t-137 -50.5q-45 0 -100 13t-91 35v619q-30 28 -98 28q-103 0 -106 -123zM756 333v-261q40 -17 98 -17q52 0 84.5 27.5t34.5 83.5q3 69 0 166q-1 48 -29 73t-68 25q-48 0 -84 -31t-36 -66z" />
    <glyph glyph-name="fh" unicode="fh" horiz-adv-x="831" 
d="M460 750v-334h1q22 38 60.5 61t87.5 23q71 0 113 -43.5t42 -120.5v-336h-85v326q0 104 -96 104q-52 0 -86.5 -32t-36.5 -68v-330h-85v653q-41 27 -97 27q-103 0 -106 -123v-72h120v-60h-120v-425h-85v425h-70v60h70v72q0 92 52.5 142.5t126.5 50.5q68 0 111 -34z" />
    <glyph glyph-name="ffh" unicode="ffh" horiz-adv-x="1127" 
d="M467 557v-72h120v-60h-120v-425h-85v425h-210v-425h-85v425h-70v60h70v77q0 92 46 140t115 48t107 -30l-13 -59q-38 19 -78 19q-46 0 -69 -28t-23 -95v-72h210v72q0 92 52.5 142.5t126.5 50.5q67 0 112 -34l83 34v-334h1q22 38 60.5 61t87.5 23q71 0 113 -43.5t42 -120.5
v-336h-85v326q0 104 -96 104q-52 0 -86.5 -32t-36.5 -68v-330h-85v652q-30 28 -98 28q-103 0 -106 -123z" />
    <glyph glyph-name="fj" unicode="fj" horiz-adv-x="523" 
d="M451 485v-630q0 -65 -46 -95t-119 -11v60q48 1 64 12.5t16 48.5v555h-194v-425h-85v425h-70v60h70v77q0 93 42 140.5t110 47.5q56 0 93 -29l-23 -58q-26 17 -62 17q-40 0 -57.5 -27.5t-17.5 -95.5v-72h279zM351 662q0 25 16 41.5t40 16.5q25 0 42 -16.5t17 -41.5
t-16.5 -41t-42.5 -16q-24 0 -40 16t-16 41z" />
    <glyph glyph-name="ffj" unicode="ffj" horiz-adv-x="818" 
d="M172 557v-72h210v77q0 93 42 140.5t110 47.5q56 0 93 -29l-23 -58q-26 17 -62 17q-40 0 -57.5 -27.5t-17.5 -95.5v-72h279v-630q0 -65 -46 -95t-119 -11v60q48 1 64 12.5t16 48.5v555h-194v-425h-85v425h-210v-425h-85v425h-70v60h70v77q0 92 46 140t115 48t107 -30
l-13 -59q-38 19 -78 19q-46 0 -69 -28t-23 -95zM646 662q0 25 16 41.5t40 16.5q25 0 42 -16.5t17 -41.5t-16.5 -41t-42.5 -16q-24 0 -40 16t-16 41z" />
    <glyph glyph-name="fk" unicode="fk" horiz-adv-x="784" 
d="M460 750v-750h-85v653q-41 27 -97 27q-103 0 -106 -123v-72h120v-60h-120v-425h-85v425h-70v60h70v72q0 92 52.5 142.5t126.5 50.5q66 0 111 -34zM614 66q-31 42 -139 215v3l149 172q31 34 73 34q22 0 44 -10v-55q-42 3 -73 -28q-13 -13 -38 -41.5t-43 -49.5l-18 -22
q97 -151 123 -185q18 -23 32.5 -31t42.5 -8v-60q-14 -8 -45 -8q-32 0 -55 16.5t-53 57.5z" />
    <glyph glyph-name="ffk" unicode="ffk" horiz-adv-x="1080" 
d="M467 557v-72h120v-60h-120v-425h-85v425h-210v-425h-85v425h-70v60h70v77q0 92 46 140t115 48t107 -30l-13 -59q-38 19 -78 19q-46 0 -69 -28t-23 -95v-72h210v72q0 92 52.5 142.5t126.5 50.5q66 0 111 -34l84 34v-750h-85v652q-30 28 -98 28q-103 0 -106 -123zM910 66
q-31 42 -139 215v3l149 172q31 34 73 34q22 0 44 -10v-55q-42 3 -73 -28q-13 -13 -38 -41.5t-43 -49.5l-18 -22q97 -151 123 -185q18 -23 32.5 -31t42.5 -8v-60q-14 -8 -45 -8q-32 0 -55 16.5t-53 57.5z" />
    <glyph glyph-name="ft" unicode="ft" horiz-adv-x="625" 
d="M469 138q0 -50 22 -66.5t61 -16.5l62 5l4 -60q-37 -15 -95 -15q-60 0 -99.5 36t-39.5 113v291h-212v-425h-85v425h-70v60h70v77q0 93 42.5 140.5t110.5 47.5q66 0 105 -35l-21 -59q-34 24 -73 24q-41 0 -60 -27.5t-19 -95.5v-72h212v103l85 35v-138h134v-60h-134v-287z
" />
    <glyph glyph-name="fft" unicode="fft" horiz-adv-x="924" 
d="M467 557v-72h216v103l85 35v-138h134v-60h-134v-287q0 -50 22 -66.5t61 -16.5l62 5l4 -60q-37 -15 -95 -15q-60 0 -99.5 36t-39.5 113v291h-216v-425h-85v425h-210v-425h-85v425h-70v60h70v77q0 93 42.5 140.5t110.5 47.5q66 0 105 -35l-21 -59q-34 24 -73 24
q-41 0 -60 -27.5t-19 -95.5v-72h210v77q0 93 42.5 140.5t110.5 47.5q66 0 105 -35l-21 -59q-34 24 -73 24q-41 0 -60 -27.5t-19 -95.5z" />
    <glyph glyph-name="tt" unicode="tt" horiz-adv-x="665" 
d="M177 138q0 -50 22 -66.5t61 -16.5l62 5l4 -60q-37 -15 -95 -15q-60 0 -99.5 36t-39.5 113v291h-70v60h70v103l85 35v-138h242v103l85 35v-138h134v-60h-134v-287q0 -50 22 -66.5t61 -16.5l62 5l4 -60q-37 -15 -95 -15q-60 0 -99.5 36t-39.5 113v291h-242v-287z" />
    <glyph glyph-name="Th" unicode="Th" horiz-adv-x="973" 
d="M210 0v630h-198v70h505l85 35v-317q22 37 61.5 59.5t87.5 22.5q71 0 113 -43.5t42 -120.5v-336h-85v326q0 104 -96 104q-52 0 -86.5 -32t-36.5 -68v-330h-85v630h-217v-630h-90z" />
    <glyph glyph-name=".notdef" horiz-adv-x="227" 
 />
    <glyph glyph-name=".null" horiz-adv-x="0" 
 />
    <glyph glyph-name="nonmarkingreturn" horiz-adv-x="333" 
 />
    <glyph glyph-name="space" unicode=" " horiz-adv-x="290" 
 />
    <glyph glyph-name="exclam" unicode="!" horiz-adv-x="216" 
d="M60 700l97 15l-19 -540h-60zM45 46q0 27 18 45.5t44 18.5q27 0 45.5 -18.5t18.5 -45.5q0 -26 -18.5 -43.5t-45.5 -17.5q-26 0 -44 17.5t-18 43.5z" />
    <glyph glyph-name="quotedbl" unicode="&#x22;" horiz-adv-x="320" 
d="M47 691l88 34v-265h-57q-21 133 -31 231zM185 691l88 34l-31 -265h-57v231z" />
    <glyph glyph-name="numbersign" unicode="#" horiz-adv-x="580" 
d="M330 0l18 183h-135l-19 -183h-61l18 183h-129l4 53h130l14 140h-132l3 53h134l18 171h62l-19 -171h135l18 171h61l-18 -171h126l-3 -53h-127l-13 -140h128l-4 -53h-130l-18 -183h-61zM232 376l-14 -140h135l13 140h-134z" />
    <glyph glyph-name="dollar" unicode="$" horiz-adv-x="554" 
d="M403 197q0 13 -3 24t-7 19t-14 16.5t-16.5 13.5t-23 13t-25 12t-31.5 13t-34 14q-81 34 -120.5 72.5t-39.5 110.5q0 69 45 114.5t117 54.5v79l70 27v-107q67 -11 108.5 -54t37.5 -118l-75 -5q0 52 -30.5 81t-80.5 29q-45 0 -76 -23.5t-31 -70.5q0 -20 9 -37t20 -27.5
t34 -23.5t35.5 -18t41.5 -17q96 -39 135 -78t39 -108q0 -71 -46.5 -114t-115.5 -52v-75l-70 -27v102q-77 9 -127 53.5t-51 119.5l75 5q5 -56 44 -83t96 -27q50 0 80 23.5t30 68.5z" />
    <glyph glyph-name="percent" unicode="%" horiz-adv-x="876" 
d="M72 572q0 64 41.5 103.5t106.5 39.5t106.5 -39.5t41.5 -103.5q0 -63 -43 -103t-105 -40q-65 0 -106.5 39.5t-41.5 103.5zM148 572q0 -39 20 -60.5t52 -21.5t52.5 21.5t20.5 60.5t-20 61t-53 22q-32 0 -52 -22t-20 -61zM724 700l-495 -700h-81l496 700h80zM508 128
q0 64 41.5 103.5t106.5 39.5t106.5 -39.5t41.5 -103.5q0 -63 -43 -103t-105 -40q-65 0 -106.5 39.5t-41.5 103.5zM584 128q0 -39 20 -60.5t52 -21.5t52.5 21.5t20.5 60.5t-20 61t-53 22q-32 0 -52 -22t-20 -61z" />
    <glyph glyph-name="ampersand" unicode="&#x26;" horiz-adv-x="672" 
d="M308 422h21v-70h-22q-68 0 -110 -43.5t-42 -105.5q0 -68 45 -105.5t118 -37.5q87 0 131 57t44 154v81h-80v70h244v-70h-86q2 -32 2 -81q0 -120 -66.5 -203t-188.5 -83q-113 0 -183 59.5t-70 158.5q0 72 40.5 118t101.5 67q-46 13 -76.5 53.5t-30.5 97.5q0 75 55.5 125.5
t150.5 50.5q87 0 140.5 -51.5t47.5 -133.5l-80 -5q0 53 -30 84t-80 31q-53 0 -83.5 -26t-30.5 -75q0 -111 118 -117z" />
    <glyph glyph-name="quotesingle" unicode="'" horiz-adv-x="183" 
d="M47 691l89 34l-19 -265h-57q-12 168 -13 231z" />
    <glyph glyph-name="parenleft" unicode="(" horiz-adv-x="348" 
d="M285 -115l-53 -37q-76 92 -118 209t-42 237q0 117 41 237.5t119 220.5l54 -32q-63 -83 -101 -194.5t-38 -229.5q0 -115 37.5 -221t100.5 -190z" />
    <glyph glyph-name="parenright" unicode=")" horiz-adv-x="348" 
d="M122 -152l-53 37q63 84 100.5 190t37.5 221q0 118 -38 229.5t-101 194.5l54 32q78 -100 119 -220.5t41 -237.5q0 -120 -42 -237t-118 -209z" />
    <glyph glyph-name="asterisk" unicode="*" horiz-adv-x="400" 
d="M29 567l21 60l123 -49q-7 100 -7 137l70 4l-10 -142q75 32 124 50l21 -60q-8 -2 -33.5 -10t-50.5 -15.5t-44 -11.5l93 -115l-54 -36q-66 94 -84 124q-13 -22 -44.5 -69t-36.5 -55l-53 36q27 36 92 115q-19 4 -43.5 11.5t-49.5 15t-34 10.5z" />
    <glyph glyph-name="plus" unicode="+" horiz-adv-x="568" 
d="M318 2h-80v223h-201v75h201v231h80v-231h213v-75h-213v-223z" />
    <glyph glyph-name="comma" unicode="," horiz-adv-x="214" 
d="M21 -154l-24 36q30 8 52 22t33 27.5t17.5 26t7.5 20.5l1 8q-22 -3 -43.5 12t-21.5 50q0 27 19 44.5t44 17.5q32 0 51.5 -21.5t19.5 -59.5q0 -67 -44.5 -119t-111.5 -64z" />
    <glyph glyph-name="hyphen" unicode="-" horiz-adv-x="339" 
d="M37 225v75h265v-75h-265z" />
    <glyph glyph-name="period" unicode="." horiz-adv-x="224" 
d="M47 49q0 28 18 47t46 19t47 -19t19 -47q0 -27 -19 -45.5t-47 -18.5t-46 18.5t-18 45.5z" />
    <glyph glyph-name="slash" unicode="/" horiz-adv-x="397" 
d="M410 750l-348 -890h-75l351 890h72z" />
    <glyph glyph-name="zero" unicode="0" horiz-adv-x="549" 
d="M275 -15q-93 0 -152 54.5t-63 149.5q-4 85 0 166q5 93 64.5 146.5t150.5 53.5q90 0 149.5 -53.5t64.5 -146.5q4 -81 0 -166q-4 -95 -62.5 -149.5t-151.5 -54.5zM275 60q51 0 86.5 34.5t37.5 93.5q3 88 0 167q-2 61 -37 93t-87 32t-87.5 -32t-37.5 -93q-3 -79 0 -167
q2 -59 38 -93.5t87 -34.5z" />
    <glyph glyph-name="one" unicode="1" horiz-adv-x="396" 
d="M165 455l-90 -3l-8 53l157 40l31 -4v-473l94 -3v-65h-280v65l96 3v387z" />
    <glyph glyph-name="two" unicode="2" horiz-adv-x="502" 
d="M63 0l-10 53q10 8 60 45.5t79 62.5t68.5 63.5t59 75.5t19.5 72q0 108 -95 108q-46 0 -77 -30t-34 -86l-80 -5q-6 87 53.5 141.5t141.5 54.5q83 0 132 -46.5t49 -124.5q0 -82 -73 -163.5t-176 -145.5h280v-75h-397z" />
    <glyph glyph-name="three" unicode="3" horiz-adv-x="511" 
d="M267 255q1 0 5 0.5t6 0.5q80 0 135.5 -48.5t55.5 -148.5q0 -103 -64.5 -161t-161.5 -58q-90 0 -149 50t-67 130l80 5q8 -53 44.5 -81.5t91.5 -28.5q59 0 97.5 35.5t38.5 106.5q0 68 -38.5 103t-99.5 35q-16 0 -30.5 -1.5t-20.5 -3.5l-6 -1l-15 46l182 230h-296v75h389
l10 -60z" />
    <glyph glyph-name="four" unicode="4" horiz-adv-x="581" 
d="M351 295l85 35v-255h113v-70h-113v-155h-85v155h-277l-12 55l200 504l95 22l-203 -511h197v220z" />
    <glyph glyph-name="five" unicode="5" horiz-adv-x="519" 
d="M152 241q48 39 120 39q79 0 134.5 -54t55.5 -162q0 -102 -61.5 -163t-155.5 -61q-88 0 -151 50t-67 130l80 5q8 -53 44.5 -81.5t93.5 -28.5q58 0 92.5 38t34.5 111q0 146 -126 146q-34 0 -60.5 -10t-36.5 -20l-10 -11l-73 5l39 366h324v-75h-249z" />
    <glyph glyph-name="six" unicode="6" 
d="M65 225q-6 134 0 251q5 100 64.5 162t160.5 62q81 0 135.5 -48t51.5 -137l-80 -5q-1 53 -29 84t-83 31q-62 0 -96 -38t-37 -111q-3 -79 -2 -157q20 45 62.5 73t96.5 28q83 0 140.5 -52t57.5 -157q0 -104 -59 -165t-155 -61q-100 0 -161.5 65t-66.5 175zM292 350
q-57 0 -98.5 -40t-40.5 -104q6 -68 42 -107t98 -39q58 0 91 39t33 112q0 71 -35.5 105t-89.5 34z" />
    <glyph glyph-name="seven" unicode="7" horiz-adv-x="476" 
d="M434 540l15 -59l-288 -631h-95l287 615h-341v75h422z" />
    <glyph glyph-name="eight" unicode="8" horiz-adv-x="579" 
d="M290 -15q-103 0 -165.5 57t-62.5 145q0 57 33.5 104t87.5 65q-105 49 -105 149q0 93 62 144t150 51t149.5 -51t61.5 -144q0 -100 -105 -149q54 -18 87.5 -65t33.5 -104q0 -88 -62 -145t-165 -57zM290 385q57 0 89 34.5t32 86.5q0 51 -32.5 85t-88.5 34t-89 -34t-33 -85
q0 -52 32.5 -86.5t89.5 -34.5zM290 60q63 0 100 36t37 91t-36 91.5t-101 36.5t-101.5 -36.5t-36.5 -91.5t37.5 -91t100.5 -36z" />
    <glyph glyph-name="nine" unicode="9" 
d="M52 330q0 102 62.5 163.5t156.5 61.5t156.5 -61.5t66.5 -178.5q5 -155 0 -246q-6 -113 -66.5 -171t-154.5 -58q-86 0 -150 49t-66 131l80 5q20 -110 136 -110q125 0 134 154q2 39 2 133q-19 -43 -60.5 -66.5t-94.5 -23.5q-82 0 -142 56.5t-60 161.5zM271 187
q61 0 97.5 36.5t38.5 90.5v11q-3 76 -40.5 115.5t-95.5 39.5q-56 0 -92.5 -40t-36.5 -110q0 -71 37.5 -107t91.5 -36z" />
    <glyph glyph-name="colon" unicode=":" horiz-adv-x="220" 
d="M44 49q0 28 18 47t46 19t47 -19t19 -47q0 -27 -19 -45.5t-47 -18.5t-46 18.5t-18 45.5zM44 374q0 28 18 47t46 19t47 -19t19 -47q0 -27 -19 -45.5t-47 -18.5t-46 18.5t-18 45.5z" />
    <glyph glyph-name="semicolon" unicode=";" horiz-adv-x="221" 
d="M21 -154l-24 36q30 8 52 22t33 27.5t17.5 26t7.5 20.5l1 8q-22 -3 -43.5 12t-21.5 50q0 27 19 44.5t44 17.5q32 0 51.5 -21.5t19.5 -59.5q0 -67 -44.5 -119t-111.5 -64zM43 374q0 28 18 47t46 19t47 -19t19 -47q0 -27 -19 -45.5t-47 -18.5t-46 18.5t-18 45.5z" />
    <glyph glyph-name="less" unicode="&#x3c;" horiz-adv-x="503" 
d="M67 233v24l349 248l34 -54l-283 -195v-10l284 -201l-36 -54z" />
    <glyph glyph-name="equal" unicode="=" horiz-adv-x="539" 
d="M47 333v75h445v-75h-445zM47 123v75h445v-75h-445z" />
    <glyph glyph-name="greater" unicode="&#x3e;" horiz-adv-x="503" 
d="M446 257v-24l-348 -242l-36 54l284 194v9l-283 203l39 54z" />
    <glyph glyph-name="question" unicode="?" horiz-adv-x="444" 
d="M253 175h-69l-2 28q-4 67 7.5 101.5t55.5 88.5q49 59 60 84q12 28 12 60q0 48 -25 75.5t-66 27.5q-52 0 -81.5 -33t-31.5 -92l-80 -5q-7 88 49 146.5t147 58.5q74 0 126 -49t52 -125q0 -53 -24.5 -96t-74.5 -99q-38 -43 -46.5 -66.5t-8.5 -69.5v-35zM157 46q0 27 18 45.5
t44 18.5q27 0 45.5 -18.5t18.5 -45.5q0 -26 -18.5 -43.5t-45.5 -17.5q-26 0 -44 17.5t-18 43.5z" />
    <glyph glyph-name="at" unicode="@" horiz-adv-x="958" 
d="M367 230q-6 -62 9 -88.5t54 -26.5q38 0 63 24t31 55l48 252q-21 14 -65 14q-92 0 -116 -105q-20 -83 -24 -125zM600 172q-15 -87 63 -87q60 0 101.5 66.5t41.5 189.5q0 136 -71 222.5t-222 86.5q-153 0 -259.5 -119.5t-106.5 -300.5q0 -88 27 -154.5t75 -105t106.5 -57.5
t127.5 -19q53 0 98.5 10t64.5 20l19 11l23 -50q-6 -6 -19.5 -15.5t-66.5 -25t-119 -15.5q-182 0 -296.5 100.5t-114.5 300.5q0 204 124.5 344.5t316.5 140.5q174 0 271 -105t97 -270q0 -153 -64 -236.5t-154 -83.5q-57 0 -94.5 27.5t-44.5 81.5q-1 -3 -4 -8.5t-14 -19
t-23.5 -24t-34 -19t-45.5 -8.5q-59 0 -92.5 45t-23.5 135q5 47 24 125q41 170 198 170q78 0 147 -43z" />
    <glyph glyph-name="A" unicode="A" horiz-adv-x="605" 
d="M495 0l-63 190h-263l-64 -190h-90l238 674l-8 26h100l245 -700h-95zM278 518l-84 -253h214l-84 255l-23 79z" />
    <glyph glyph-name="B" unicode="B" horiz-adv-x="585" 
d="M90 0v700q109 1 192 1q238 0 238 -169q0 -59 -37 -103.5t-97 -61.5v-1q66 -15 107.5 -57t41.5 -110q0 -96 -66.5 -148.5t-195.5 -52.5zM180 326v-251q42 -2 92 -2q85 0 129 25t44 97q0 131 -172 131h-93zM180 625v-229h89q83 0 122 23t39 96q0 60 -36 85.5t-109 25.5z
" />
    <glyph glyph-name="C" unicode="C" horiz-adv-x="576" 
d="M530 515l-80 -5q0 58 -36.5 94t-101.5 36q-72 0 -111.5 -39.5t-42.5 -116.5q-5 -123 0 -273q2 -70 44.5 -110.5t105.5 -40.5q68 0 106.5 36t40.5 99l80 -5q2 -86 -60.5 -145.5t-166.5 -59.5q-105 0 -170.5 59t-69.5 166q-5 138 0 274q5 104 71 167.5t175 63.5
q104 0 162.5 -57t53.5 -143z" />
    <glyph glyph-name="D" unicode="D" horiz-adv-x="617" 
d="M90 0v700q71 5 146 5q296 0 312 -232q7 -106 0 -233q-7 -128 -95 -186.5t-227 -58.5zM458 468q-11 162 -212 162l-66 -2v-556q28 -2 62 -2q206 0 216 166q7 119 0 232z" />
    <glyph glyph-name="E" unicode="E" horiz-adv-x="520" 
d="M90 0v700h380v-75h-290v-230h261v-75h-261v-245h290v-75h-380z" />
    <glyph glyph-name="F" unicode="F" horiz-adv-x="469" 
d="M90 0v700h374v-75h-284v-250h255v-75h-255v-300h-90z" />
    <glyph glyph-name="G" unicode="G" horiz-adv-x="605" 
d="M314 715q101 0 160.5 -57.5t54.5 -142.5l-80 -5q0 57 -37.5 93.5t-99.5 36.5q-70 0 -110.5 -38t-43.5 -118q-4 -138 0 -268q2 -75 47.5 -116t112.5 -41q73 0 110.5 44t40.5 118l-1 74h-152v70h237l1 -143q-5 -108 -66 -172.5t-173 -64.5q-103 0 -172 61t-75 174
q-6 111 0 264q5 112 73.5 171.5t172.5 59.5z" />
    <glyph glyph-name="H" unicode="H" horiz-adv-x="671" 
d="M581 700v-700h-90v315h-311v-315h-90v700h90v-310h311v310h90z" />
    <glyph glyph-name="I" unicode="I" horiz-adv-x="270" 
d="M180 700v-700h-90v700h90z" />
    <glyph glyph-name="J" unicode="J" horiz-adv-x="518" 
d="M346 700h90q3 -407 0 -505q-3 -94 -55.5 -152t-147.5 -58q-94 0 -148 57.5t-49 147.5l79 5q-1 -62 28 -98.5t90 -36.5q108 0 113 135v505z" />
    <glyph glyph-name="K" unicode="K" horiz-adv-x="548" 
d="M180 700v-700h-90v700h90zM185 356l261 344h103l-263 -335q14 -16 74.5 -94.5t131.5 -171.5t76 -99h-105z" />
    <glyph glyph-name="L" unicode="L" horiz-adv-x="469" 
d="M90 0v700h90v-625h284v-75h-374z" />
    <glyph glyph-name="M" unicode="M" horiz-adv-x="781" 
d="M398 181h-34l-159 299l-34 82h-2l6 -78v-484h-85v700h91l178 -342l26 -64l27 64l192 342h87v-700h-90v485l4 77h-2l-31 -82z" />
    <glyph glyph-name="N" unicode="N" horiz-adv-x="675" 
d="M90 700h91l269 -454l50 -111v565h85v-700h-90l-273 463l-47 106v-569h-85v700z" />
    <glyph glyph-name="O" unicode="O" horiz-adv-x="620" 
d="M310 60q68 0 109 42t43 115q4 122 0 268q-2 73 -42.5 114t-109.5 41t-109.5 -41t-42.5 -114q-4 -146 0 -268q2 -73 43 -115t109 -42zM310 -15q-106 0 -171.5 63t-70.5 168q-6 139 0 271q4 104 70 166t172 62t171.5 -62t70.5 -166q6 -132 0 -271q-5 -105 -70.5 -168
t-171.5 -63z" />
    <glyph glyph-name="P" unicode="P" horiz-adv-x="555" 
d="M180 0h-90v700q88 1 159 1q135 0 208 -47.5t73 -168.5q0 -106 -68.5 -166t-202.5 -60l-79 1v-260zM180 625v-289q40 -1 83 -1q87 0 132 33t45 116q0 142 -184 142z" />
    <glyph glyph-name="Q" unicode="Q" horiz-adv-x="620" 
d="M425 -96q-35 17 -73.5 37t-62 32t-39.5 18q-81 17 -129.5 76.5t-52.5 148.5q-6 139 0 271q4 104 70 166t172 62t171.5 -62t70.5 -166q6 -132 0 -271q-4 -92 -55.5 -152.5t-136.5 -74.5q16 -2 106 -29q109 -32 136 -32q17 0 23 1v-50q-17 -23 -54 -23q-44 0 -146 48z
M310 60q68 0 109 42t43 115q4 122 0 268q-2 73 -42.5 114t-109.5 41t-109.5 -41t-42.5 -114q-4 -146 0 -268q2 -73 43 -115t109 -42z" />
    <glyph glyph-name="R" unicode="R" horiz-adv-x="590" 
d="M268 701q124 0 193 -44.5t69 -151.5q0 -38 -13.5 -70.5t-32 -52t-42 -34t-40 -21t-28.5 -8.5v-2q16 -3 49 -60l147 -257h-99l-167 298h-124v-298h-90v700q100 1 178 1zM440 502q0 124 -171 124l-89 -1v-257q27 -1 65 -1q37 0 61 1.5t52 9.5t44 21.5t27 39.5t11 63z" />
    <glyph glyph-name="S" unicode="S" horiz-adv-x="561" 
d="M421 166q0 21 -5 38.5t-18.5 32t-23 23.5t-33.5 21t-34 16.5t-39 16.5q-45 19 -71 32.5t-58 37.5t-47 57.5t-15 77.5q0 85 60.5 140.5t150.5 55.5q97 0 154.5 -53t49.5 -146l-80 -5q0 129 -124 129q-53 0 -87 -28t-34 -79q0 -28 9.5 -49.5t31 -38t41.5 -27.5t56 -26
q32 -13 42 -17.5t39 -19t40.5 -23.5t32 -26.5t29 -34t16 -39.5t7.5 -49q0 -89 -64 -143.5t-160 -54.5t-161 54t-71 152l80 5q8 -60 50.5 -98t104.5 -38q59 0 95 27.5t36 78.5z" />
    <glyph glyph-name="T" unicode="T" horiz-adv-x="506" 
d="M208 0v625h-198v75h486v-75h-198v-625h-90z" />
    <glyph glyph-name="U" unicode="U" horiz-adv-x="645" 
d="M323 -15q-105 0 -170.5 62.5t-66.5 174.5v478h90q-1 -389 0 -478q1 -78 39.5 -120t107.5 -42t107 42t39 120v478h90q1 -364 0 -478q-1 -112 -66 -174.5t-170 -62.5z" />
    <glyph glyph-name="V" unicode="V" horiz-adv-x="551" 
d="M325 0h-98l-222 700h98l176 -597l170 597h97z" />
    <glyph glyph-name="W" unicode="W" horiz-adv-x="865" 
d="M296 0h-94l-177 700h92l113 -460l23 -127h3l22 127l114 460h86l119 -460l23 -127h3l22 127l108 460h87l-177 -700h-93l-120 475l-16 106h-3l-19 -106z" />
    <glyph glyph-name="X" unicode="X" horiz-adv-x="558" 
d="M453 0l-175 303l-164 -303h-97l206 360l-208 340h104l163 -279l152 279h98l-199 -335l225 -365h-105z" />
    <glyph glyph-name="Y" unicode="Y" horiz-adv-x="511" 
d="M298 281v-281h-90v281l-228 419h98l162 -310l15 -37l15 37l159 310h97z" />
    <glyph glyph-name="Z" unicode="Z" horiz-adv-x="556" 
d="M40 625v75h447q5 -12 10 -42l-344 -583h353v-75h-456q-5 18 -10 42l344 583h-344z" />
    <glyph glyph-name="bracketleft" unicode="[" horiz-adv-x="297" 
d="M72 -140v890h168v-60h-98v-770h98v-60h-168z" />
    <glyph glyph-name="backslash" unicode="\" horiz-adv-x="387" 
d="M326 -140l-339 890h73l340 -890h-74z" />
    <glyph glyph-name="bracketright" unicode="]" horiz-adv-x="297" 
d="M231 750v-890h-168v60h98v770h-98v60h168z" />
    <glyph glyph-name="asciicircum" unicode="^" horiz-adv-x="501" 
d="M223 700h53l178 -245h-80l-125 173l-124 -173h-78z" />
    <glyph glyph-name="underscore" unicode="_" horiz-adv-x="451" 
d="M-3 -115v75h457v-75h-457z" />
    <glyph glyph-name="grave" unicode="`" horiz-adv-x="389" 
d="M47 700h100l110 -145h-79z" />
    <glyph glyph-name="a" unicode="a" horiz-adv-x="491" 
d="M464 60v-60q-9 -5 -28.5 -7.5t-42.5 -0.5t-42.5 19.5t-25.5 48.5h-3q-45 -75 -133 -75q-58 0 -97.5 38t-39.5 101q0 49 21 71.5t79 39.5q28 8 68.5 18t67.5 16.5t26 5.5v48q0 54 -18 80.5t-63 26.5q-42 0 -66 -23t-24 -62l-75 -6q-8 72 43 116.5t127 44.5q77 0 119 -43
t42 -129v-213q0 -35 14.5 -45t50.5 -10zM186 192q-29 -10 -39 -22.5t-10 -35.5q0 -39 22.5 -61.5t59.5 -22.5q43 0 69 32t26 80v64q-85 -20 -128 -34z" />
    <glyph glyph-name="b" unicode="b" horiz-adv-x="528" 
d="M167 333v-261q40 -17 98 -17q52 0 84.5 27.5t34.5 83.5q3 69 0 166q-1 48 -29 73t-68 25q-48 0 -84 -31t-36 -66zM82 33v682l85 35v-330h1q20 33 58 56.5t85 23.5q68 0 111.5 -43.5t46.5 -123.5q3 -85 0 -167q-2 -80 -59 -130.5t-137 -50.5q-45 0 -100 13t-91 35z" />
    <glyph glyph-name="c" unicode="c" horiz-adv-x="450" 
d="M250 -15q-84 0 -136.5 45t-54.5 130q-3 85 0 160q3 86 54.5 133t132.5 47t127 -41t44 -109l-75 -5q-2 43 -29 64t-67 21q-45 0 -72.5 -28.5t-29.5 -81.5q-3 -78 0 -145q4 -120 106 -120q43 0 67 25t30 65l70 -5q3 -63 -42 -109t-125 -46z" />
    <glyph glyph-name="d" unicode="d" horiz-adv-x="544" 
d="M447 750v-635q0 -35 14.5 -45t50.5 -10v-60q-12 -5 -30.5 -7t-41 1t-42 20t-26.5 46h-2q-45 -75 -147 -75q-65 0 -112 42.5t-51 124.5q-4 79 -1 164q3 95 52.5 139.5t120.5 44.5q91 0 130 -75v290zM362 168v131q0 63 -32 97t-84 34q-46 0 -74 -31.5t-28 -87.5
q0 -131 1 -150q6 -106 101 -106q116 0 116 113z" />
    <glyph glyph-name="e" unicode="e" horiz-adv-x="472" 
d="M332 244l-189 -32v-32q0 -60 29 -92.5t78 -32.5q44 0 68.5 25t30.5 65l70 -5q3 -63 -43 -109t-126 -46q-87 0 -138 49t-53 131q-3 90 0 149q4 81 54 133.5t137 52.5q79 0 124.5 -45t45.5 -120q0 -48 -15.5 -63.5t-72.5 -27.5zM143 298v-31q72 9 141 24q32 7 41.5 16
t9.5 30q0 43 -22.5 68t-62.5 25q-54 0 -80.5 -35.5t-26.5 -96.5z" />
    <glyph glyph-name="f" unicode="f" horiz-adv-x="297" 
d="M172 557v-72h120v-60h-120v-425h-85v425h-70v60h70v77q0 93 43 140.5t112 47.5q59 0 98 -35l-27 -57q-25 17 -66 17q-39 0 -57 -27t-18 -91z" />
    <glyph glyph-name="g" unicode="g" horiz-adv-x="524" 
d="M261 148q-39 0 -72 12q-39 -14 -39 -46q0 -29 36 -36q18 -3 85.5 -13.5t98.5 -16.5q125 -26 125 -136q0 -70 -60.5 -121t-167.5 -51q-96 0 -160.5 40t-64.5 103t54 84l48 15l77 14v3l-47 6q-99 13 -99 84q0 34 23 57t53 32q-74 48 -74 145q0 77 52.5 127t133.5 50
q46 0 95 -15h143q1 -8 1 -32t-1 -33q-36 0 -69 4.5t-48 9.5l-15 4l-1 -2q78 -40 78 -118q0 -76 -52 -123t-133 -47zM327 -17l-37 6q-88 -23 -123 -41q-21 -11 -30.5 -21t-9.5 -31q0 -40 41.5 -63t98.5 -23q65 0 104 24.5t39 73.5q0 61 -83 75zM263 435q-43 0 -72 -30.5
t-29 -81.5q0 -49 25.5 -77t75.5 -28q45 0 71.5 27t26.5 78q0 50 -25.5 81t-72.5 31z" />
    <glyph glyph-name="h" unicode="h" horiz-adv-x="538" 
d="M172 750v-334h1q22 38 60.5 61t87.5 23q71 0 113 -43.5t42 -120.5v-336h-85v326q0 104 -96 104q-52 0 -86.5 -32t-36.5 -68v-330h-85v715z" />
    <glyph glyph-name="i" unicode="i" horiz-adv-x="244" 
d="M152 495v-369q0 -37 14.5 -51.5t50.5 -14.5v-60q-61 -17 -105.5 5t-44.5 91v364zM52 657q0 25 16 41.5t40 16.5q25 0 42 -16.5t17 -41.5t-16.5 -41t-42.5 -16q-24 0 -40 16t-16 41z" />
    <glyph glyph-name="j" unicode="j" horiz-adv-x="244" 
d="M172 495v-640q0 -65 -46 -95t-119 -11v60q48 1 64 12.5t16 48.5v590zM72 657q0 25 16 41.5t40 16.5q25 0 42 -16.5t17 -41.5t-16.5 -41t-42.5 -16q-24 0 -40 16t-16 41z" />
    <glyph glyph-name="k" unicode="k" horiz-adv-x="491" 
d="M167 750v-750h-85v716zM321 66q-31 42 -139 215v3l149 172q31 34 73 34q22 0 44 -10v-55q-42 3 -73 -28q-13 -13 -38 -41.5t-43 -49.5l-18 -22q97 -151 123 -185q18 -23 32.5 -31t42.5 -8v-60q-14 -8 -45 -8q-32 0 -55 16.5t-53 57.5z" />
    <glyph glyph-name="l" unicode="l" horiz-adv-x="254" 
d="M222 60v-60q-58 -17 -104 4.5t-46 90.5v620l85 35v-625q0 -37 14.5 -51t50.5 -14z" />
    <glyph glyph-name="m" unicode="m" horiz-adv-x="796" 
d="M92 0v379q0 28 -14 37t-46 9v55q23 10 49 10q34 0 58.5 -18t30.5 -54h1q20 39 58 60.5t80 21.5q47 0 80.5 -23t45.5 -68h2q19 40 59 65.5t91 25.5q62 0 102 -41.5t40 -115.5v-343h-85v326q0 104 -83 104q-48 0 -78 -33t-30 -83v-314h-85v325q0 105 -83 105
q-47 0 -77.5 -33t-30.5 -84v-313h-85z" />
    <glyph glyph-name="n" unicode="n" horiz-adv-x="538" 
d="M92 0v379q0 28 -14 37t-46 9v55q23 10 49 10q34 0 58.5 -18t30.5 -54h1q50 82 151 82q68 0 108.5 -44t40.5 -120v-336h-85v326q0 104 -92 104q-49 0 -83 -32.5t-34 -65.5v-332h-85z" />
    <glyph glyph-name="o" unicode="o" horiz-adv-x="505" 
d="M445 165q-4 -80 -57 -130t-135 -50q-83 0 -136.5 50t-56.5 130q-3 87 0 157q4 80 56.5 129t136.5 49t136 -49t56 -129q4 -73 0 -157zM360 320q-2 49 -30.5 79.5t-76.5 30.5t-77 -30t-31 -80q-3 -83 0 -152q2 -50 31.5 -81.5t76.5 -31.5q46 0 75.5 31.5t31.5 80.5
q3 71 0 153z" />
    <glyph glyph-name="p" unicode="p" horiz-adv-x="533" 
d="M172 333v-165q0 -58 33 -85.5t88 -27.5q42 0 67.5 27.5t28.5 79.5q4 84 0 169q-5 99 -103 99q-42 0 -78 -30.5t-36 -66.5zM87 -250v629q0 28 -14 37t-46 9v55q23 10 49 10q34 0 58.5 -18t30.5 -54h1q22 37 60.5 59.5t90.5 22.5q70 0 112.5 -46t44.5 -124t0 -164
q-3 -84 -48 -132.5t-114 -48.5q-95 0 -139 70h-1v-305h-85z" />
    <glyph glyph-name="q" unicode="q" horiz-adv-x="518" 
d="M361 178v235q-41 17 -93 17t-87 -33t-37 -99t0 -133q1 -54 30 -82t76 -28q51 0 81 32t30 91zM446 460v-710h-85v311h-1q-46 -76 -137 -76q-70 0 -115.5 48.5t-48.5 121.5q-2 73 0 152q3 92 61 142.5t148 50.5q96 0 178 -40z" />
    <glyph glyph-name="r" unicode="r" horiz-adv-x="342" 
d="M92 0v379q0 28 -14 37t-46 9v55q23 10 49 10q34 0 59 -18t31 -54h2q22 82 106 82q18 0 32.5 -6.5t18.5 -13.5l-13 -60h-52q-50 0 -68.5 -30.5t-19.5 -102.5v-287h-85z" />
    <glyph glyph-name="s" unicode="s" horiz-adv-x="443" 
d="M382 348l-75 -5q0 41 -21.5 64t-58.5 23q-33 0 -55 -18.5t-22 -48.5q0 -22 14 -38.5t31 -25t48 -20.5q27 -10 37.5 -14.5t33.5 -15.5t33.5 -21t24 -25t19 -34t5.5 -42q0 -61 -45.5 -101.5t-120.5 -40.5q-79 0 -128 44.5t-50 110.5l75 5q5 -39 32 -64.5t71 -25.5
q36 0 58.5 17t22.5 48q0 30 -25 48t-82 38q-66 22 -102.5 55t-36.5 93q0 65 47 105.5t118 40.5q75 0 117.5 -45t34.5 -107z" />
    <glyph glyph-name="t" unicode="t" horiz-adv-x="333" 
d="M177 138q0 -50 22 -66.5t61 -16.5l62 5l4 -60q-37 -15 -95 -15q-60 0 -99.5 36t-39.5 113v291h-70v60h70v105l85 35v-140h134v-60h-134v-287z" />
    <glyph glyph-name="u" unicode="u" horiz-adv-x="521" 
d="M429 495v-380q0 -35 14.5 -45t50.5 -10v-60q-12 -5 -30.5 -7t-41 1t-42 20t-26.5 46h-2q-42 -75 -137 -75q-69 0 -111 42.5t-42 120.5v312l85 35v-331q0 -109 91 -109q50 0 78 28.5t28 65.5v311z" />
    <glyph glyph-name="v" unicode="v" horiz-adv-x="421" 
d="M230 164l99 321h85l-163 -485h-86l-158 485h90l96 -321l17 -77h1z" />
    <glyph glyph-name="w" unicode="w" horiz-adv-x="682" 
d="M499 160l87 325h84l-146 -485h-84l-80 282l-18 92h-3l-18 -92l-83 -282h-82l-144 485h90l82 -325l14 -68h2l12 68l96 325h72l93 -325l12 -68h2z" />
    <glyph glyph-name="x" unicode="x" horiz-adv-x="442" 
d="M340 0l-121 187l-112 -187h-90l159 254l-149 231h95l110 -172l103 172h90l-151 -237l161 -248h-95z" />
    <glyph glyph-name="y" unicode="y" horiz-adv-x="420" 
d="M59 -251l108 276l-160 460h89l99 -304l15 -61h1l15 60l100 305h87q-2 -5 -35.5 -97.5t-73 -200t-87 -235t-77.5 -203.5h-81z" />
    <glyph glyph-name="z" unicode="z" horiz-adv-x="428" 
d="M396 70v-70h-349l-5 50l235 365h-231v70h331l5 -50l-238 -365h252z" />
    <glyph glyph-name="braceleft" unicode="{" horiz-adv-x="361" 
d="M159 433v210q0 61 49 89t106 12v-55q-34 5 -59.5 -6t-25.5 -45v-205q0 -46 -24.5 -83.5t-71.5 -43.5q50 -8 73 -37t23 -82v-214q0 -34 25.5 -45t59.5 -6v-55q-57 -16 -106 12t-49 89v219q0 43 -22.5 63.5t-59.5 28.5v50q82 25 82 104z" />
    <glyph glyph-name="bar" unicode="|" horiz-adv-x="254" 
d="M162 750v-1000h-70v1000h70z" />
    <glyph glyph-name="braceright" unicode="}" horiz-adv-x="361" 
d="M208 643v-210q0 -79 82 -104v-50q-37 -8 -59.5 -28.5t-22.5 -63.5v-219q0 -61 -49 -89t-106 -12v55q34 -5 59.5 6t25.5 45v214q0 53 23 82t73 37q-47 6 -71.5 43.5t-24.5 83.5v205q0 34 -25.5 45t-59.5 6v55q57 16 106 -12t49 -89z" />
    <glyph glyph-name="asciitilde" unicode="~" horiz-adv-x="479" 
d="M321 205q-27 0 -82.5 22t-71.5 22q-33 0 -33 -43h-61q-4 47 21 80t70 33q29 0 79.5 -22t74.5 -22q30 0 30 48h58q5 -52 -16.5 -85t-68.5 -33z" />
    <glyph glyph-name="exclamdown" unicode="&#xa1;" horiz-adv-x="216" 
d="M156 -215l-97 -15l19 540h60zM171 439q0 -27 -18 -45.5t-44 -18.5q-27 0 -45.5 18.5t-18.5 45.5q0 26 18.5 43.5t45.5 17.5q26 0 44 -17.5t18 -43.5z" />
    <glyph glyph-name="cent" unicode="&#xa2;" horiz-adv-x="450" 
d="M273 605v-107q69 -7 107.5 -46.5t36.5 -101.5l-75 -5q-2 43 -29 64t-67 21q-45 0 -72.5 -28.5t-29.5 -81.5q-3 -78 0 -145q4 -120 106 -120q43 0 67 25t30 65l70 -5q2 -58 -36 -102.5t-108 -51.5v-76l-54 -25v102q-72 8 -115.5 52t-44.5 121q-3 85 0 160q2 78 45.5 124
t114.5 54v77z" />
    <glyph glyph-name="sterling" unicode="&#xa3;" horiz-adv-x="594" 
d="M366 305h-137q0 -10 1.5 -55.5t1.5 -66.5q0 -51 -28.5 -82.5t-58.5 -43.5q57 18 105 18h287l-10 -75h-465l-8 50q4 1 9.5 3.5t21 12.5t27 22.5t21 36.5t9.5 52q0 18 -0.5 39t-1.5 47.5t-1 41.5h-87l10 65h74q-4 71 -4 140q0 94 56.5 149.5t140.5 55.5q91 0 142 -51
t45 -144l-80 -5q0 125 -107 125q-49 0 -78 -31t-29 -94q0 -39 4 -145h150z" />
    <glyph glyph-name="yen" unicode="&#xa5;" horiz-adv-x="560" 
d="M82 243v65h152l-227 392h98l178 -316l173 316h97l-227 -392h161v-65h-162v-65h162v-65h-162v-113h-90v113h-153v65h153v65h-153z" />
    <glyph glyph-name="brokenbar" unicode="&#xa6;" horiz-adv-x="254" 
d="M92 160h70v-410h-70v410zM162 395h-70v355h70v-355z" />
    <glyph glyph-name="section" unicode="&#xa7;" horiz-adv-x="468" 
d="M155 396l47 -26q-22 -3 -40 -20.5t-18 -51.5q0 -31 27 -53.5t65 -37.5t76 -32.5t65 -50t27 -78.5q0 -65 -48.5 -105.5t-123.5 -40.5q-77 0 -126 44.5t-48 110.5l80 5q0 -41 26.5 -65.5t67.5 -24.5q38 0 60 20t22 55q0 30 -26.5 51t-64 35.5t-74.5 31.5t-63.5 49t-26.5 78
q0 38 27 65.5t69 40.5zM315 216l-47 23q24 3 45.5 21.5t21.5 50.5q0 31 -26.5 53t-64 37.5t-75 33.5t-64 52t-26.5 82q0 68 49.5 107t117.5 39q71 0 116.5 -43t38.5 -107l-80 -5q0 39 -20 62t-56 23q-33 0 -54.5 -20.5t-21.5 -50.5q0 -31 26 -53.5t63 -37.5t74 -32t63 -47
t26 -73q0 -46 -31.5 -76.5t-74.5 -38.5z" />
    <glyph glyph-name="dieresis" unicode="&#xa8;" horiz-adv-x="446" 
d="M77 644q0 24 16 40t39 16q25 0 41 -16t16 -40t-16 -39.5t-41 -15.5q-23 0 -39 15.5t-16 39.5zM257 644q0 24 15.5 40t38.5 16q25 0 41.5 -16t16.5 -40t-16.5 -39.5t-41.5 -15.5q-23 0 -38.5 15.5t-15.5 39.5z" />
    <glyph glyph-name="copyright" unicode="&#xa9;" horiz-adv-x="843" 
d="M57 350q0 151 106.5 258t257.5 107t258 -106.5t107 -258.5q0 -151 -107 -257.5t-258 -106.5t-257.5 106.5t-106.5 257.5zM115 350q0 -130 89 -222t217 -92q129 0 217.5 92t88.5 222q0 131 -88.5 223t-217.5 92q-128 0 -217 -92.5t-89 -222.5zM557 440l-60 -5
q0 35 -20.5 54.5t-55.5 19.5q-36 0 -57.5 -23t-24.5 -66q-4 -54 0 -140q5 -89 83 -89q35 0 55.5 21.5t20.5 59.5l60 -5q4 -61 -37.5 -98.5t-98.5 -37.5q-66 0 -108 38.5t-45 106.5q-4 77 0 144t46 108t106 41q60 0 100 -36.5t36 -92.5z" />
    <glyph glyph-name="ordfeminine" unicode="&#xaa;" horiz-adv-x="417" 
d="M350 435v-45q-12 -6 -31.5 -6.5t-40.5 10.5t-28 36q-30 -50 -88 -50q-42 0 -67 25t-25 68q0 61 68 76l105 20v30q0 61 -51 61q-28 0 -42 -16.5t-14 -43.5l-60 -5q-4 49 27.5 82t92.5 33q50 0 81 -30t31 -86v-122q0 -22 10 -29.5t32 -7.5zM67 220v65h283v-65h-283z
M167 516q-32 -9 -32 -41q0 -45 48 -45q60 0 60 69v32q-48 -7 -76 -15z" />
    <glyph glyph-name="guillemotleft" unicode="&#xab;" horiz-adv-x="494" 
d="M337 249l135 -129l-44 -50l-184 178v7l187 170l40 -51l-134 -119v-6zM135 249l135 -129l-44 -50l-184 178v7l187 170l40 -51l-134 -119v-6z" />
    <glyph glyph-name="logicalnot" unicode="&#xac;" horiz-adv-x="491" 
d="M37 225v75h417v-263h-75v188h-342z" />
    <glyph glyph-name="registered" unicode="&#xae;" horiz-adv-x="844" 
d="M57 350q0 152 106.5 258.5t258.5 106.5t258.5 -106.5t106.5 -258.5t-106.5 -258.5t-258.5 -106.5t-258.5 106.5t-106.5 258.5zM115 350q0 -131 88.5 -223t218.5 -92t218 92t88 223t-88 223t-218 92t-218.5 -92t-88.5 -223zM581 437q0 -44 -26.5 -77t-65.5 -43l14 -16
l80 -158h-76l-79 163h-75v-163h-70v422h160q65 0 101.5 -36.5t36.5 -91.5zM353 505v-144h78q38 0 59 20t21 54q0 70 -80 70h-78z" />
    <glyph glyph-name="macron" unicode="&#xaf;" horiz-adv-x="416" 
d="M72 630v70h272v-70h-272z" />
    <glyph glyph-name="degree" unicode="&#xb0;" horiz-adv-x="390" 
d="M47 572q0 64 41.5 103.5t106.5 39.5t106.5 -39.5t41.5 -103.5q0 -63 -43 -103t-105 -40q-65 0 -106.5 39.5t-41.5 103.5zM123 572q0 -39 20 -60.5t52 -21.5t52.5 21.5t20.5 60.5t-20 61t-53 22q-32 0 -52 -22t-20 -61z" />
    <glyph glyph-name="plusminus" unicode="&#xb1;" horiz-adv-x="578" 
d="M95 60h380v-75h-380v75zM323 110h-75v189h-176v75h176v186h75v-186h183v-75h-183v-189z" />
    <glyph glyph-name="twosuperior" unicode="&#xb2;" horiz-adv-x="378" 
d="M56 390l-5 49q10 9 34 27.5t44.5 36t41.5 36.5q37 33 56 63.5t19 67.5q0 34 -16.5 52t-44.5 18q-34 0 -54 -21t-19 -59l-60 -5q-6 58 31 99t102 41q60 0 95.5 -34t35.5 -90q0 -84 -95 -160l-88 -66h203v-55h-280z" />
    <glyph glyph-name="threesuperior" unicode="&#xb3;" horiz-adv-x="349" 
d="M247 509q0 35 -21.5 53t-52.5 18q-21 0 -33 -5l-12 34l102 121h-183v55h257l5 -47l-109 -120q45 3 81 -24.5t36 -82.5q0 -61 -39.5 -96t-100.5 -35q-64 0 -102 34.5t-37 85.5l60 5q1 -33 22.5 -51.5t56.5 -18.5q32 0 51 20t19 54z" />
    <glyph glyph-name="acute" unicode="&#xb4;" horiz-adv-x="378" 
d="M232 700h100l-132 -145h-78z" />
    <glyph glyph-name="mu" unicode="&#xb5;" horiz-adv-x="521" 
d="M344 159v301l85 35v-379q0 -36 14.5 -46t50.5 -10v-60q-11 -5 -30.5 -6t-42.5 2.5t-43.5 20t-28.5 43.5q-44 -75 -134 -75q-44 0 -68 18v-218l-85 -35v710l85 35v-339q0 -101 91 -101q49 0 77.5 33t28.5 71z" />
    <glyph glyph-name="mu" unicode="&#x3bc;" horiz-adv-x="521" 
d="M344 159v301l85 35v-379q0 -36 14.5 -46t50.5 -10v-60q-11 -5 -30.5 -6t-42.5 2.5t-43.5 20t-28.5 43.5q-44 -75 -134 -75q-44 0 -68 18v-218l-85 -35v710l85 35v-339q0 -101 91 -101q49 0 77.5 33t28.5 71z" />
    <glyph glyph-name="paragraph" unicode="&#xb6;" horiz-adv-x="540" 
d="M259 600v60h214v-60h-70v-540h70v-60h-214v60h69v540h-69zM253 501v-323h-25q-86 0 -133.5 47t-47.5 115t47.5 114.5t133.5 46.5h25z" />
    <glyph glyph-name="periodcentered" unicode="&#xb7;" horiz-adv-x="220" 
d="M44 275q0 28 18 47t46 19t47 -19t19 -47q0 -27 -19 -45.5t-47 -18.5t-46 18.5t-18 45.5z" />
    <glyph glyph-name="cedilla" unicode="&#xb8;" horiz-adv-x="364" 
d="M91 -139h55q0 -17 10 -26.5t27 -9.5q14 0 23.5 9t9.5 27q0 36 -39 36v55q43 4 71 -22t28 -69q0 -38 -25.5 -64.5t-67.5 -26.5q-41 0 -68.5 25t-23.5 66z" />
    <glyph glyph-name="onesuperior" unicode="&#xb9;" horiz-adv-x="294" 
d="M193 785v-339l74 -5v-51h-220v51l76 5v279l-70 -6l-6 46l115 25z" />
    <glyph glyph-name="ordmasculine" unicode="&#xba;" horiz-adv-x="403" 
d="M68 215v65h267v-65h-267zM334 499q-3 -53 -38.5 -86t-93.5 -33q-59 0 -95 33.5t-38 85.5q-2 47 0 93q2 53 37 85.5t96 32.5q60 0 94.5 -32.5t37.5 -85.5q3 -44 0 -93zM269 591q-1 33 -19.5 51t-47.5 18t-48 -18t-20 -51q-3 -46 0 -90q2 -33 20.5 -52t47.5 -19q28 0 47 19
t20 52q3 41 0 90z" />
    <glyph glyph-name="guillemotright" unicode="&#xbb;" horiz-adv-x="494" 
d="M357 246l-130 129l44 49l181 -178v-7l-184 -170l-40 50l129 120v7zM152 246l-130 129l44 49l181 -178v-7l-184 -170l-40 50l129 120v7z" />
    <glyph glyph-name="onequarter" unicode="&#xbc;" horiz-adv-x="862" 
d="M218 700v-339l74 -5v-51h-220v51l76 5v279l-70 -6l-6 46l115 25zM656 93h-181l-10 41l183 266l73 -5v-247h69v-55h-69v-93h-65v93zM535 148h121v180zM722 700l-490 -700h-76l491 700h75z" />
    <glyph glyph-name="onehalf" unicode="&#xbd;" horiz-adv-x="900" 
d="M722 700l-490 -700h-76l491 700h75zM548 0l-5 49q10 9 34 27.5t44.5 36t41.5 36.5q37 33 56 63.5t19 67.5q0 34 -16.5 52t-44.5 18q-34 0 -54 -21t-19 -59l-60 -5q-6 58 31 99t102 41q60 0 95.5 -34t35.5 -90q0 -84 -95 -160l-88 -66h203v-55h-280zM218 700v-339l74 -5
v-51h-220v51l76 5v279l-70 -6l-6 46l115 25z" />
    <glyph glyph-name="threequarters" unicode="&#xbe;" horiz-adv-x="888" 
d="M282 424q0 35 -21.5 53t-52.5 18q-20 0 -33 -5l-12 34l102 121h-183v55h257l5 -47l-109 -120q45 3 81 -24.5t36 -82.5q0 -61 -39.5 -96t-100.5 -35q-64 0 -102 34.5t-37 85.5l60 5q1 -33 22.5 -51.5t56.5 -18.5q32 0 51 20t19 54zM682 93h-181l-10 41l183 266l73 -5v-247
h69v-55h-69v-93h-65v93zM561 148h121v180zM754 700l-490 -700h-76l491 700h75z" />
    <glyph glyph-name="questiondown" unicode="&#xbf;" horiz-adv-x="445" 
d="M199 310h69l2 -28q4 -67 -7.5 -101.5t-55.5 -88.5q-49 -59 -60 -84q-12 -28 -12 -60q0 -48 25 -75.5t66 -27.5q52 0 81.5 33t31.5 92l80 5q7 -88 -49 -146.5t-147 -58.5q-74 0 -126 49t-52 125q0 53 24.5 96t74.5 99q38 43 46.5 66.5t8.5 69.5v35zM295 439
q0 -27 -18 -45.5t-44 -18.5q-27 0 -45.5 18.5t-18.5 45.5q0 26 18.5 43.5t45.5 17.5q26 0 44 -17.5t18 -43.5z" />
    <glyph glyph-name="Agrave" unicode="&#xc0;" horiz-adv-x="605" 
d="M495 0l-63 190h-263l-64 -190h-90l238 674l-8 26h100l245 -700h-95zM278 518l-84 -253h214l-84 255l-23 79zM134 880h90l100 -130h-77z" />
    <glyph glyph-name="Aacute" unicode="&#xc1;" horiz-adv-x="605" 
d="M495 0l-63 190h-263l-64 -190h-90l238 674l-8 26h100l245 -700h-95zM278 518l-84 -253h214l-84 255l-23 79zM370 880h90l-109 -130h-73z" />
    <glyph glyph-name="Acircumflex" unicode="&#xc2;" horiz-adv-x="605" 
d="M495 0l-63 190h-263l-64 -190h-90l238 674l-8 26h100l245 -700h-95zM278 518l-84 -253h214l-84 255l-23 79zM285 880h43l113 -130h-76l-61 69l-62 -69h-72z" />
    <glyph glyph-name="Atilde" unicode="&#xc3;" horiz-adv-x="605" 
d="M495 0l-63 190h-263l-64 -190h-90l238 674l-8 26h100l245 -700h-95zM278 518l-84 -253h214l-84 255l-23 79zM358 760q-22 0 -60 19.5t-47 19.5q-25 0 -25 -39h-56q-4 44 15.5 72t58.5 28q24 0 65 -21t48 -21q23 0 23 43h53q10 -101 -75 -101z" />
    <glyph glyph-name="Adieresis" unicode="&#xc4;" horiz-adv-x="605" 
d="M495 0l-63 190h-263l-64 -190h-90l238 674l-8 26h100l245 -700h-95zM278 518l-84 -253h214l-84 255l-23 79zM159 802q0 24 16 40t39 16q25 0 41 -16t16 -40t-16 -39.5t-41 -15.5q-23 0 -39 15.5t-16 39.5zM339 802q0 24 15.5 40t38.5 16q25 0 41.5 -16t16.5 -40
t-16.5 -39.5t-41.5 -15.5q-23 0 -38.5 15.5t-15.5 39.5z" />
    <glyph glyph-name="Aring" unicode="&#xc5;" horiz-adv-x="605" 
d="M495 0l-63 190h-263l-64 -190h-90l238 674l-8 26h100l245 -700h-95zM278 518l-84 -253h214l-84 255l-23 79zM211 825q0 39 27 63.5t62 24.5q34 0 61 -24.5t28 -63.5t-26 -64.5t-63 -25.5t-62.5 25.5t-26.5 64.5zM260 826q0 -21 11.5 -33.5t28.5 -12.5t28.5 13t11.5 33
q0 17 -11.5 29.5t-28.5 12.5q-16 0 -28 -12t-12 -30z" />
    <glyph glyph-name="AE" unicode="&#xc6;" horiz-adv-x="807" 
d="M418 0v250h-207l-128 -250h-93l368 700h404v-75h-254v-230h225v-75h-225v-245h254v-75h-344zM418 653l-168 -328h168v328z" />
    <glyph glyph-name="Ccedilla" unicode="&#xc7;" horiz-adv-x="576" 
d="M530 515l-80 -5q0 58 -36.5 94t-101.5 36q-72 0 -111.5 -39.5t-42.5 -116.5q-5 -123 0 -273q2 -70 44.5 -110.5t105.5 -40.5q68 0 106.5 36t40.5 99l80 -5q2 -86 -60.5 -145.5t-166.5 -59.5q-105 0 -170.5 59t-69.5 166q-5 138 0 274q5 104 71 167.5t175 63.5
q104 0 162.5 -57t53.5 -143zM203 -159h55q0 -17 10 -26.5t27 -9.5q14 0 23.5 9t9.5 27q0 36 -39 36v55q43 4 71 -22t28 -69q0 -38 -25.5 -64.5t-67.5 -26.5q-41 0 -68.5 25t-23.5 66z" />
    <glyph glyph-name="Egrave" unicode="&#xc8;" horiz-adv-x="520" 
d="M90 0v700h380v-75h-290v-230h261v-75h-261v-245h290v-75h-380zM128 880h90l100 -130h-77z" />
    <glyph glyph-name="Eacute" unicode="&#xc9;" horiz-adv-x="520" 
d="M90 0v700h380v-75h-290v-230h261v-75h-261v-245h290v-75h-380zM322 880h90l-109 -130h-73z" />
    <glyph glyph-name="Ecircumflex" unicode="&#xca;" horiz-adv-x="520" 
d="M90 0v700h380v-75h-290v-230h261v-75h-261v-245h290v-75h-380zM264 880h43l113 -130h-76l-61 69l-62 -69h-72z" />
    <glyph glyph-name="Edieresis" unicode="&#xcb;" horiz-adv-x="520" 
d="M90 0v700h380v-75h-290v-230h261v-75h-261v-245h290v-75h-380zM137 802q0 24 16 40t39 16q25 0 41 -16t16 -40t-16 -39.5t-41 -15.5q-23 0 -39 15.5t-16 39.5zM317 802q0 24 15.5 40t38.5 16q25 0 41.5 -16t16.5 -40t-16.5 -39.5t-41.5 -15.5q-23 0 -38.5 15.5
t-15.5 39.5z" />
    <glyph glyph-name="Igrave" unicode="&#xcc;" horiz-adv-x="270" 
d="M180 700v-700h-90v700h90zM-12 880h90l100 -130h-77z" />
    <glyph glyph-name="Iacute" unicode="&#xcd;" horiz-adv-x="270" 
d="M180 700v-700h-90v700h90zM196 880h90l-109 -130h-73z" />
    <glyph glyph-name="Icircumflex" unicode="&#xce;" horiz-adv-x="270" 
d="M180 700v-700h-90v700h90zM115 880h43l113 -130h-76l-61 69l-62 -69h-72z" />
    <glyph glyph-name="Idieresis" unicode="&#xcf;" horiz-adv-x="270" 
d="M180 700v-700h-90v700h90zM-6 802q0 24 16 40t39 16q25 0 41 -16t16 -40t-16 -39.5t-41 -15.5q-23 0 -39 15.5t-16 39.5zM174 802q0 24 15.5 40t38.5 16q25 0 41.5 -16t16.5 -40t-16.5 -39.5t-41.5 -15.5q-23 0 -38.5 15.5t-15.5 39.5z" />
    <glyph glyph-name="Eth" unicode="&#xd0;" horiz-adv-x="605" 
d="M30 300v60h69v340q71 5 146 5q296 0 312 -232q7 -106 0 -233q-7 -128 -95 -186.5t-227 -58.5l-136 5v300h-69zM467 468q-11 162 -212 162l-66 -2v-268h111v-60h-111v-228q28 -2 62 -2q206 0 216 166q7 119 0 232z" />
    <glyph glyph-name="Ntilde" unicode="&#xd1;" horiz-adv-x="675" 
d="M90 700h91l269 -454l50 -111v565h85v-700h-90l-273 463l-47 106v-569h-85v700zM405 760q-22 0 -60 19.5t-47 19.5q-25 0 -25 -39h-56q-4 44 15.5 72t58.5 28q25 0 66 -21t47 -21q23 0 23 43h53q10 -101 -75 -101z" />
    <glyph glyph-name="Ograve" unicode="&#xd2;" horiz-adv-x="620" 
d="M173 880h90l100 -130h-77zM310 60q68 0 109 42t43 115q4 122 0 268q-2 73 -42.5 114t-109.5 41t-109.5 -41t-42.5 -114q-4 -146 0 -268q2 -73 43 -115t109 -42zM310 -15q-106 0 -171.5 63t-70.5 168q-6 139 0 271q4 104 70 166t172 62t171.5 -62t70.5 -166q6 -132 0 -271
q-5 -105 -70.5 -168t-171.5 -63z" />
    <glyph glyph-name="Oacute" unicode="&#xd3;" horiz-adv-x="620" 
d="M364 880h90l-109 -130h-73zM310 60q68 0 109 42t43 115q4 122 0 268q-2 73 -42.5 114t-109.5 41t-109.5 -41t-42.5 -114q-4 -146 0 -268q2 -73 43 -115t109 -42zM310 -15q-106 0 -171.5 63t-70.5 168q-6 139 0 271q4 104 70 166t172 62t171.5 -62t70.5 -166
q6 -132 0 -271q-5 -105 -70.5 -168t-171.5 -63z" />
    <glyph glyph-name="Ocircumflex" unicode="&#xd4;" horiz-adv-x="620" 
d="M296 880h43l113 -130h-76l-61 69l-62 -69h-72zM310 60q68 0 109 42t43 115q4 122 0 268q-2 73 -42.5 114t-109.5 41t-109.5 -41t-42.5 -114q-4 -146 0 -268q2 -73 43 -115t109 -42zM310 -15q-106 0 -171.5 63t-70.5 168q-6 139 0 271q4 104 70 166t172 62t171.5 -62
t70.5 -166q6 -132 0 -271q-5 -105 -70.5 -168t-171.5 -63z" />
    <glyph glyph-name="Otilde" unicode="&#xd5;" horiz-adv-x="620" 
d="M368 759q-22 0 -60 19.5t-47 19.5q-25 0 -25 -39h-56q-4 44 15.5 72t58.5 28q24 0 65 -21t48 -21q23 0 23 43h53q10 -101 -75 -101zM310 60q68 0 109 42t43 115q4 122 0 268q-2 73 -42.5 114t-109.5 41t-109.5 -41t-42.5 -114q-4 -146 0 -268q2 -73 43 -115t109 -42z
M310 -15q-106 0 -171.5 63t-70.5 168q-6 139 0 271q4 104 70 166t172 62t171.5 -62t70.5 -166q6 -132 0 -271q-5 -105 -70.5 -168t-171.5 -63z" />
    <glyph glyph-name="Odieresis" unicode="&#xd6;" horiz-adv-x="620" 
d="M165 803q0 24 16 40t39 16q25 0 41 -16t16 -40t-16 -39.5t-41 -15.5q-23 0 -39 15.5t-16 39.5zM345 803q0 24 15.5 40t38.5 16q25 0 41.5 -16t16.5 -40t-16.5 -39.5t-41.5 -15.5q-23 0 -38.5 15.5t-15.5 39.5zM310 60q68 0 109 42t43 115q4 122 0 268q-2 73 -42.5 114
t-109.5 41t-109.5 -41t-42.5 -114q-4 -146 0 -268q2 -73 43 -115t109 -42zM310 -15q-106 0 -171.5 63t-70.5 168q-6 139 0 271q4 104 70 166t172 62t171.5 -62t70.5 -166q6 -132 0 -271q-5 -105 -70.5 -168t-171.5 -63z" />
    <glyph glyph-name="multiply" unicode="&#xd7;" horiz-adv-x="620" 
d="M497 487l53 -55l-187 -186l187 -186l-53 -55l-188 186l-186 -186l-53 54l186 186l-184 185l53 56l184 -187z" />
    <glyph glyph-name="Oslash" unicode="&#xd8;" horiz-adv-x="606" 
d="M300 -15q-96 0 -159 51l-31 -51h-65l57 93q-41 58 -44 138q-6 139 0 271q4 104 70 166t172 62q100 0 163 -54l33 54h65l-60 -97q38 -55 41 -131q6 -132 0 -271q-5 -105 -70.5 -168t-171.5 -63zM148 217q0 -25 7 -53l263 425q-42 51 -118 51q-69 0 -109.5 -41t-42.5 -114
q-4 -146 0 -268zM300 60q68 0 109 42t43 115q4 122 0 268q-2 31 -6 44l-261 -422q42 -47 115 -47z" />
    <glyph glyph-name="Ugrave" unicode="&#xd9;" horiz-adv-x="645" 
d="M323 -15q-105 0 -170.5 62.5t-66.5 174.5v478h90q-1 -389 0 -478q1 -78 39.5 -120t107.5 -42t107 42t39 120v478h90q1 -364 0 -478q-1 -112 -66 -174.5t-170 -62.5zM187 880h90l100 -130h-77z" />
    <glyph glyph-name="Uacute" unicode="&#xda;" horiz-adv-x="645" 
d="M323 -15q-105 0 -170.5 62.5t-66.5 174.5v478h90q-1 -389 0 -478q1 -78 39.5 -120t107.5 -42t107 42t39 120v478h90q1 -364 0 -478q-1 -112 -66 -174.5t-170 -62.5zM378 880h90l-109 -130h-73z" />
    <glyph glyph-name="Ucircumflex" unicode="&#xdb;" horiz-adv-x="645" 
d="M323 -15q-105 0 -170.5 62.5t-66.5 174.5v478h90q-1 -389 0 -478q1 -78 39.5 -120t107.5 -42t107 42t39 120v478h90q1 -364 0 -478q-1 -112 -66 -174.5t-170 -62.5zM311 880h43l113 -130h-76l-61 69l-62 -69h-72z" />
    <glyph glyph-name="Udieresis" unicode="&#xdc;" horiz-adv-x="645" 
d="M323 -15q-105 0 -170.5 62.5t-66.5 174.5v478h90q-1 -389 0 -478q1 -78 39.5 -120t107.5 -42t107 42t39 120v478h90q1 -364 0 -478q-1 -112 -66 -174.5t-170 -62.5zM187 803q0 24 16 40t39 16q25 0 41 -16t16 -40t-16 -39.5t-41 -15.5q-23 0 -39 15.5t-16 39.5zM367 803
q0 24 15.5 40t38.5 16q25 0 41.5 -16t16.5 -40t-16.5 -39.5t-41.5 -15.5q-23 0 -38.5 15.5t-15.5 39.5z" />
    <glyph glyph-name="Yacute" unicode="&#xdd;" horiz-adv-x="511" 
d="M298 281v-281h-90v281l-228 419h98l162 -310l15 -37l15 37l159 310h97zM307 880h90l-109 -130h-73z" />
    <glyph glyph-name="Thorn" unicode="&#xde;" horiz-adv-x="560" 
d="M180 700v-130q44 1 96 1q259 0 259 -210q0 -103 -66 -160t-193 -57l-96 1v-145h-90v700h90zM180 495v-274q47 -1 91 -1q82 0 128 30t46 110q0 70 -40 103t-131 33z" />
    <glyph glyph-name="germandbls" unicode="&#xdf;" horiz-adv-x="568" 
d="M245 3l1 62q27 -10 76 -10q108 0 113 95v75q-1 61 -29 85.5t-82 24.5q-21 0 -45 -2l-5 63q31 25 111 99q32 29 32 70q0 57 -32.5 86t-82.5 29q-52 0 -91 -37.5t-39 -104.5v-538h-85v529q0 104 65 162.5t152 58.5q82 0 139.5 -46t57.5 -141q0 -32 -13.5 -50.5t-54.5 -52.5
q-12 -10 -42.5 -32.5t-49.5 -37.5q74 4 125.5 -34.5t53.5 -130.5q1 -31 0 -75q-4 -77 -53 -118.5t-134 -41.5q-48 0 -88 13z" />
    <glyph glyph-name="agrave" unicode="&#xe0;" horiz-adv-x="491" 
d="M464 60v-60q-9 -5 -28.5 -7.5t-42.5 -0.5t-42.5 19.5t-25.5 48.5h-3q-45 -75 -133 -75q-58 0 -97.5 38t-39.5 101q0 49 21 71.5t79 39.5q28 8 68.5 18t67.5 16.5t26 5.5v48q0 54 -18 80.5t-63 26.5q-42 0 -66 -23t-24 -62l-75 -6q-8 72 43 116.5t127 44.5q77 0 119 -43
t42 -129v-213q0 -35 14.5 -45t50.5 -10zM186 192q-29 -10 -39 -22.5t-10 -35.5q0 -39 22.5 -61.5t59.5 -22.5q43 0 69 32t26 80v64q-85 -20 -128 -34zM53 700h100l110 -145h-79z" />
    <glyph glyph-name="aacute" unicode="&#xe1;" horiz-adv-x="491" 
d="M464 60v-60q-9 -5 -28.5 -7.5t-42.5 -0.5t-42.5 19.5t-25.5 48.5h-3q-45 -75 -133 -75q-58 0 -97.5 38t-39.5 101q0 49 21 71.5t79 39.5q28 8 68.5 18t67.5 16.5t26 5.5v48q0 54 -18 80.5t-63 26.5q-42 0 -66 -23t-24 -62l-75 -6q-8 72 43 116.5t127 44.5q77 0 119 -43
t42 -129v-213q0 -35 14.5 -45t50.5 -10zM186 192q-29 -10 -39 -22.5t-10 -35.5q0 -39 22.5 -61.5t59.5 -22.5q43 0 69 32t26 80v64q-85 -20 -128 -34zM291 700h100l-132 -145h-78z" />
    <glyph glyph-name="acircumflex" unicode="&#xe2;" horiz-adv-x="491" 
d="M464 60v-60q-9 -5 -28.5 -7.5t-42.5 -0.5t-42.5 19.5t-25.5 48.5h-3q-45 -75 -133 -75q-58 0 -97.5 38t-39.5 101q0 49 21 71.5t79 39.5q28 8 68.5 18t67.5 16.5t26 5.5v48q0 54 -18 80.5t-63 26.5q-42 0 -66 -23t-24 -62l-75 -6q-8 72 43 116.5t127 44.5q77 0 119 -43
t42 -129v-213q0 -35 14.5 -45t50.5 -10zM186 192q-29 -10 -39 -22.5t-10 -35.5q0 -39 22.5 -61.5t59.5 -22.5q43 0 69 32t26 80v64q-85 -20 -128 -34zM197 700h53l121 -150h-80l-68 84l-69 -84h-78z" />
    <glyph glyph-name="atilde" unicode="&#xe3;" horiz-adv-x="491" 
d="M464 60v-60q-9 -5 -28.5 -7.5t-42.5 -0.5t-42.5 19.5t-25.5 48.5h-3q-45 -75 -133 -75q-58 0 -97.5 38t-39.5 101q0 49 21 71.5t79 39.5q28 8 68.5 18t67.5 16.5t26 5.5v48q0 54 -18 80.5t-63 26.5q-42 0 -66 -23t-24 -62l-75 -6q-8 72 43 116.5t127 44.5q77 0 119 -43
t42 -129v-213q0 -35 14.5 -45t50.5 -10zM186 192q-29 -10 -39 -22.5t-10 -35.5q0 -39 22.5 -61.5t59.5 -22.5q43 0 69 32t26 80v64q-85 -20 -128 -34zM296 589q-24 0 -69 22t-59 22q-30 0 -30 -44h-56q-4 45 18.5 77.5t64.5 32.5q26 0 74 -23.5t60 -23.5q28 0 28 48h53
q5 -48 -16 -79.5t-68 -31.5z" />
    <glyph glyph-name="adieresis" unicode="&#xe4;" horiz-adv-x="491" 
d="M464 60v-60q-9 -5 -28.5 -7.5t-42.5 -0.5t-42.5 19.5t-25.5 48.5h-3q-45 -75 -133 -75q-58 0 -97.5 38t-39.5 101q0 49 21 71.5t79 39.5q28 8 68.5 18t67.5 16.5t26 5.5v48q0 54 -18 80.5t-63 26.5q-42 0 -66 -23t-24 -62l-75 -6q-8 72 43 116.5t127 44.5q77 0 119 -43
t42 -129v-213q0 -35 14.5 -45t50.5 -10zM186 192q-29 -10 -39 -22.5t-10 -35.5q0 -39 22.5 -61.5t59.5 -22.5q43 0 69 32t26 80v64q-85 -20 -128 -34zM80 644q0 24 16 40t39 16q25 0 41 -16t16 -40t-16 -39.5t-41 -15.5q-23 0 -39 15.5t-16 39.5zM260 644q0 24 15.5 40
t38.5 16q25 0 41.5 -16t16.5 -40t-16.5 -39.5t-41.5 -15.5q-23 0 -38.5 15.5t-15.5 39.5z" />
    <glyph glyph-name="aring" unicode="&#xe5;" horiz-adv-x="491" 
d="M464 60v-60q-9 -5 -28.5 -7.5t-42.5 -0.5t-42.5 19.5t-25.5 48.5h-3q-45 -75 -133 -75q-58 0 -97.5 38t-39.5 101q0 49 21 71.5t79 39.5q28 8 68.5 18t67.5 16.5t26 5.5v48q0 54 -18 80.5t-63 26.5q-42 0 -66 -23t-24 -62l-75 -6q-8 72 43 116.5t127 44.5q77 0 119 -43
t42 -129v-213q0 -35 14.5 -45t50.5 -10zM127 652q0 44 30 71t69 27q38 0 68.5 -27.5t30.5 -70.5t-29.5 -71.5t-69.5 -28.5t-69.5 28.5t-29.5 71.5zM186 192q-29 -10 -39 -22.5t-10 -35.5q0 -39 22.5 -61.5t59.5 -22.5q43 0 69 32t26 80v64q-85 -20 -128 -34zM182 653
q0 -23 13 -37t31 -14q19 0 31.5 14t12.5 37q0 19 -12.5 33t-31.5 14q-18 0 -31 -13.5t-13 -33.5z" />
    <glyph glyph-name="ae" unicode="&#xe6;" horiz-adv-x="731" 
d="M591 248l-189 -27v-52q1 -57 30.5 -85.5t76.5 -28.5q83 0 96 90l70 -5q3 -63 -42 -109t-124 -46q-59 0 -104.5 24t-68.5 70q-39 -94 -143 -94q-60 0 -100.5 38t-40.5 99q0 49 22 74.5t72 38.5q28 7 71 14.5t72 11.5t28 3v68q0 98 -84 98q-42 0 -66 -23t-24 -62l-75 -6
q-9 65 37 113t131 48q88 0 132 -57q52 57 141 57q79 0 124.5 -43t45.5 -117q0 -49 -16 -65t-72 -27zM403 298v-26q74 8 142 21q31 6 41 16.5t10 32.5q0 42 -22 65t-63 23q-54 0 -81 -35.5t-27 -96.5zM192 192q-30 -8 -42.5 -21.5t-12.5 -38.5q0 -38 22.5 -60t59.5 -22
q44 0 71 30t27 77v59q-82 -12 -125 -24z" />
    <glyph glyph-name="ccedilla" unicode="&#xe7;" horiz-adv-x="450" 
d="M250 -15q-84 0 -136.5 45t-54.5 130q-3 85 0 160q3 86 54.5 133t132.5 47t127 -41t44 -109l-75 -5q-2 43 -29 64t-67 21q-45 0 -72.5 -28.5t-29.5 -81.5q-3 -78 0 -145q4 -120 106 -120q43 0 67 25t30 65l70 -5q3 -63 -42 -109t-125 -46zM146 -158h55q0 -17 10 -26.5
t27 -9.5q14 0 23.5 9t9.5 27q0 36 -39 36v55q43 4 71 -22t28 -69q0 -38 -25.5 -64.5t-67.5 -26.5q-41 0 -68.5 25t-23.5 66z" />
    <glyph glyph-name="egrave" unicode="&#xe8;" horiz-adv-x="472" 
d="M332 244l-189 -32v-32q0 -60 29 -92.5t78 -32.5q44 0 68.5 25t30.5 65l70 -5q3 -63 -43 -109t-126 -46q-87 0 -138 49t-53 131q-3 90 0 149q4 81 54 133.5t137 52.5q79 0 124.5 -45t45.5 -120q0 -48 -15.5 -63.5t-72.5 -27.5zM143 298v-31q72 9 141 24q32 7 41.5 16
t9.5 30q0 43 -22.5 68t-62.5 25q-54 0 -80.5 -35.5t-26.5 -96.5zM75 700h100l110 -145h-79z" />
    <glyph glyph-name="eacute" unicode="&#xe9;" horiz-adv-x="472" 
d="M332 244l-189 -32v-32q0 -60 29 -92.5t78 -32.5q44 0 68.5 25t30.5 65l70 -5q3 -63 -43 -109t-126 -46q-87 0 -138 49t-53 131q-3 90 0 149q4 81 54 133.5t137 52.5q79 0 124.5 -45t45.5 -120q0 -48 -15.5 -63.5t-72.5 -27.5zM143 298v-31q72 9 141 24q32 7 41.5 16
t9.5 30q0 43 -22.5 68t-62.5 25q-54 0 -80.5 -35.5t-26.5 -96.5zM293 700h100l-132 -145h-78z" />
    <glyph glyph-name="ecircumflex" unicode="&#xea;" horiz-adv-x="472" 
d="M332 244l-189 -32v-32q0 -60 29 -92.5t78 -32.5q44 0 68.5 25t30.5 65l70 -5q3 -63 -43 -109t-126 -46q-87 0 -138 49t-53 131q-3 90 0 149q4 81 54 133.5t137 52.5q79 0 124.5 -45t45.5 -120q0 -48 -15.5 -63.5t-72.5 -27.5zM143 298v-31q72 9 141 24q32 7 41.5 16
t9.5 30q0 43 -22.5 68t-62.5 25q-54 0 -80.5 -35.5t-26.5 -96.5zM219 700h53l121 -150h-80l-68 84l-69 -84h-78z" />
    <glyph glyph-name="edieresis" unicode="&#xeb;" horiz-adv-x="472" 
d="M332 244l-189 -32v-32q0 -60 29 -92.5t78 -32.5q44 0 68.5 25t30.5 65l70 -5q3 -63 -43 -109t-126 -46q-87 0 -138 49t-53 131q-3 90 0 149q4 81 54 133.5t137 52.5q79 0 124.5 -45t45.5 -120q0 -48 -15.5 -63.5t-72.5 -27.5zM143 298v-31q72 9 141 24q32 7 41.5 16
t9.5 30q0 43 -22.5 68t-62.5 25q-54 0 -80.5 -35.5t-26.5 -96.5zM96 644q0 24 16 40t39 16q25 0 41 -16t16 -40t-16 -39.5t-41 -15.5q-23 0 -39 15.5t-16 39.5zM276 644q0 24 15.5 40t38.5 16q25 0 41.5 -16t16.5 -40t-16.5 -39.5t-41.5 -15.5q-23 0 -38.5 15.5t-15.5 39.5z
" />
    <glyph glyph-name="igrave" unicode="&#xec;" horiz-adv-x="244" 
d="M152 495v-369q0 -37 14.5 -51.5t50.5 -14.5v-60q-61 -17 -105.5 5t-44.5 91v364zM-64 700h100l110 -145h-79z" />
    <glyph glyph-name="iacute" unicode="&#xed;" horiz-adv-x="244" 
d="M152 495v-369q0 -37 14.5 -51.5t50.5 -14.5v-60q-61 -17 -105.5 5t-44.5 91v364zM182 700h100l-132 -145h-78z" />
    <glyph glyph-name="icircumflex" unicode="&#xee;" horiz-adv-x="244" 
d="M152 495v-369q0 -37 14.5 -51.5t50.5 -14.5v-60q-61 -17 -105.5 5t-44.5 91v364zM82 700h53l121 -150h-80l-68 84l-69 -84h-78z" />
    <glyph glyph-name="idieresis" unicode="&#xef;" horiz-adv-x="244" 
d="M152 495v-369q0 -37 14.5 -51.5t50.5 -14.5v-60q-61 -17 -105.5 5t-44.5 91v364zM-35 646q0 24 16 40t39 16q25 0 41 -16t16 -40t-16 -39.5t-41 -15.5q-23 0 -39 15.5t-16 39.5zM145 646q0 24 15.5 40t38.5 16q25 0 41.5 -16t16.5 -40t-16.5 -39.5t-41.5 -15.5
q-23 0 -38.5 15.5t-15.5 39.5z" />
    <glyph glyph-name="eth" unicode="&#xf0;" horiz-adv-x="526" 
d="M464 750l-134 -96q115 -113 125 -315q4 -84 0 -179q-4 -81 -58.5 -128t-135.5 -47q-82 0 -137.5 47.5t-58.5 127.5t0 145q4 77 53.5 123.5t117.5 46.5q91 0 129 -67q-13 121 -88 202l-94 -70h-83l142 104q-61 51 -145 74l74 32q68 -24 121 -64l83 64h89zM370 164
q3 63 0 141q-2 47 -34 73.5t-78 26.5q-47 0 -76.5 -25.5t-31.5 -79.5q-2 -74 0 -135q2 -50 32.5 -80t78.5 -30q47 0 77 29.5t32 79.5z" />
    <glyph glyph-name="ntilde" unicode="&#xf1;" horiz-adv-x="538" 
d="M92 0v379q0 28 -14 37t-46 9v55q23 10 49 10q34 0 58.5 -18t30.5 -54h1q50 82 151 82q68 0 108.5 -44t40.5 -120v-336h-85v326q0 104 -92 104q-49 0 -83 -32.5t-34 -65.5v-332h-85zM346 589q-24 0 -69 22t-59 22q-30 0 -30 -44h-56q-4 45 18.5 77.5t64.5 32.5
q26 0 74 -23.5t60 -23.5q28 0 28 48h53q5 -48 -16 -79.5t-68 -31.5z" />
    <glyph glyph-name="ograve" unicode="&#xf2;" horiz-adv-x="505" 
d="M445 165q-4 -80 -57 -130t-135 -50q-83 0 -136.5 50t-56.5 130q-3 87 0 157q4 80 56.5 129t136.5 49t136 -49t56 -129q4 -73 0 -157zM360 320q-2 49 -30.5 79.5t-76.5 30.5t-77 -30t-31 -80q-3 -83 0 -152q2 -50 31.5 -81.5t76.5 -31.5q46 0 75.5 31.5t31.5 80.5
q3 71 0 153zM81 700h100l110 -145h-79z" />
    <glyph glyph-name="oacute" unicode="&#xf3;" horiz-adv-x="505" 
d="M445 165q-4 -80 -57 -130t-135 -50q-83 0 -136.5 50t-56.5 130q-3 87 0 157q4 80 56.5 129t136.5 49t136 -49t56 -129q4 -73 0 -157zM360 320q-2 49 -30.5 79.5t-76.5 30.5t-77 -30t-31 -80q-3 -83 0 -152q2 -50 31.5 -81.5t76.5 -31.5q46 0 75.5 31.5t31.5 80.5
q3 71 0 153zM315 700h100l-132 -145h-78z" />
    <glyph glyph-name="ocircumflex" unicode="&#xf4;" horiz-adv-x="505" 
d="M445 165q-4 -80 -57 -130t-135 -50q-83 0 -136.5 50t-56.5 130q-3 87 0 157q4 80 56.5 129t136.5 49t136 -49t56 -129q4 -73 0 -157zM360 320q-2 49 -30.5 79.5t-76.5 30.5t-77 -30t-31 -80q-3 -83 0 -152q2 -50 31.5 -81.5t76.5 -31.5q46 0 75.5 31.5t31.5 80.5
q3 71 0 153zM224 700h53l121 -150h-80l-68 84l-69 -84h-78z" />
    <glyph glyph-name="otilde" unicode="&#xf5;" horiz-adv-x="505" 
d="M445 165q-4 -80 -57 -130t-135 -50q-83 0 -136.5 50t-56.5 130q-3 87 0 157q4 80 56.5 129t136.5 49t136 -49t56 -129q4 -73 0 -157zM360 320q-2 49 -30.5 79.5t-76.5 30.5t-77 -30t-31 -80q-3 -83 0 -152q2 -50 31.5 -81.5t76.5 -31.5q46 0 75.5 31.5t31.5 80.5
q3 71 0 153zM316 589q-24 0 -69 22t-59 22q-30 0 -30 -44h-56q-4 45 18.5 77.5t64.5 32.5q26 0 74 -23.5t60 -23.5q28 0 28 48h53q5 -48 -16 -79.5t-68 -31.5z" />
    <glyph glyph-name="odieresis" unicode="&#xf6;" horiz-adv-x="505" 
d="M445 165q-4 -80 -57 -130t-135 -50q-83 0 -136.5 50t-56.5 130q-3 87 0 157q4 80 56.5 129t136.5 49t136 -49t56 -129q4 -73 0 -157zM360 320q-2 49 -30.5 79.5t-76.5 30.5t-77 -30t-31 -80q-3 -83 0 -152q2 -50 31.5 -81.5t76.5 -31.5q46 0 75.5 31.5t31.5 80.5
q3 71 0 153zM106 644q0 24 16 40t39 16q25 0 41 -16t16 -40t-16 -39.5t-41 -15.5q-23 0 -39 15.5t-16 39.5zM286 644q0 24 15.5 40t38.5 16q25 0 41.5 -16t16.5 -40t-16.5 -39.5t-41.5 -15.5q-23 0 -38.5 15.5t-15.5 39.5z" />
    <glyph glyph-name="divide" unicode="&#xf7;" horiz-adv-x="587" 
d="M37 225v75h513v-75h-513zM227 64q0 28 18 47t46 19t47 -19t19 -47q0 -27 -19 -45.5t-47 -18.5t-46 18.5t-18 45.5zM227 459q0 28 18 47t46 19t47 -19t19 -47q0 -27 -19 -45.5t-47 -18.5t-46 18.5t-18 45.5z" />
    <glyph glyph-name="oslash" unicode="&#xf8;" horiz-adv-x="510" 
d="M445 165q-4 -80 -57 -130t-135 -50q-71 0 -123 38l-27 -38h-60l52 74q-34 46 -35 106q-3 87 0 157q4 80 56.5 129t136.5 49q74 0 126 -41l29 41h60l-55 -78q29 -43 32 -100q4 -73 0 -157zM145 168q0 -15 5 -32l183 259q-29 35 -80 35q-48 0 -77 -30t-31 -80
q-3 -83 0 -152zM360 320l-3 24l-182 -257q30 -32 78 -32q46 0 75.5 31.5t31.5 80.5q3 71 0 153z" />
    <glyph glyph-name="ugrave" unicode="&#xf9;" horiz-adv-x="521" 
d="M429 495v-380q0 -35 14.5 -45t50.5 -10v-60q-12 -5 -30.5 -7t-41 1t-42 20t-26.5 46h-2q-42 -75 -137 -75q-69 0 -111 42.5t-42 120.5v312l85 35v-331q0 -109 91 -109q50 0 78 28.5t28 65.5v311zM77 700h100l110 -145h-79z" />
    <glyph glyph-name="uacute" unicode="&#xfa;" horiz-adv-x="521" 
d="M429 495v-380q0 -35 14.5 -45t50.5 -10v-60q-12 -5 -30.5 -7t-41 1t-42 20t-26.5 46h-2q-42 -75 -137 -75q-69 0 -111 42.5t-42 120.5v312l85 35v-331q0 -109 91 -109q50 0 78 28.5t28 65.5v311zM314 700h100l-132 -145h-78z" />
    <glyph glyph-name="ucircumflex" unicode="&#xfb;" horiz-adv-x="521" 
d="M429 495v-380q0 -35 14.5 -45t50.5 -10v-60q-12 -5 -30.5 -7t-41 1t-42 20t-26.5 46h-2q-42 -75 -137 -75q-69 0 -111 42.5t-42 120.5v312l85 35v-331q0 -109 91 -109q50 0 78 28.5t28 65.5v311zM227 700h53l121 -150h-80l-68 84l-69 -84h-78z" />
    <glyph glyph-name="udieresis" unicode="&#xfc;" horiz-adv-x="521" 
d="M429 495v-380q0 -35 14.5 -45t50.5 -10v-60q-12 -5 -30.5 -7t-41 1t-42 20t-26.5 46h-2q-42 -75 -137 -75q-69 0 -111 42.5t-42 120.5v312l85 35v-331q0 -109 91 -109q50 0 78 28.5t28 65.5v311zM102 644q0 24 16 40t39 16q25 0 41 -16t16 -40t-16 -39.5t-41 -15.5
q-23 0 -39 15.5t-16 39.5zM282 644q0 24 15.5 40t38.5 16q25 0 41.5 -16t16.5 -40t-16.5 -39.5t-41.5 -15.5q-23 0 -38.5 15.5t-15.5 39.5z" />
    <glyph glyph-name="yacute" unicode="&#xfd;" horiz-adv-x="420" 
d="M59 -251l108 276l-160 460h89l99 -304l15 -61h1l15 60l100 305h87q-2 -5 -35.5 -97.5t-73 -200t-87 -235t-77.5 -203.5h-81zM273 700h100l-132 -145h-78z" />
    <glyph glyph-name="thorn" unicode="&#xfe;" horiz-adv-x="533" 
d="M87 715l85 35v-329q17 34 54.5 56.5t85.5 22.5q74 0 117 -45.5t45 -124.5q2 -78 0 -164q-3 -86 -50 -133.5t-117 -47.5q-44 0 -80.5 18t-54.5 47v-300h-85v965zM286 430q-46 0 -79 -30.5t-35 -68.5v-161q0 -61 33.5 -88t86.5 -27q42 0 68 27.5t29 79.5q4 84 0 169
q-5 99 -103 99z" />
    <glyph glyph-name="ydieresis" unicode="&#xff;" horiz-adv-x="420" 
d="M59 -251l108 276l-160 460h89l99 -304l15 -61h1l15 60l100 305h87q-2 -5 -35.5 -97.5t-73 -200t-87 -235t-77.5 -203.5h-81zM66 644q0 24 16 40t39 16q25 0 41 -16t16 -40t-16 -39.5t-41 -15.5q-23 0 -39 15.5t-16 39.5zM246 644q0 24 15.5 40t38.5 16q25 0 41.5 -16
t16.5 -40t-16.5 -39.5t-41.5 -15.5q-23 0 -38.5 15.5t-15.5 39.5z" />
    <glyph glyph-name="dotlessi" unicode="&#x131;" horiz-adv-x="244" 
d="M152 495v-369q0 -37 14.5 -51.5t50.5 -14.5v-60q-61 -17 -105.5 5t-44.5 91v364z" />
    <glyph glyph-name="OE" unicode="&#x152;" horiz-adv-x="804" 
d="M399 0q-43 -15 -102 -15q-98 0 -164 61t-70 161q-6 146 0 285q4 99 71 161t165 62q57 0 101 -15h359v-75h-275v-230h251v-75h-251v-245h275v-75h-360zM300 60q66 0 99 19v541q-35 20 -100 20q-64 0 -106.5 -40.5t-44.5 -107.5q-5 -127 0 -284q2 -68 44.5 -108t107.5 -40z
" />
    <glyph glyph-name="oe" unicode="&#x153;" horiz-adv-x="777" 
d="M637 244l-189 -32v-32q0 -60 29 -92.5t78 -32.5q44 0 68.5 25t30.5 65l70 -5q3 -63 -43 -109t-126 -46q-101 0 -153 65q-54 -65 -149 -65q-83 0 -136.5 50t-56.5 130q-3 87 0 157q4 80 56.5 129t136.5 49q99 0 152 -67q52 67 150 67q79 0 124.5 -45t45.5 -120
q0 -48 -15.5 -63.5t-72.5 -27.5zM360 320q-2 49 -30.5 79.5t-76.5 30.5t-77 -30t-31 -80q-3 -83 0 -152q2 -50 31.5 -81.5t76.5 -31.5q46 0 75.5 31.5t31.5 80.5q3 71 0 153zM448 298v-31q72 9 141 24q32 7 41.5 16t9.5 30q0 43 -22.5 68t-62.5 25q-54 0 -80.5 -35.5
t-26.5 -96.5z" />
    <glyph glyph-name="Scaron" unicode="&#x160;" horiz-adv-x="561" 
d="M421 166q0 21 -5 38.5t-18.5 32t-23 23.5t-33.5 21t-34 16.5t-39 16.5q-45 19 -71 32.5t-58 37.5t-47 57.5t-15 77.5q0 85 60.5 140.5t150.5 55.5q97 0 154.5 -53t49.5 -146l-80 -5q0 129 -124 129q-53 0 -87 -28t-34 -79q0 -28 9.5 -49.5t31 -38t41.5 -27.5t56 -26
q32 -13 42 -17.5t39 -19t40.5 -23.5t32 -26.5t29 -34t16 -39.5t7.5 -49q0 -89 -64 -143.5t-160 -54.5t-161 54t-71 152l80 5q8 -60 50.5 -98t104.5 -38q59 0 95 27.5t36 78.5zM317 750h-53l-108 130h74l61 -78l59 78h74z" />
    <glyph glyph-name="scaron" unicode="&#x161;" horiz-adv-x="443" 
d="M382 348l-75 -5q0 41 -21.5 64t-58.5 23q-33 0 -55 -18.5t-22 -48.5q0 -22 14 -38.5t31 -25t48 -20.5q27 -10 37.5 -14.5t33.5 -15.5t33.5 -21t24 -25t19 -34t5.5 -42q0 -61 -45.5 -101.5t-120.5 -40.5q-79 0 -128 44.5t-50 110.5l75 5q5 -39 32 -64.5t71 -25.5
q36 0 58.5 17t22.5 48q0 30 -25 48t-82 38q-66 22 -102.5 55t-36.5 93q0 65 47 105.5t118 40.5q75 0 117.5 -45t34.5 -107zM251 540h-53l-121 155h78l70 -93l67 93h78z" />
    <glyph glyph-name="Ydieresis" unicode="&#x178;" horiz-adv-x="511" 
d="M298 281v-281h-90v281l-228 419h98l162 -310l15 -37l15 37l159 310h97zM115 801q0 24 16 40t39 16q25 0 41 -16t16 -40t-16 -39.5t-41 -15.5q-23 0 -39 15.5t-16 39.5zM295 801q0 24 15.5 40t38.5 16q25 0 41.5 -16t16.5 -40t-16.5 -39.5t-41.5 -15.5q-23 0 -38.5 15.5
t-15.5 39.5z" />
    <glyph glyph-name="Zcaron" unicode="&#x17d;" horiz-adv-x="556" 
d="M40 625v75h447q5 -12 10 -42l-344 -583h353v-75h-456q-5 18 -10 42l344 583h-344zM298 750h-53l-108 130h74l61 -78l59 78h74z" />
    <glyph glyph-name="zcaron" unicode="&#x17e;" horiz-adv-x="428" 
d="M396 70v-70h-349l-5 50l235 365h-231v70h331l5 -50l-238 -365h252zM243 540h-53l-121 155h78l70 -93l67 93h78z" />
    <glyph glyph-name="florin" unicode="&#x192;" horiz-adv-x="510" 
d="M414 425h-116q-6 -47 -29.5 -244t-32.5 -258q-29 -183 -170 -183q-25 0 -51 8t-39 16l-14 8l26 59q28 -16 65 -16q83 0 99 108q5 37 27.5 225.5t34.5 276.5h-71l9 60h70q6 53 12 81q9 53 28 90.5t44.5 57t51.5 28t55 8.5q24 0 48 -8t35 -16l12 -7l-26 -59q-29 15 -66 15
q-80 0 -98 -109q-6 -33 -12 -81h118z" />
    <glyph glyph-name="hsuperior" unicode="&#x2b0;" horiz-adv-x="354" 
d="M117 850v-190q14 21 40.5 35.5t55.5 14.5q49 0 76.5 -29.5t27.5 -80.5v-210h-65v205q0 65 -56 65q-33 0 -54.5 -18.5t-24.5 -38.5v-213h-65v438z" />
    <glyph glyph-name="jsuperior" unicode="&#x2b2;" horiz-adv-x="179" 
d="M129 707v-389q0 -41 -34.5 -61.5t-82.5 -6.5v45q31 1 41 8t10 31v350zM57 798q0 17 11 28.5t28 11.5q18 0 29.5 -11.5t11.5 -28.5t-11.5 -28.5t-29.5 -11.5q-17 0 -28 11.5t-11 28.5z" />
    <glyph glyph-name="wsuperior" unicode="&#x2b7;" horiz-adv-x="458" 
d="M330 502l51 198h65l-95 -310h-64l-45 167l-13 55h-2q-6 -34 -12 -55l-46 -167h-63l-94 310h69l49 -198l8 -39h2q4 27 7 39l54 198h60l52 -198l8 -39h1q4 27 8 39z" />
    <glyph glyph-name="ysuperior" unicode="&#x2b8;" horiz-adv-x="293" 
d="M55 250l62 160l-110 290h68l63 -186q3 -12 10 -33q0 6 11 32l60 187h67q-2 -6 -32.5 -89t-71 -191t-64.5 -170h-63z" />
    <glyph glyph-name="circumflex" unicode="&#x2c6;" horiz-adv-x="475" 
d="M208 700h53l121 -150h-80l-68 84l-69 -84h-78z" />
    <glyph glyph-name="caron" unicode="&#x2c7;" horiz-adv-x="433" 
d="M244 540h-53l-121 155h78l70 -93l67 93h78z" />
    <glyph glyph-name="breve" unicode="&#x2d8;" horiz-adv-x="428" 
d="M214 611q69 0 76 89h65q4 -70 -38 -112t-103 -42t-103 42t-38 112h65q7 -89 76 -89z" />
    <glyph glyph-name="dotaccent" unicode="&#x2d9;" horiz-adv-x="258" 
d="M72 659q0 24 16 40t40 16q25 0 41.5 -16t16.5 -40q0 -25 -16 -41.5t-42 -16.5q-24 0 -40 16.5t-16 41.5z" />
    <glyph glyph-name="ring" unicode="&#x2da;" horiz-adv-x="361" 
d="M81 652q0 44 30 71t69 27q38 0 68.5 -27.5t30.5 -70.5t-29.5 -71.5t-69.5 -28.5t-69.5 28.5t-29.5 71.5zM136 653q0 -23 13 -37t31 -14q19 0 31.5 14t12.5 37q0 19 -12.5 33t-31.5 14q-18 0 -31 -13.5t-13 -33.5z" />
    <glyph glyph-name="ogonek" unicode="&#x2db;" horiz-adv-x="424" 
d="M327 50v-50q-63 -46 -100 -82q-35 -34 -35 -67q0 -41 65 -41v-60q-31 -8 -65.5 -8t-62 22.5t-27.5 61.5q0 38 18 64t60 60q28 23 63.5 47.5t58.5 38.5t25 14z" />
    <glyph glyph-name="tilde" unicode="&#x2dc;" horiz-adv-x="464" 
d="M302 589q-24 0 -69 22t-59 22q-30 0 -30 -44h-56q-4 45 18.5 77.5t64.5 32.5q26 0 74 -23.5t60 -23.5q28 0 28 48h53q5 -48 -16 -79.5t-68 -31.5z" />
    <glyph glyph-name="xsuperior" unicode="&#x2e3;" horiz-adv-x="324" 
d="M245 390l-79 113l-75 -113h-69l109 162l-103 148h72l72 -103l67 103h69l-102 -153l111 -157h-72z" />
    <glyph glyph-name="Delta" unicode="&#x394;" horiz-adv-x="664" 
d="M639 41l-13 -41h-586l-15 41l270 659h76zM331 593l-214 -523h424z" />
    <glyph glyph-name="Delta" unicode="&#x2206;" horiz-adv-x="664" 
d="M639 41l-13 -41h-586l-15 41l270 659h76zM331 593l-214 -523h424z" />
    <glyph glyph-name="Omega" unicode="&#x3a9;" horiz-adv-x="649" 
d="M482 70h130l-5 -70h-246v70q59 2 89.5 40t33.5 123q4 110 0 234q-2 85 -46 129t-112 44q-69 0 -114.5 -44.5t-46.5 -128.5q-3 -132 0 -234q6 -163 127 -163v-70h-250l-5 70h126q-33 9 -59 53.5t-29 108.5q-4 82 0 238q4 116 75 180.5t176 64.5q104 0 174.5 -64.5
t73.5 -180.5q4 -171 0 -238q-4 -62 -29 -106t-63 -56z" />
    <glyph glyph-name="Omega" unicode="&#x2126;" horiz-adv-x="649" 
d="M482 70h130l-5 -70h-246v70q59 2 89.5 40t33.5 123q4 110 0 234q-2 85 -46 129t-112 44q-69 0 -114.5 -44.5t-46.5 -128.5q-3 -132 0 -234q6 -163 127 -163v-70h-250l-5 70h126q-33 9 -59 53.5t-29 108.5q-4 82 0 238q4 116 75 180.5t176 64.5q104 0 174.5 -64.5
t73.5 -180.5q4 -171 0 -238q-4 -62 -29 -106t-63 -56z" />
    <glyph glyph-name="pi" unicode="&#x3c0;" horiz-adv-x="566" 
d="M454 0h-80v445h-182v-445h-80v445h-75v60h492v-60h-75v-445z" />
    <glyph glyph-name="endash" unicode="&#x2013;" horiz-adv-x="511" 
d="M37 225v75h437v-75h-437z" />
    <glyph glyph-name="emdash" unicode="&#x2014;" horiz-adv-x="644" 
d="M37 225v75h570v-75h-570z" />
    <glyph glyph-name="quoteleft" unicode="&#x2018;" horiz-adv-x="214" 
d="M199 714l24 -36q-30 -8 -52 -22t-33 -27.5t-17.5 -26t-7.5 -20.5l-1 -8q22 3 43.5 -12t21.5 -50q0 -27 -19 -44.5t-44 -17.5q-32 0 -51.5 21.5t-19.5 59.5q0 67 44.5 119t111.5 64z" />
    <glyph glyph-name="quoteright" unicode="&#x2019;" horiz-adv-x="214" 
d="M21 451l-24 36q30 8 52 22t33 27.5t17.5 26t7.5 20.5l1 8q-22 -3 -43.5 12t-21.5 50q0 27 19 44.5t44 17.5q32 0 51.5 -21.5t19.5 -59.5q0 -67 -44.5 -119t-111.5 -64z" />
    <glyph glyph-name="quotesinglbase" unicode="&#x201a;" horiz-adv-x="195" 
d="M22 -154l-24 36q30 8 52 22t33 27.5t17.5 26t7.5 20.5l1 8q-22 -3 -43.5 12t-21.5 50q0 27 19 44.5t44 17.5q32 0 51.5 -21.5t19.5 -59.5q0 -67 -44.5 -119t-111.5 -64z" />
    <glyph glyph-name="quotedblleft" unicode="&#x201c;" horiz-adv-x="378" 
d="M363 714l24 -36q-30 -8 -52 -22t-33 -27.5t-17.5 -26t-7.5 -20.5l-1 -8q22 3 43.5 -12t21.5 -50q0 -27 -19 -44.5t-44 -17.5q-32 0 -51.5 21.5t-19.5 59.5q0 67 44.5 119t111.5 64zM199 714l24 -36q-30 -8 -52 -22t-33 -27.5t-17.5 -26t-7.5 -20.5l-1 -8q22 3 43.5 -12
t21.5 -50q0 -27 -19 -44.5t-44 -17.5q-32 0 -51.5 21.5t-19.5 59.5q0 67 44.5 119t111.5 64z" />
    <glyph glyph-name="quotedblright" unicode="&#x201d;" horiz-adv-x="378" 
d="M185 451l-24 36q30 8 52 22t33 27.5t17.5 26t7.5 20.5l1 8q-22 -3 -43.5 12t-21.5 50q0 27 19 44.5t44 17.5q32 0 51.5 -21.5t19.5 -59.5q0 -67 -44.5 -119t-111.5 -64zM21 451l-24 36q30 8 52 22t33 27.5t17.5 26t7.5 20.5l1 8q-22 -3 -43.5 12t-21.5 50q0 27 19 44.5
t44 17.5q32 0 51.5 -21.5t19.5 -59.5q0 -67 -44.5 -119t-111.5 -64z" />
    <glyph glyph-name="quotedblbase" unicode="&#x201e;" horiz-adv-x="378" 
d="M178 -154l-24 36q30 8 52 22t33 27.5t17.5 26t7.5 20.5l1 8q-22 -3 -43.5 12t-21.5 50q0 27 19 44.5t44 17.5q32 0 51.5 -21.5t19.5 -59.5q0 -67 -44.5 -119t-111.5 -64zM21 -154l-24 36q30 8 52 22t33 27.5t17.5 26t7.5 20.5l1 8q-22 -3 -43.5 12t-21.5 50q0 27 19 44.5
t44 17.5q32 0 51.5 -21.5t19.5 -59.5q0 -67 -44.5 -119t-111.5 -64z" />
    <glyph glyph-name="dagger" unicode="&#x2020;" horiz-adv-x="530" 
d="M478 475l-1 -65l-176 6l-11 -666h-45l-9 667l-183 -7l-1 65l183 -6l-6 227l79 20l-8 -247z" />
    <glyph glyph-name="daggerdbl" unicode="&#x2021;" horiz-adv-x="525" 
d="M463 42l-2 -67l-168 7l9 -211l-77 -20l7 231l-170 -7l2 67l169 -7l1 396q-112 -7 -172 -7l2 67l168 -7l-7 211l77 20l-9 -231l170 7l-2 -67l-169 6l2 -394z" />
    <glyph glyph-name="bullet" unicode="&#x2022;" horiz-adv-x="327" 
d="M72 299q0 40 25.5 67t63.5 27q41 0 67.5 -26.5t26.5 -67.5q0 -38 -27 -63.5t-67 -25.5q-37 0 -63 26t-26 63z" />
    <glyph glyph-name="ellipsis" unicode="&#x2026;" horiz-adv-x="707" 
d="M44 49q0 28 18 47t46 19t47 -19t19 -47q0 -27 -19 -45.5t-47 -18.5t-46 18.5t-18 45.5zM292 49q0 28 18 47t46 19t47 -19t19 -47q0 -27 -19 -45.5t-47 -18.5t-46 18.5t-18 45.5zM531 49q0 28 18 47t46 19t47 -19t19 -47q0 -27 -19 -45.5t-47 -18.5t-46 18.5t-18 45.5z
" />
    <glyph glyph-name="perthousand" unicode="&#x2030;" horiz-adv-x="1243" 
d="M72 572q0 64 41.5 103.5t106.5 39.5t106.5 -39.5t41.5 -103.5q0 -63 -43 -103t-105 -40q-65 0 -106.5 39.5t-41.5 103.5zM148 572q0 -39 20 -60.5t52 -21.5t52.5 21.5t20.5 60.5t-20 61t-53 22q-32 0 -52 -22t-20 -61zM724 700l-495 -700h-81l496 700h80zM508 128
q0 64 41.5 103.5t106.5 39.5t106.5 -39.5t41.5 -103.5q0 -63 -43 -103t-105 -40q-65 0 -106.5 39.5t-41.5 103.5zM584 128q0 -39 20 -60.5t52 -21.5t52.5 21.5t20.5 60.5t-20 61t-53 22q-32 0 -52 -22t-20 -61zM875 128q0 64 41.5 103.5t106.5 39.5t106.5 -39.5t41.5 -103.5
q0 -63 -43 -103t-105 -40q-65 0 -106.5 39.5t-41.5 103.5zM951 128q0 -39 20 -60.5t52 -21.5t52.5 21.5t20.5 60.5t-20 61t-53 22q-32 0 -52 -22t-20 -61z" />
    <glyph glyph-name="guilsinglleft" unicode="&#x2039;" horiz-adv-x="292" 
d="M135 249l135 -129l-44 -50l-184 178v7l187 170l40 -51l-134 -119v-6z" />
    <glyph glyph-name="guilsinglright" unicode="&#x203a;" horiz-adv-x="289" 
d="M152 246l-130 129l44 49l181 -178v-7l-184 -170l-40 50l129 120v7z" />
    <glyph glyph-name="fraction" unicode="&#x2044;" horiz-adv-x="625" 
d="M593 700l-490 -700h-76l491 700h75z" />
    <glyph glyph-name="zerosuperior" unicode="&#x2070;" horiz-adv-x="407" 
d="M349 525q-1 -65 -42.5 -105t-104.5 -40t-103 39.5t-41 105.5q-1 70 0 127q1 65 41.5 104t104.5 39q63 0 103.5 -39t41.5 -104q1 -57 0 -127zM279 652q-2 42 -21.5 65t-53.5 23q-35 0 -55 -23.5t-21 -64.5q-2 -64 0 -127q1 -42 22 -66t54 -24q32 0 53 23.5t22 66.5
q2 63 0 127z" />
    <glyph glyph-name="foursuperior" unicode="&#x2074;" horiz-adv-x="359" 
d="M203 483h-181l-10 41l183 266l73 -5v-247h69v-55h-69v-93h-65v93zM82 538h121v180z" />
    <glyph glyph-name="fivesuperior" unicode="&#x2075;" horiz-adv-x="351" 
d="M319 517q0 -63 -40 -100t-101 -37q-58 0 -97 31t-39 89l60 5q0 -33 21 -51.5t55 -18.5q33 0 52 21.5t19 58.5q0 79 -73 79q-39 0 -64 -28l-53 5l24 214h209v-55h-159l-12 -116q31 30 76 30q54 0 88 -33.5t34 -93.5z" />
    <glyph glyph-name="sixsuperior" unicode="&#x2076;" horiz-adv-x="374" 
d="M52 670q7 58 45 91.5t94 33.5q51 0 86.5 -27.5t34.5 -81.5l-60 -5q0 27 -16 43t-45 16q-64 0 -74 -70q-3 -20 -3 -85q3 7 12 17.5t33.5 23t54.5 12.5q49 0 83.5 -32t34.5 -89q0 -61 -38.5 -99t-98.5 -38q-56 0 -96 36t-47 97q-9 82 0 157zM116 514q0 -32 22 -55.5
t57 -23.5q32 0 52 21t20 56q0 36 -18.5 56t-49.5 20q-33 0 -58 -22t-25 -52z" />
    <glyph glyph-name="sevensuperior" unicode="&#x2077;" horiz-adv-x="329" 
d="M288 785l4 -38l-156 -357h-73l155 340h-201v55h271z" />
    <glyph glyph-name="eightsuperior" unicode="&#x2078;" horiz-adv-x="384" 
d="M192 620q30 0 46 16t16 42t-16.5 44t-45.5 18t-45.5 -18t-16.5 -44t16 -42t46 -16zM192 435q34 0 52 18.5t18 47.5q0 28 -18 46t-52 18t-52 -18t-18 -46q0 -29 18 -47.5t52 -18.5zM192 380q-65 0 -102.5 35.5t-37.5 85.5q0 34 21 59t58 35q-33 12 -52 37t-19 56
q0 42 35.5 74.5t96.5 32.5t96.5 -32.5t35.5 -74.5q0 -31 -19 -56t-52 -37q37 -10 58 -35t21 -59q0 -50 -37.5 -85.5t-102.5 -35.5z" />
    <glyph glyph-name="ninesuperior" unicode="&#x2079;" horiz-adv-x="370" 
d="M324 505q-7 -59 -43 -92t-95 -33t-97 32t-38 82l60 5q0 -29 21.5 -46.5t53.5 -17.5q31 0 50 19t23 51q3 27 3 79q-27 -54 -95 -54q-49 0 -84.5 34.5t-35.5 91.5q0 59 39 99t98 40q56 0 95 -36t45 -97q8 -91 0 -157zM260 656q0 33 -21 58.5t-55 25.5q-32 0 -52 -21.5
t-20 -57.5t19.5 -58.5t50.5 -22.5q32 0 55 23t23 53z" />
    <glyph glyph-name="parenleftsuperior" unicode="&#x207d;" horiz-adv-x="254" 
d="M57 575q0 95 34 179t73 134l43 -22q-85 -144 -85 -291q0 -149 85 -293l-43 -22q-40 44 -73.5 131t-33.5 184z" />
    <glyph glyph-name="parenrightsuperior" unicode="&#x207e;" horiz-adv-x="254" 
d="M197 575q0 -95 -34 -181t-73 -134l-43 22q85 144 85 293q0 147 -85 291l43 22q39 -50 73 -134t34 -179z" />
    <glyph glyph-name="nsuperior" unicode="&#x207f;" horiz-adv-x="363" 
d="M126 599v-209h-65v235q0 30 -39 30v45q28 11 61 1t41 -39q37 48 95 48q50 0 78.5 -29.5t28.5 -80.5v-210h-65v203q0 67 -60 67q-32 0 -53.5 -20t-21.5 -41z" />
    <glyph glyph-name="zeroinferior" unicode="&#x2080;" horiz-adv-x="403" 
d="M347 35q-1 -65 -42.5 -105t-104.5 -40t-103 39.5t-41 105.5q-1 70 0 127q1 65 41.5 104t104.5 39q63 0 103.5 -39t41.5 -104q1 -57 0 -127zM277 162q-2 42 -21.5 65t-53.5 23q-35 0 -55 -23.5t-21 -64.5q-2 -64 0 -127q1 -42 22 -66t54 -24q32 0 53 23.5t22 66.5
q2 63 0 127z" />
    <glyph glyph-name="oneinferior" unicode="&#x2081;" horiz-adv-x="294" 
d="M193 295v-339l74 -5v-51h-220v51l76 5v279l-70 -6l-6 46l115 25z" />
    <glyph glyph-name="twoinferior" unicode="&#x2082;" horiz-adv-x="378" 
d="M56 -100l-5 49q10 9 34 27.5t44.5 36t41.5 36.5q37 33 56 63.5t19 67.5q0 34 -16.5 52t-44.5 18q-34 0 -54 -21t-19 -59l-60 -5q-6 58 31 99t102 41q60 0 95.5 -34t35.5 -90q0 -84 -95 -160l-88 -66h203v-55h-280z" />
    <glyph glyph-name="threeinferior" unicode="&#x2083;" horiz-adv-x="349" 
d="M247 19q0 35 -21.5 53t-52.5 18q-21 0 -33 -5l-12 34l102 121h-183v55h257l5 -47l-109 -120q45 3 81 -24.5t36 -82.5q0 -61 -39.5 -96t-100.5 -35q-64 0 -102 34.5t-37 85.5l60 5q1 -33 22.5 -51.5t56.5 -18.5q32 0 51 20t19 54z" />
    <glyph glyph-name="fourinferior" unicode="&#x2084;" horiz-adv-x="359" 
d="M203 -7h-181l-10 41l183 266l73 -5v-247h69v-55h-69v-93h-65v93zM82 48h121v180z" />
    <glyph glyph-name="fiveinferior" unicode="&#x2085;" horiz-adv-x="349" 
d="M319 27q0 -63 -40 -100t-101 -37q-58 0 -97 31t-39 89l60 5q0 -33 21 -51.5t55 -18.5q33 0 52 21.5t19 58.5q0 79 -73 79q-39 0 -64 -28l-53 5l24 214h209v-55h-159l-12 -116q31 30 76 30q54 0 88 -33.5t34 -93.5z" />
    <glyph glyph-name="sixinferior" unicode="&#x2086;" horiz-adv-x="374" 
d="M52 180q7 58 45 91.5t94 33.5q51 0 86.5 -27.5t34.5 -81.5l-60 -5q0 27 -16 43t-45 16q-64 0 -74 -70q-3 -20 -3 -85q3 7 12 17.5t33.5 23t54.5 12.5q49 0 83.5 -32t34.5 -89q0 -61 -38.5 -99t-98.5 -38q-56 0 -96 36t-47 97q-9 82 0 157zM116 24q0 -32 22 -55.5
t57 -23.5q32 0 52 21t20 56q0 36 -18.5 56t-49.5 20q-33 0 -58 -22t-25 -52z" />
    <glyph glyph-name="seveninferior" unicode="&#x2087;" horiz-adv-x="329" 
d="M288 295l4 -38l-156 -357h-73l155 340h-201v55h271z" />
    <glyph glyph-name="eightinferior" unicode="&#x2088;" horiz-adv-x="384" 
d="M192 130q30 0 46 16t16 42t-16.5 44t-45.5 18t-45.5 -18t-16.5 -44t16 -42t46 -16zM192 -55q34 0 52 18.5t18 47.5q0 28 -18 46t-52 18t-52 -18t-18 -46q0 -29 18 -47.5t52 -18.5zM192 -110q-65 0 -102.5 35.5t-37.5 85.5q0 34 21 59t58 35q-33 12 -52 37t-19 56
q0 42 35.5 74.5t96.5 32.5t96.5 -32.5t35.5 -74.5q0 -31 -19 -56t-52 -37q37 -10 58 -35t21 -59q0 -50 -37.5 -85.5t-102.5 -35.5z" />
    <glyph glyph-name="nineinferior" unicode="&#x2089;" horiz-adv-x="370" 
d="M324 15q-7 -59 -43 -92t-95 -33t-97 32t-38 82l60 5q0 -29 21.5 -46.5t53.5 -17.5q31 0 50 19t23 51q3 27 3 79q-27 -54 -95 -54q-49 0 -84.5 34.5t-35.5 91.5q0 59 39 99t98 40q56 0 95 -36t45 -97q8 -91 0 -157zM260 166q0 33 -21 58.5t-55 25.5q-32 0 -52 -21.5
t-20 -57.5t19.5 -58.5t50.5 -22.5q32 0 55 23t23 53z" />
    <glyph glyph-name="parenleftinferior" unicode="&#x208d;" horiz-adv-x="255" 
d="M57 95q0 95 34 179t73 134l43 -22q-85 -144 -85 -291q0 -149 85 -293l-43 -22q-40 44 -73.5 131t-33.5 184z" />
    <glyph glyph-name="parenrightinferior" unicode="&#x208e;" horiz-adv-x="255" 
d="M198 95q0 -95 -34 -181t-73 -134l-43 22q85 144 85 293q0 147 -85 291l43 22q39 -50 73 -134t34 -179z" />
    <glyph glyph-name="Euro" unicode="&#x20ac;" horiz-adv-x="593" 
d="M423 390h-215q-2 -44 0 -90h205l-10 -65h-194q0 -4 0.5 -12t0.5 -12q2 -70 39.5 -110.5t96.5 -40.5q57 0 89.5 34t34.5 96l80 -5q4 -92 -52 -146t-152 -54q-97 0 -159.5 59t-66.5 166q-1 8 -1 25h-92l15 65h76q-2 45 0 90h-91l15 65h77q0 20 1 29q4 113 67.5 172
t158.5 59q93 0 149 -54t52 -141l-80 -5q-1 55 -32 90t-89 35q-59 0 -96 -41t-40 -115q-1 -10 -1 -29h224z" />
    <glyph glyph-name="afii61352" unicode="&#x2116;" horiz-adv-x="1072" 
d="M701 175v65h271v-65h-271zM701 0v65h271v-65h-271zM836 340q-65 0 -102 32t-40 90q-3 52 0 92q4 55 43 88t99 33t99 -33t43 -88q3 -40 0 -92q-3 -58 -40 -90t-102 -32zM836 395q68 0 71 68q3 47 0 90q-2 32 -21 49.5t-50 17.5t-50 -17.5t-21 -49.5q-3 -43 0 -90
q3 -68 71 -68zM92 700h91l269 -454l50 -111v565h85v-700h-90l-273 463l-47 106v-569h-85v700z" />
    <glyph glyph-name="trademark" unicode="&#x2122;" horiz-adv-x="727" 
d="M110 340v305h-113v55h296v-55h-113v-305h-70zM645 700h60v-360h-70v257l-113 -173h-13l-104 171v-255h-65v360h61l117 -195z" />
    <glyph glyph-name="onethird" unicode="&#x2153;" horiz-adv-x="920" 
d="M218 700v-339l74 -5v-51h-220v51l76 5v279l-70 -6l-6 46l115 25zM778 119q0 35 -21.5 53t-52.5 18q-20 0 -33 -5l-12 34l102 121h-183v55h257l5 -47l-109 -120q45 3 81 -24.5t36 -82.5q0 -61 -39.5 -96t-100.5 -35q-64 0 -102 34.5t-37 85.5l60 5q1 -33 22.5 -51.5
t56.5 -18.5q32 0 51 20t19 54zM722 700l-490 -700h-76l491 700h75z" />
    <glyph glyph-name="twothirds" unicode="&#x2154;" horiz-adv-x="982" 
d="M788 700l-490 -700h-76l491 700h75zM77 305l-5 49q10 9 34 27.5t44.5 36t41.5 36.5q37 33 56 63.5t19 67.5q0 34 -16.5 52t-44.5 18q-34 0 -54 -21t-19 -59l-60 -5q-6 58 31 99t102 41q60 0 95.5 -34t35.5 -90q0 -84 -95 -160l-88 -66h203v-55h-280zM840 119
q0 35 -21.5 53t-52.5 18q-20 0 -33 -5l-12 34l102 121h-183v55h257l5 -47l-109 -120q45 3 81 -24.5t36 -82.5q0 -61 -39.5 -96t-100.5 -35q-64 0 -102 34.5t-37 85.5l60 5q1 -33 22.5 -51.5t56.5 -18.5q32 0 51 20t19 54z" />
    <glyph glyph-name="oneeighth" unicode="&#x215b;" horiz-adv-x="901" 
d="M218 700v-339l74 -5v-51h-220v51l76 5v279l-70 -6l-6 46l115 25zM689 230q30 0 46 16t16 42t-16.5 44t-45.5 18t-45.5 -18t-16.5 -44t16 -42t46 -16zM689 45q34 0 52 18.5t18 47.5q0 28 -18 46t-52 18t-52 -18t-18 -46q0 -29 18 -47.5t52 -18.5zM689 -10
q-65 0 -102.5 35.5t-37.5 85.5q0 34 21 59t58 35q-33 12 -52 37t-19 56q0 42 35.5 74.5t96.5 32.5t96.5 -32.5t35.5 -74.5q0 -31 -19 -56t-52 -37q37 -10 58 -35t21 -59q0 -50 -37.5 -85.5t-102.5 -35.5zM716 700l-490 -700h-76l491 700h75z" />
    <glyph glyph-name="threeeighths" unicode="&#x215c;" horiz-adv-x="932" 
d="M282 424q0 35 -21.5 53t-52.5 18q-20 0 -33 -5l-12 34l102 121h-183v55h257l5 -47l-109 -120q45 3 81 -24.5t36 -82.5q0 -61 -39.5 -96t-100.5 -35q-64 0 -102 34.5t-37 85.5l60 5q1 -33 22.5 -51.5t56.5 -18.5q32 0 51 20t19 54zM720 230q30 0 46 16t16 42t-16.5 44
t-45.5 18t-45.5 -18t-16.5 -44t16 -42t46 -16zM720 45q34 0 52 18.5t18 47.5q0 28 -18 46t-52 18t-52 -18t-18 -46q0 -29 18 -47.5t52 -18.5zM720 -10q-65 0 -102.5 35.5t-37.5 85.5q0 34 21 59t58 35q-33 12 -52 37t-19 56q0 42 35.5 74.5t96.5 32.5t96.5 -32.5t35.5 -74.5
q0 -31 -19 -56t-52 -37q37 -10 58 -35t21 -59q0 -50 -37.5 -85.5t-102.5 -35.5zM746 700l-490 -700h-76l491 700h75z" />
    <glyph glyph-name="fiveeighths" unicode="&#x215d;" horiz-adv-x="924" 
d="M349 432q0 -63 -40 -100t-101 -37q-58 0 -97 31t-39 89l60 5q0 -33 21 -51.5t55 -18.5q33 0 52 21.5t19 58.5q0 79 -73 79q-39 0 -64 -28l-53 5l24 214h209v-55h-159l-12 -116q31 30 76 30q54 0 88 -33.5t34 -93.5zM712 230q30 0 46 16t16 42t-16.5 44t-45.5 18
t-45.5 -18t-16.5 -44t16 -42t46 -16zM712 45q34 0 52 18.5t18 47.5q0 28 -18 46t-52 18t-52 -18t-18 -46q0 -29 18 -47.5t52 -18.5zM712 -10q-65 0 -102.5 35.5t-37.5 85.5q0 34 21 59t58 35q-33 12 -52 37t-19 56q0 42 35.5 74.5t96.5 32.5t96.5 -32.5t35.5 -74.5
q0 -31 -19 -56t-52 -37q37 -10 58 -35t21 -59q0 -50 -37.5 -85.5t-102.5 -35.5zM739 700l-490 -700h-76l491 700h75z" />
    <glyph glyph-name="seveneighths" unicode="&#x215e;" horiz-adv-x="869" 
d="M343 700l4 -38l-156 -357h-73l155 340h-201v55h271zM657 230q30 0 46 16t16 42t-16.5 44t-45.5 18t-45.5 -18t-16.5 -44t16 -42t46 -16zM657 45q34 0 52 18.5t18 47.5q0 28 -18 46t-52 18t-52 -18t-18 -46q0 -29 18 -47.5t52 -18.5zM657 -10q-65 0 -102.5 35.5
t-37.5 85.5q0 34 21 59t58 35q-33 12 -52 37t-19 56q0 42 35.5 74.5t96.5 32.5t96.5 -32.5t35.5 -74.5q0 -31 -19 -56t-52 -37q37 -10 58 -35t21 -59q0 -50 -37.5 -85.5t-102.5 -35.5zM678 700l-490 -700h-76l491 700h75z" />
    <glyph glyph-name="arrowupleft" unicode="&#x2196;" horiz-adv-x="577" 
d="M100 460v-298h-68v395l8 8h367l-1 -62h-274l36 -27l372 -402l-51 -49l-361 393z" />
    <glyph glyph-name="arrowupright" unicode="&#x2197;" horiz-adv-x="577" 
d="M477 162v298l-28 -42l-361 -393l-51 49l372 402l36 27h-274l-1 62h367l8 -8v-395h-68z" />
    <glyph glyph-name="arrowdownright" unicode="&#x2198;" horiz-adv-x="577" 
d="M477 160v298h68v-395l-8 -8h-367l1 62h274l-36 27l-372 402l51 49l361 -393z" />
    <glyph glyph-name="arrowdownleft" unicode="&#x2199;" horiz-adv-x="577" 
d="M100 458v-298l28 42l361 393l51 -49l-372 -402l-36 -27h274l1 -62h-367l-8 8v395h68z" />
    <glyph glyph-name="partialdiff" unicode="&#x2202;" horiz-adv-x="534" 
d="M97 631l-14 65q70 19 133 19q76 0 132 -34.5t86 -93.5t44 -126t14 -144q0 -169 -64 -250.5t-166 -81.5q-96 0 -155.5 61.5t-59.5 166.5q0 96 61.5 156.5t146.5 60.5q103 0 151 -74q2 123 -48.5 205t-149.5 82q-62 0 -111 -12zM404 256q-13 50 -51.5 77.5t-87.5 27.5
q-57 0 -92.5 -39t-35.5 -113q0 -75 36 -115t89 -40q63 0 102.5 52.5t39.5 149.5z" />
    <glyph glyph-name="product" unicode="&#x220f;" horiz-adv-x="640" 
d="M548 700v-700h-90v625h-276v-625h-90v700h456z" />
    <glyph glyph-name="summation" unicode="&#x2211;" horiz-adv-x="512" 
d="M35 0l-10 61l235 288l-225 283l10 68h416v-75h-315l214 -271l-230 -279h352v-75h-447z" />
    <glyph glyph-name="minus" unicode="&#x2212;" horiz-adv-x="485" 
d="M37 225v75h411v-75h-411z" />
    <glyph glyph-name="radical" unicode="&#x221a;" horiz-adv-x="563" 
d="M27 425v60h143l125 -389l266 654h75l-313 -750h-80l-149 425h-67z" />
    <glyph glyph-name="infinity" unicode="&#x221e;" horiz-adv-x="763" 
d="M460 283l-29 40q1 3 4 8.5t13.5 20t24 25t38 19.5t52.5 9q72 0 112.5 -43.5t40.5 -106.5q0 -67 -43.5 -113.5t-115.5 -46.5q-46 0 -88 24.5t-74 60t-61 71t-60.5 60t-61.5 24.5q-38 0 -61.5 -22t-23.5 -63q0 -38 23.5 -61.5t62.5 -23.5q19 0 35.5 5.5t26 13.5t16 16.5
t9.5 13.5l2 6l30 -33q-1 -4 -4 -10t-13.5 -22t-24 -28t-36.5 -22t-50 -10q-70 0 -113.5 44.5t-43.5 109.5q0 66 49 111t124 45q44 0 86 -24.5t74.5 -60t61.5 -71t60 -60t58 -24.5q35 0 55.5 24t20.5 61q0 38 -22.5 61.5t-60.5 23.5q-28 0 -51.5 -13t-32.5 -26z" />
    <glyph glyph-name="integral" unicode="&#x222b;" horiz-adv-x="345" 
d="M215 557v-619q0 -93 -42.5 -140.5t-110.5 -47.5q-66 0 -105 35l21 59q34 -24 73 -24q41 0 60 27.5t19 95.5v619q0 93 42.5 140.5t110.5 47.5q66 0 105 -35l-21 -59q-34 24 -73 24q-41 0 -60 -27.5t-19 -95.5z" />
    <glyph glyph-name="approxequal" unicode="&#x2248;" horiz-adv-x="535" 
d="M359 125q-29 0 -92 22t-82 22q-36 0 -36 -43h-61q-4 47 22.5 80t71.5 33q32 0 89.5 -22t84.5 -22q33 0 33 48h58q5 -52 -17.5 -85t-70.5 -33zM359 305q-29 0 -92 22t-82 22q-36 0 -36 -43h-61q-4 47 22.5 80t71.5 33q32 0 89.5 -22t84.5 -22q33 0 33 48h58
q5 -52 -17.5 -85t-70.5 -33z" />
    <glyph glyph-name="notequal" unicode="&#x2260;" horiz-adv-x="539" 
d="M47 408h252l53 112h73l-53 -112h120v-75h-154l-62 -135h216v-75h-251l-64 -138h-74l63 138h-119v75h155l63 135h-218v75z" />
    <glyph glyph-name="lessequal" unicode="&#x2264;" horiz-adv-x="503" 
d="M47 0v65h388v-65h-388zM67 346v24l349 248l34 -54l-283 -195v-10l284 -201l-36 -54z" />
    <glyph glyph-name="greaterequal" unicode="&#x2265;" horiz-adv-x="493" 
d="M446 65v-65h-388v65h388zM436 370v-24l-348 -242l-36 54l284 194v9l-283 203l39 54z" />
    <glyph glyph-name="uni2460" unicode="&#x2460;" horiz-adv-x="769" 
d="M47 330q0 140 99 242.5t239 102.5t238.5 -102.5t98.5 -242.5t-98.5 -242.5t-238.5 -102.5t-239 102.5t-99 242.5zM428 201v339l-31 5l-115 -25l6 -46l70 6v-279l-76 -5v-51h220v51z" />
    <glyph glyph-name="uni2461" unicode="&#x2461;" horiz-adv-x="769" 
d="M47 330q0 140 99 242.5t239 102.5t238.5 -103t98.5 -242t-98.5 -242t-238.5 -103t-239 102.5t-99 242.5zM246 194l5 -49h280v55h-203q14 7 88 66q95 76 95 160q0 56 -35.5 90t-95.5 34q-65 0 -102 -41t-31 -99l60 5q-1 38 19 59t54 21q28 0 44.5 -18t16.5 -52
q0 -37 -19 -67.5t-56 -63.5q-21 -19 -41.5 -36.5t-44.5 -36t-34 -27.5z" />
    <glyph glyph-name="uni2462" unicode="&#x2462;" horiz-adv-x="769" 
d="M47 330q0 139 99 242t239 103q139 0 238 -103t99 -242t-99 -242t-238 -103q-140 0 -239 103t-99 242zM458 264q0 -34 -19 -54t-51 -20q-35 0 -56.5 18.5t-22.5 51.5l-60 -5q-1 -51 37 -85.5t102 -34.5q61 0 100.5 35t39.5 96q0 55 -36 82.5t-81 24.5l109 120l-5 47h-257
v-55h183l-102 -121l12 -34q13 5 33 5q31 0 52.5 -18t21.5 -53z" />
    <glyph glyph-name="uni2463" unicode="&#x2463;" horiz-adv-x="769" 
d="M47 330q0 140 99 242.5t239 102.5t238.5 -103t98.5 -242t-98.5 -242t-238.5 -103t-239 102.5t-99 242.5zM215 238h181v-93h65v93h69v55h-69v247l-73 5l-183 -266zM396 293h-121l121 180v-180z" />
    <glyph glyph-name="uni2464" unicode="&#x2464;" horiz-adv-x="769" 
d="M47 330q0 140 99 242.5t239 102.5t238.5 -103t98.5 -242t-98.5 -242t-238.5 -103t-239 102.5t-99 242.5zM521 272q0 57 -34.5 92t-87.5 35q-20 0 -39 -7.5t-28 -15.5l-9 -7l12 116h159v55h-209l-24 -214l53 -5q21 28 61 28q35 0 55.5 -20t20.5 -59q0 -37 -19 -58.5
t-52 -21.5q-34 0 -55 18.5t-21 51.5l-60 -5q0 -58 39 -89t97 -31q61 0 101 37t40 100z" />
    <glyph glyph-name="uni2465" unicode="&#x2465;" horiz-adv-x="769" 
d="M47 330q0 140 99 242.5t239 102.5t238.5 -103t98.5 -242t-98.5 -242t-238.5 -103t-239 102.5t-99 242.5zM248 425q-9 -75 0 -157q7 -61 47 -97t96 -36q60 0 98.5 38t38.5 99q0 57 -34.5 89t-83.5 32q-30 0 -55 -13.5t-32.5 -22.5t-12.5 -17q0 65 3 85q10 70 74 70
q29 0 45 -16t16 -43l60 5q1 54 -34.5 81.5t-86.5 27.5q-56 0 -94 -33.5t-45 -91.5zM312 269q0 30 25 52t58 22q31 0 49.5 -20t18.5 -56q0 -35 -20 -56t-52 -21q-35 0 -57 23.5t-22 55.5z" />
    <glyph glyph-name="uni2466" unicode="&#x2466;" horiz-adv-x="769" 
d="M47 330q0 140 99 242.5t239 102.5t238.5 -103t98.5 -242t-98.5 -242t-238.5 -103t-239 102.5t-99 242.5zM530 502l-4 38h-271v-55h201l-155 -340h73z" />
    <glyph glyph-name="uni2467" unicode="&#x2467;" horiz-adv-x="769" 
d="M47 330q0 139 99 242t239 103q139 0 238 -103t99 -242t-99 -242t-238 -103q-140 0 -239 103t-99 242zM386 375q-30 0 -46 16t-16 42t16.5 44t45.5 18t45.5 -18t16.5 -44t-16 -42t-46 -16zM386 190q-34 0 -52 18.5t-18 47.5q0 28 18 46t52 18t52 -18t18 -46
q0 -29 -18 -47.5t-52 -18.5zM386 135q65 0 102.5 35.5t37.5 85.5q0 34 -21 59t-58 35q33 12 52 37t19 56q0 42 -35.5 74.5t-96.5 32.5t-96.5 -32.5t-35.5 -74.5q0 -31 19 -56t52 -37q-37 -10 -58 -35t-21 -59q0 -50 37.5 -85.5t102.5 -35.5z" />
    <glyph glyph-name="uni2468" unicode="&#x2468;" horiz-adv-x="769" 
d="M47 330q0 140 99 242.5t239 102.5q139 0 238 -103t99 -242t-99 -242t-238 -103q-140 0 -239 102.5t-99 242.5zM525 260q8 66 0 157q-6 61 -45 97t-95 36q-59 0 -98 -40t-39 -99q0 -57 35.5 -91.5t84.5 -34.5q31 0 54.5 13t30.5 22.5t10 17.5q0 -51 -3 -78q-4 -32 -23 -51
t-50 -19q-32 0 -53.5 17.5t-21.5 46.5l-60 -5q0 -50 38 -82t97 -32t95 33t43 92zM461 411q0 -31 -22.5 -53.5t-55.5 -22.5q-31 0 -50.5 22.5t-19.5 58.5t20 57.5t52 21.5q34 0 55 -25.5t21 -58.5z" />
    <glyph glyph-name="uni24EA" unicode="&#x24ea;" horiz-adv-x="769" 
d="M47 330q0 140 99 242.5t239 102.5t238.5 -102.5t98.5 -242.5t-98.5 -242.5t-238.5 -102.5t-239 102.5t-99 242.5zM530 280q1 70 0 127q-1 65 -41.5 104t-103.5 39q-64 0 -104.5 -39t-41.5 -104q-1 -57 0 -127q1 -66 41 -105.5t103 -39.5t104.5 40t42.5 105zM460 407
q2 -63 0 -127q-1 -43 -22 -66.5t-53 -23.5q-33 0 -54 24t-22 66q-2 64 0 127q1 41 21 64.5t55 23.5q34 0 53.5 -23t21.5 -65z" />
    <glyph glyph-name="lozenge" unicode="&#x25ca;" horiz-adv-x="571" 
d="M316 0h-60l-209 325l209 335h60l208 -335zM137 325l149 -251l148 251l-148 253z" />
    <glyph glyph-name="uni261C" unicode="&#x261c;" horiz-adv-x="1337" 
d="M75 519q109 8 216.5 12t160.5 5h53q6 3 27.5 15t29 16t26 13.5t29 13t27 8.5t31 7t30.5 2q50 0 108 -22t101 -48t86 -48t67 -22l200 6q11 0 17.5 -107.5t4.5 -215.5t-12 -108l-239 6q-28 -38 -84.5 -51t-99.5 -7l-43 5q-16 -2 -49 -5.5t-51.5 -5t-48.5 -3.5t-47.5 -0.5
t-41 4.5t-37 11.5t-26 20.5t-17.5 30.5t-4 42.5q-52 11 -73 50.5t-9 82.5q-33 22 -44 56t-1 61.5t31 35.5q-273 9 -318 15q-26 3 -40 22t-13.5 41t14.5 40.5t39 20.5zM1244 242q2 15 0 107t-11 92q-13 0 -163 -5q-11 0 -23.5 2.5t-20.5 5.5l-7 2q24 -38 22 -86t-25 -75
l55 -113q14 -29 41.5 -45t55.5 -14.5t50.5 34.5t25.5 95zM700 455q31 0 49.5 -13t28 -33.5t19.5 -42t31 -41.5t55 -30l-4 -27q-27 -16 -37.5 -55t-4 -78.5t29 -70t54.5 -30.5q41 0 72 31.5t31 81.5q0 59 -26.5 85.5t-59.5 31.5q-1 1 -1 7t1 13l1 7q41 3 54.5 41.5t-0.5 82.5
t-45 65q-144 97 -237 97q-47 0 -78 -12t-114 -60q-27 -12 -62 -30t-56 -30l-21 -12q-4 -1 4 -12.5t26 -23t37 -11.5q49 0 123.5 34.5t129.5 34.5zM585 21q19 2 81 16t91 22q17 5 19 23.5t-9.5 33.5t-28.5 11l-196 -30q-17 -2 -16 -28q2 -34 32 -45q12 -5 27 -3zM492 135
q67 0 241 38q17 4 22 23t-3.5 36.5t-25.5 17.5q-21 0 -115.5 -11.5t-139.5 -18.5q-24 -4 -28.5 -25t10 -40.5t39.5 -19.5zM439 258q16 -1 137 14t138 19q20 5 24.5 25t-8 38t-35.5 18q-41 0 -146.5 -8.5t-123.5 -13.5q-22 -6 -26 -28.5t8 -43t32 -20.5zM87 427
q46 -4 75.5 -6t59.5 1t42.5 3t40 11t35 15t45.5 24.5t55 29.5q-246 -10 -352 -16q-17 -1 -25 -16t-1 -30t25 -16z" />
    <glyph glyph-name="uni261E" unicode="&#x261e;" horiz-adv-x="1337" 
d="M1262 519q25 -2 39 -20.5t14.5 -40.5t-13.5 -41t-40 -22q-20 -3 -99.5 -6.5t-148.5 -6.5l-70 -2q21 -8 31 -35.5t-1 -61.5t-44 -56q12 -43 -9 -82.5t-73 -50.5q1 -24 -4 -42.5t-17.5 -30.5t-26 -20.5t-37 -11.5t-41 -4.5t-47.5 0.5t-48.5 3.5t-51.5 5t-49 5.5
q-7 -1 -18.5 -3t-43 -2.5t-59 3t-58.5 17.5t-48 38l-239 -6q-10 0 -12 108t4.5 215.5t17.5 107.5q170 -6 200 -6q24 0 67 22t86 48t101 48t108 22q16 0 30.5 -2t31 -7t27 -8.5t29 -13t26 -13.5t29 -16t27.5 -15q185 0 430 -17zM93 242q3 -62 25.5 -95t50.5 -34.5t55.5 14.5
t41.5 45l55 113q-23 27 -25 75t22 86q-27 -10 -51 -10q-150 5 -163 5q-9 0 -11 -92t0 -107zM637 455q55 0 129.5 -34.5t123.5 -34.5q19 0 37 11.5t26 23t4 12.5q-78 44 -139 72q-83 48 -114 60t-78 12q-93 0 -237 -97q-31 -21 -45 -65t-0.5 -82.5t54.5 -41.5q1 -7 1.5 -13.5
t-0.5 -13.5q-33 -5 -59.5 -31.5t-26.5 -85.5q0 -50 31 -81.5t72 -31.5q32 0 54.5 30.5t29 70t-4 78.5t-37.5 55l-4 27q34 10 55 30t31 41.5t19.5 42t28 33.5t49.5 13zM752 21q42 -5 55 32q11 28 -4 40q-4 3 -8 4q-157 22 -196 30q-17 4 -28.5 -11t-9.5 -33.5t19 -23.5
q29 -8 91 -22t81 -16zM845 135q25 0 39.5 19.5t10 40.5t-28.5 25q-45 7 -139.5 18.5t-115.5 11.5q-17 0 -25.5 -17.5t-3.5 -36.5t22 -23q174 -38 241 -38zM898 258q20 0 32 20.5t8 43t-26 28.5q-18 5 -123.5 13.5t-146.5 8.5q-23 0 -35.5 -18t-8 -38t24.5 -25q17 -4 138 -19
t137 -14zM1250 427q18 1 25 16t-1 30t-25 16l-357 16q18 -9 50 -26.5t42 -23t32 -15t35 -12t33.5 -5t45.5 -2.5q48 0 120 6z" />
    <glyph glyph-name="st" unicode="&#xfb06;" horiz-adv-x="780" 
d="M624 138q0 -50 22 -66.5t61 -16.5l62 5l4 -60q-37 -15 -95 -15q-60 0 -99.5 36t-39.5 113v291h-70v60h70v63q0 132 -107 132q-51 0 -80.5 -27t-32 -64t8.5 -77q-24 16 -66 19q-22 81 26.5 150t143.5 69q86 0 138.5 -50.5t53.5 -155.5v-59h134v-60h-134v-287zM389 348
l-75 -5q0 41 -21.5 64t-58.5 23q-33 0 -55 -18.5t-22 -48.5q0 -22 14 -38.5t31 -25t48 -20.5q27 -10 37.5 -14.5t33.5 -15.5t33.5 -21t24 -25t19 -34t5.5 -42q0 -61 -45.5 -101.5t-120.5 -40.5q-79 0 -128 44.5t-50 110.5l75 5q5 -39 32 -64.5t71 -25.5q36 0 58.5 17
t22.5 48q0 30 -25 48t-82 38q-66 22 -102.5 55t-36.5 93q0 65 47 105.5t118 40.5q75 0 117.5 -45t34.5 -107z" />
    <glyph glyph-name="zeroslash" horiz-adv-x="544" 
d="M275 -15q-93 0 -152 54.5t-63 149.5q-4 85 0 166q5 93 64.5 146.5t150.5 53.5q90 0 149.5 -53.5t64.5 -146.5q4 -81 0 -166q-4 -95 -62.5 -149.5t-151.5 -54.5zM177 176l167 232q11 16 28 28q-34 44 -97 44q-52 0 -87.5 -32t-37.5 -93q-3 -79 0 -167q0 -20 7 -43
q14 23 20 31zM275 60q51 0 86.5 34.5t37.5 93.5q3 88 0 167q-2 24 -5 34q-9 -15 -18 -28l-164 -228q-11 -15 -31 -32q35 -41 94 -41z" />
    <glyph glyph-name="a.alt" horiz-adv-x="496" 
d="M142 133q0 -36 23.5 -59.5t59.5 -23.5q42 0 68 32t26 80v170q0 98 -86 98q-37 0 -61 -18.5t-24 -51.5q0 -16 11.5 -26.5t41.5 -25.5l71 -32l-3 -64q-35 -7 -75 -20q-29 -9 -40.5 -21.5t-11.5 -37.5zM329 60q-48 -75 -136 -75q-58 0 -97 39t-39 103q0 48 19 71.5t67 34.5
l82 15v1q-44 15 -86 33q-41 18 -56 34t-15 44q0 63 48.5 101.5t120.5 38.5q76 0 121.5 -43.5t45.5 -128.5v-213q0 -35 14.5 -45t50.5 -10v-60q-12 -5 -30.5 -7t-41 1t-42 20t-26.5 46z" />
    <glyph glyph-name="g.alt" horiz-adv-x="524" 
d="M67 -122q0 31 11 48t43 35l128 66l-1 3l-32 -9q-65 1 -101 43t-39 116q-3 68 0 131q4 90 61.5 139.5t140.5 49.5q44 0 86 -9t62 -19l20 -9q1 -378 0 -507q-1 -104 -56 -162.5t-144 -58.5q-81 0 -130 41.5t-49 101.5zM151 -111q0 -39 25.5 -61.5t69.5 -22.5q53 0 83 34
t31 98q1 81 1 480q-39 13 -80 13q-48 0 -82 -32.5t-38 -88.5q-3 -44 0 -122q2 -59 24.5 -83t62.5 -24q14 0 26 1t16 3l5 1l5 -60l-119 -80q-20 -14 -25 -24t-5 -32z" />
    <glyph glyph-name="y.alt" horiz-adv-x="506" 
d="M70 170v278l85 37v-303q0 -59 21.5 -83t61.5 -24q14 0 26 1.5t16 2.5l5 1l5 -60q-83 -51 -119 -75q-20 -14 -25 -24t-5 -32q0 -38 24 -61t74 -23q47 0 78 30.5t32 92.5q1 101 -1 520l85 37l1 -538q0 -101 -55.5 -156.5t-139.5 -55.5q-83 0 -132.5 39.5t-49.5 103.5
q0 30 10.5 47t43.5 36q17 10 49 25.5t56 25.5l23 10l-1 3l-32 -9q-63 2 -99.5 42t-36.5 112z" />
    <glyph glyph-name="germandblscap" horiz-adv-x="601" 
d="M276 311l-9 54l130 88q35 23 35 67q0 56 -31.5 88t-87.5 32q-60 0 -100.5 -44.5t-40.5 -125.5v-470h-90v470q0 117 67.5 181t164.5 64q93 0 150.5 -50t57.5 -137q0 -34 -11.5 -54.5t-40.5 -37.5l-118 -68q3 0 8.5 0.5t8.5 0.5q80 0 135.5 -45t55.5 -124q0 -45 -14.5 -80
t-38.5 -57.5t-58 -37t-69 -20.5t-75 -6l-53 1v75h56q80 0 120.5 28.5t40.5 96.5q0 35 -13.5 58.5t-38 34t-48.5 14.5t-55 4h-38z" />
    <glyph glyph-name="aacute.alt" horiz-adv-x="496" 
d="M142 133q0 -36 23.5 -59.5t59.5 -23.5q42 0 68 32t26 80v170q0 98 -86 98q-37 0 -61 -18.5t-24 -51.5q0 -16 11.5 -26.5t41.5 -25.5l71 -32l-3 -64q-35 -7 -75 -20q-29 -9 -40.5 -21.5t-11.5 -37.5zM329 60q-48 -75 -136 -75q-58 0 -97 39t-39 103q0 48 19 71.5t67 34.5
l82 15v1q-44 15 -86 33q-41 18 -56 34t-15 44q0 63 48.5 101.5t120.5 38.5q76 0 121.5 -43.5t45.5 -128.5v-213q0 -35 14.5 -45t50.5 -10v-60q-12 -5 -30.5 -7t-41 1t-42 20t-26.5 46zM316 700h100l-132 -145h-78z" />
    <glyph glyph-name="agrave.alt" horiz-adv-x="496" 
d="M142 133q0 -36 23.5 -59.5t59.5 -23.5q42 0 68 32t26 80v170q0 98 -86 98q-37 0 -61 -18.5t-24 -51.5q0 -16 11.5 -26.5t41.5 -25.5l71 -32l-3 -64q-35 -7 -75 -20q-29 -9 -40.5 -21.5t-11.5 -37.5zM329 60q-48 -75 -136 -75q-58 0 -97 39t-39 103q0 48 19 71.5t67 34.5
l82 15v1q-44 15 -86 33q-41 18 -56 34t-15 44q0 63 48.5 101.5t120.5 38.5q76 0 121.5 -43.5t45.5 -128.5v-213q0 -35 14.5 -45t50.5 -10v-60q-12 -5 -30.5 -7t-41 1t-42 20t-26.5 46zM75 700h100l110 -145h-79z" />
    <glyph glyph-name="acircumflex.alt" horiz-adv-x="496" 
d="M142 133q0 -36 23.5 -59.5t59.5 -23.5q42 0 68 32t26 80v170q0 98 -86 98q-37 0 -61 -18.5t-24 -51.5q0 -16 11.5 -26.5t41.5 -25.5l71 -32l-3 -64q-35 -7 -75 -20q-29 -9 -40.5 -21.5t-11.5 -37.5zM329 60q-48 -75 -136 -75q-58 0 -97 39t-39 103q0 48 19 71.5t67 34.5
l82 15v1q-44 15 -86 33q-41 18 -56 34t-15 44q0 63 48.5 101.5t120.5 38.5q76 0 121.5 -43.5t45.5 -128.5v-213q0 -35 14.5 -45t50.5 -10v-60q-12 -5 -30.5 -7t-41 1t-42 20t-26.5 46zM208 700h53l121 -150h-80l-68 84l-69 -84h-78z" />
    <glyph glyph-name="adieresis.alt" horiz-adv-x="496" 
d="M142 133q0 -36 23.5 -59.5t59.5 -23.5q42 0 68 32t26 80v170q0 98 -86 98q-37 0 -61 -18.5t-24 -51.5q0 -16 11.5 -26.5t41.5 -25.5l71 -32l-3 -64q-35 -7 -75 -20q-29 -9 -40.5 -21.5t-11.5 -37.5zM329 60q-48 -75 -136 -75q-58 0 -97 39t-39 103q0 48 19 71.5t67 34.5
l82 15v1q-44 15 -86 33q-41 18 -56 34t-15 44q0 63 48.5 101.5t120.5 38.5q76 0 121.5 -43.5t45.5 -128.5v-213q0 -35 14.5 -45t50.5 -10v-60q-12 -5 -30.5 -7t-41 1t-42 20t-26.5 46zM91 645q0 24 16 40t39 16q25 0 41 -16t16 -40t-16 -39.5t-41 -15.5q-23 0 -39 15.5
t-16 39.5zM271 645q0 24 15.5 40t38.5 16q25 0 41.5 -16t16.5 -40t-16.5 -39.5t-41.5 -15.5q-23 0 -38.5 15.5t-15.5 39.5z" />
    <glyph glyph-name="atilde.alt" horiz-adv-x="496" 
d="M142 133q0 -36 23.5 -59.5t59.5 -23.5q42 0 68 32t26 80v170q0 98 -86 98q-37 0 -61 -18.5t-24 -51.5q0 -16 11.5 -26.5t41.5 -25.5l71 -32l-3 -64q-35 -7 -75 -20q-29 -9 -40.5 -21.5t-11.5 -37.5zM329 60q-48 -75 -136 -75q-58 0 -97 39t-39 103q0 48 19 71.5t67 34.5
l82 15v1q-44 15 -86 33q-41 18 -56 34t-15 44q0 63 48.5 101.5t120.5 38.5q76 0 121.5 -43.5t45.5 -128.5v-213q0 -35 14.5 -45t50.5 -10v-60q-12 -5 -30.5 -7t-41 1t-42 20t-26.5 46zM299 619q-24 0 -69 22t-59 22q-30 0 -30 -44h-56q-4 45 18.5 77.5t64.5 32.5
q26 0 74 -23.5t60 -23.5q28 0 28 48h53q5 -48 -16 -79.5t-68 -31.5z" />
    <glyph glyph-name="aring.alt" horiz-adv-x="496" 
d="M142 133q0 -36 23.5 -59.5t59.5 -23.5q42 0 68 32t26 80v170q0 98 -86 98q-37 0 -61 -18.5t-24 -51.5q0 -16 11.5 -26.5t41.5 -25.5l71 -32l-3 -64q-35 -7 -75 -20q-29 -9 -40.5 -21.5t-11.5 -37.5zM329 60q-48 -75 -136 -75q-58 0 -97 39t-39 103q0 48 19 71.5t67 34.5
l82 15v1q-44 15 -86 33q-41 18 -56 34t-15 44q0 63 48.5 101.5t120.5 38.5q76 0 121.5 -43.5t45.5 -128.5v-213q0 -35 14.5 -45t50.5 -10v-60q-12 -5 -30.5 -7t-41 1t-42 20t-26.5 46zM131 650q0 44 30 71t69 27q38 0 68.5 -27.5t30.5 -70.5t-29.5 -71.5t-69.5 -28.5
t-69.5 28.5t-29.5 71.5zM186 651q0 -23 13 -37t31 -14q19 0 31.5 14t12.5 37q0 19 -12.5 33t-31.5 14q-18 0 -31 -13.5t-13 -33.5z" />
    <glyph glyph-name="ae.alt" horiz-adv-x="739" 
d="M600 245l-192 -25v-45q0 -60 28 -90t77 -30q77 0 94 85h85q-4 -69 -55 -112t-124 -43q-55 0 -100 23t-68 67q-19 -40 -57 -65t-87 -25q-63 0 -103.5 40t-40.5 104q0 49 19 71.5t69 32.5l78 13q-23 14 -62 33q-61 30 -75.5 42t-14.5 39q0 62 50 101t119 39q85 0 132 -59
q53 59 140 59q79 0 126 -44.5t47 -122.5q0 -49 -14.5 -64t-70.5 -24zM275 272l-3 -60q-12 -4 -40.5 -11t-42.5 -11q-28 -8 -37.5 -21t-9.5 -40q0 -35 22.5 -57t58.5 -22q43 0 71 34.5t28 82.5v168q0 44 -23.5 69.5t-63.5 25.5q-36 0 -60 -19.5t-24 -50.5q0 -4 0.5 -7t3 -6
t4.5 -5t7.5 -6t9.5 -6.5t13 -7.5t15 -9zM408 298v-28q66 7 141 20q32 6 41.5 15t9.5 30q0 46 -23.5 70.5t-66.5 24.5q-47 0 -74.5 -35t-27.5 -97z" />
    <glyph glyph-name="yacute.alt" horiz-adv-x="506" 
d="M93 170v278l85 37v-303q0 -59 21.5 -83t61.5 -24q14 0 26 1.5t17 2.5l4 1l5 -60q-83 -51 -119 -75q-20 -14 -25 -24t-5 -32q0 -38 24 -61t74 -23q47 0 78 30.5t32 92.5q1 101 -1 520l85 37l1 -538q0 -101 -55.5 -156.5t-139.5 -55.5q-83 0 -132.5 39.5t-49.5 103.5
q0 30 10.5 47t43.5 36q17 10 49 25.5t55 25.5l24 10l-1 3l-32 -9q-63 2 -99.5 42t-36.5 112zM348 700h100l-132 -145h-78z" />
    <glyph glyph-name="ydieresis.alt" horiz-adv-x="506" 
d="M93 170v278l85 37v-303q0 -59 21.5 -83t61.5 -24q14 0 26 1.5t17 2.5l4 1l5 -60q-83 -51 -119 -75q-20 -14 -25 -24t-5 -32q0 -38 24 -61t74 -23q47 0 78 30.5t32 92.5q1 101 -1 520l85 37l1 -538q0 -101 -55.5 -156.5t-139.5 -55.5q-83 0 -132.5 39.5t-49.5 103.5
q0 30 10.5 47t43.5 36q17 10 49 25.5t55 25.5l24 10l-1 3l-32 -9q-63 2 -99.5 42t-36.5 112zM132 644q0 24 16 40t39 16q25 0 41 -16t16 -40t-16 -39.5t-41 -15.5q-23 0 -39 15.5t-16 39.5zM312 644q0 24 15.5 40t38.5 16q25 0 41.5 -16t16.5 -40t-16.5 -39.5t-41.5 -15.5
q-23 0 -38.5 15.5t-15.5 39.5z" />
    <glyph glyph-name="zeroliningslash" 
d="M501 195q-9 -97 -69.5 -153.5t-150.5 -56.5q-92 0 -153 57t-70 153q-5 59 -5.5 163.5t5.5 152.5q13 97 72.5 150.5t150.5 53.5q90 0 149.5 -54t70.5 -150q5 -47 5 -153t-5 -163zM411 500q-3 30 -12 54l-217 -448q35 -46 99 -46q56 0 90 37.5t40 103.5q5 47 5 150t-5 149z
M148 201q1 -18 7 -41l213 446q-34 34 -87 34q-57 0 -91.5 -37t-41.5 -103q-4 -46 -4 -149t4 -150z" />
    <glyph glyph-name="zerolining" 
d="M501 195q-9 -97 -69.5 -153.5t-150.5 -56.5q-92 0 -153 57t-70 153q-5 59 -5.5 163.5t5.5 152.5q13 97 72.5 150.5t150.5 53.5q90 0 149.5 -54t70.5 -150q5 -47 5 -153t-5 -163zM411 500q-7 67 -40.5 103.5t-89.5 36.5q-57 0 -91.5 -37t-41.5 -103q-4 -46 -4 -149t4 -150
q6 -65 41.5 -103t91.5 -38t90 37.5t40 103.5q5 47 5 150t-5 149z" />
    <glyph glyph-name="onelining" 
d="M337 700v-625l115 -5v-70h-320v70l115 5v536l-103 -16l-12 62l164 48z" />
    <glyph glyph-name="twolining" 
d="M70 0l-10 60q24 27 71 75.5t83.5 89t65.5 76.5q46 57 73 108t27 109q0 122 -109 122q-54 0 -90 -33t-36 -92l-80 -5q-5 87 54.5 146t151.5 59t145.5 -50t53.5 -141q0 -68 -33.5 -131.5t-93.5 -133.5q-86 -100 -176 -184h334v-75h-431z" />
    <glyph glyph-name="threelining" 
d="M402 203q0 81 -54.5 117.5t-141.5 34.5l-8 34l176 236h-307v75h399l10 -69l-182 -229q81 2 139.5 -50t58.5 -149q0 -101 -62.5 -159.5t-155.5 -58.5q-92 0 -156 51.5t-71 133.5l80 5q6 -52 46.5 -83.5t98.5 -31.5t94 38t36 105z" />
    <glyph glyph-name="fourlining" 
d="M334 190h-306l-11 64l312 451l90 -5v-440h123v-70h-123v-190h-85v190zM97 260h237v343z" />
    <glyph glyph-name="fivelining" 
d="M512 210q0 -103 -62.5 -164t-155.5 -61q-92 0 -156 51.5t-71 133.5l80 5q6 -52 46.5 -83.5t98.5 -31.5q60 0 95 39.5t35 109.5q0 75 -37 113t-95 38q-66 0 -102 -43h-76l23 383h326v-75h-250l-15 -237q5 5 13.5 12t39 18.5t64.5 11.5q82 0 140.5 -58t58.5 -162z" />
    <glyph glyph-name="sixlining" 
d="M70 225q-6 142 0 266q5 107 66 165.5t153 58.5q86 0 139 -48t54 -137l-80 -5q-2 51 -31.5 83t-81.5 32q-60 0 -94.5 -38.5t-37.5 -110.5q-3 -80 -2 -167q20 45 63.5 73t98.5 28q82 0 138.5 -53t56.5 -159q0 -104 -59 -166t-155 -62q-100 0 -161.5 65t-66.5 175zM159 197
l-1 1q8 -64 44 -101t96 -37q58 0 91 40t33 113q0 72 -34 107t-88 35q-61 0 -104.5 -44.5t-36.5 -113.5z" />
    <glyph glyph-name="sevenlining" 
d="M491 700l11 -63l-278 -637h-93l279 625h-343v75h424z" />
    <glyph glyph-name="eightlining" 
d="M280 -15q-104 0 -166 60.5t-62 149.5q0 57 33.5 104.5t87.5 65.5q-48 23 -76.5 62t-28.5 90q0 93 62 145.5t150 52.5t149.5 -52.5t61.5 -145.5q0 -51 -28.5 -90t-76.5 -62q54 -18 87.5 -65.5t33.5 -104.5q0 -89 -62 -149.5t-165 -60.5zM280 395q57 0 89 35.5t32 87.5
t-32 87t-89 35t-89.5 -35t-32.5 -87t32.5 -87.5t89.5 -35.5zM280 60q63 0 100 39t37 96q0 55 -36 92.5t-101 37.5t-101.5 -37.5t-36.5 -92.5q0 -57 37 -96t101 -39z" />
    <glyph glyph-name="ninelining" 
d="M62 487q0 103 62.5 165.5t156.5 62.5t156.5 -61.5t66.5 -178.5q5 -162 0 -256q-6 -115 -65.5 -174.5t-155.5 -59.5q-91 0 -153 49t-68 136l80 5q9 -53 44.5 -84t96.5 -31q125 0 134 159q3 71 2 148q-20 -42 -62.5 -68.5t-92.5 -26.5q-83 0 -142.5 55t-59.5 160zM281 347
q61 0 97.5 36.5t38.5 90.5v11q-3 76 -40.5 115.5t-95.5 39.5q-56 0 -92.5 -41t-36.5 -112t37 -105.5t92 -34.5z" />
    <glyph glyph-name="asuperior" horiz-adv-x="344" 
d="M322 435v-45q-12 -6 -31.5 -6.5t-40.5 10.5t-28 36q-30 -50 -88 -50q-42 0 -67 25t-25 68q0 61 68 76l105 20v30q0 61 -51 61q-28 0 -42 -16.5t-14 -43.5l-60 -5q-4 49 27.5 82t92.5 33q50 0 81 -30t31 -86v-122q0 -22 10 -29.5t32 -7.5zM139 516q-32 -9 -32 -41
q0 -45 48 -45q60 0 60 69v32q-48 -7 -76 -15z" />
    <glyph glyph-name="bsuperior" horiz-adv-x="360" 
d="M117 600v-158q27 -12 63 -12q33 0 54 17.5t22 50.5q2 35 0 101q-1 31 -18.5 46t-43.5 15q-31 0 -54 -19t-23 -41zM52 411v417l65 22v-185q34 45 92 45q46 0 77.5 -28t34.5 -79q3 -54 0 -105q-3 -53 -43.5 -85.5t-96.5 -32.5q-30 0 -68 8.5t-61 22.5z" />
    <glyph glyph-name="csuperior" horiz-adv-x="313" 
d="M103 505q3 -75 67 -75q28 0 44 16.5t16 43.5l60 -5q2 -46 -31.5 -75.5t-88.5 -29.5q-58 0 -94.5 30.5t-37.5 85.5q-1 50 0 96q1 56 37 87t95 31q54 0 86.5 -28.5t31.5 -76.5l-60 -5q0 28 -15 44t-43 16t-47 -17.5t-20 -50.5q-2 -47 0 -87z" />
    <glyph glyph-name="dsuperior" horiz-adv-x="372" 
d="M243 507v71q0 40 -20.5 61t-54.5 21q-29 0 -47 -19.5t-18 -54.5q0 -72 1 -90q3 -66 64 -66q33 0 54 19.5t21 57.5zM248 430q-27 -50 -94 -50q-49 0 -80.5 28.5t-34.5 81.5q-2 47 -1 99q2 61 36 91t85 30q56 0 84 -39v157l65 22v-383q0 -20 9.5 -26t32.5 -6v-45
q-16 -5 -36 -7t-40.5 10.5t-25.5 36.5z" />
    <glyph glyph-name="esuperior" horiz-adv-x="323" 
d="M170 430q28 0 44 16.5t16 43.5l60 -5q2 -46 -31.5 -75.5t-88.5 -29.5q-59 0 -95 30.5t-37 85.5t0 92q2 54 37 88t95 34q56 0 88.5 -29.5t32.5 -80.5q0 -31 -14 -43.5t-51 -18.5l-123 -17v-16q0 -75 67 -75zM103 578v-20q48 6 91 12q20 3 26 10t6 21q0 59 -57 59
q-30 0 -48 -21.5t-18 -60.5z" />
    <glyph glyph-name="fsuperior" horiz-adv-x="207" 
d="M126 724v-24h78v-45h-78v-265h-65v265h-44v45h44v28q0 59 30.5 90.5t75.5 31.5q46 0 68 -18l-14 -43q-20 6 -43 6q-52 0 -52 -71z" />
    <glyph glyph-name="gsuperior" horiz-adv-x="362" 
d="M105 394l27 4v2l-15 2q-63 8 -63 51q0 41 47 57q-47 24 -47 90q0 48 36 79t89 31q14 0 29.5 -2.5t23.5 -5.5l8 -2h93q1 -5 1 -22.5t-1 -22.5q-17 0 -38.5 2.5t-34.5 4.5l-13 3v-1q52 -14 52 -67q0 -50 -34.5 -79t-85.5 -29q-26 0 -47 7q-26 -8 -26 -25q0 -15 23 -18
q6 -1 53.5 -7t70.5 -10q37 -7 62 -28.5t25 -58.5q0 -51 -44.5 -80t-108.5 -29q-71 0 -115.5 26.5t-44.5 68.5q0 19 7.5 28t27.5 17q17 7 43 14zM225 388l-39 5q-6 -3 -33.5 -12t-36.5 -12q-24 -10 -24 -28q0 -22 25 -36.5t70 -14.5q39 0 63.5 14.5t24.5 40.5q0 37 -50 43z
M179 660q-26 0 -43 -15.5t-17 -44.5q0 -28 15.5 -44.5t44.5 -16.5q27 0 42.5 16t15.5 45q0 28 -15 44t-43 16z" />
    <glyph glyph-name="isuperior" horiz-adv-x="178" 
d="M119 707v-230q0 -24 9.5 -33t32.5 -9v-45q-39 -14 -73 1t-34 60v233zM47 798q0 17 11 28.5t28 11.5q18 0 29.5 -11.5t11.5 -28.5t-11.5 -28.5t-29.5 -11.5q-17 0 -28 11.5t-11 28.5z" />
    <glyph glyph-name="ksuperior" horiz-adv-x="336" 
d="M118 850v-460h-61v438zM227 417l-100 144q64 86 96 121q28 32 78 18v-41q-31 2 -47 -18l-59 -76l76 -110q10 -15 18.5 -19t24.5 -4v-42q-54 -17 -87 27z" />
    <glyph glyph-name="lsuperior" horiz-adv-x="181" 
d="M154 432v-42q-37 -14 -69.5 1t-32.5 60v377l61 22v-377q0 -24 9 -32.5t32 -8.5z" />
    <glyph glyph-name="msuperior" horiz-adv-x="533" 
d="M126 587v-197h-65v235q0 30 -39 30v45q32 11 64 1t38 -39q29 48 88 48q33 0 58.5 -16t32.5 -43q34 59 95 59q43 0 70.5 -29t27.5 -80v-211h-65v203q0 67 -50 67q-31 0 -50.5 -21t-19.5 -53v-196h-65v203q0 67 -50 67q-30 0 -50 -20t-20 -53z" />
    <glyph glyph-name="osuperior" horiz-adv-x="343" 
d="M304 499q-3 -53 -38.5 -86t-93.5 -33q-59 0 -95 33.5t-38 85.5q-2 47 0 93q2 53 37 85.5t96 32.5q60 0 94.5 -32.5t37.5 -85.5q3 -44 0 -93zM239 591q-1 33 -19.5 51t-47.5 18t-48 -18t-20 -51q-3 -46 0 -90q2 -33 20.5 -52t47.5 -19q28 0 47 19t20 52q3 41 0 90z" />
    <glyph glyph-name="psuperior" horiz-adv-x="364" 
d="M121 600v-93q0 -39 22 -58t55 -19q59 0 63 67q3 51 0 102q-3 61 -67 61q-27 0 -50 -18.5t-23 -41.5zM117 659q35 51 94 51q54 0 83.5 -30t31.5 -82q1 -47 0 -99q-2 -56 -35 -87.5t-87 -31.5q-49 0 -83 39v-169h-65v380q0 17 -9 21t-30 4v45q34 10 64 -1t36 -40z" />
    <glyph glyph-name="qsuperior" horiz-adv-x="351" 
d="M244 507v143q-21 10 -61 10q-77 0 -80 -79q-1 -41 0 -82q1 -34 20 -51.5t48 -17.5q33 0 53 19.5t20 57.5zM309 681v-431h-65v179q-29 -49 -87 -49q-47 0 -82 29.5t-37 82.5q-1 46 0 94q2 60 42.5 92t102.5 32q66 0 126 -29z" />
    <glyph glyph-name="rsuperior" horiz-adv-x="238" 
d="M62 390v235q0 30 -40 30v45q17 5 35.5 6t38.5 -10t27 -34q21 48 72 48q27 0 36 -13l-8 -47h-37q-32 0 -44.5 -16.5t-14.5 -55.5v-188h-65z" />
    <glyph glyph-name="ssuperior" horiz-adv-x="317" 
d="M274 612l-60 -5q0 53 -47 53q-23 0 -37 -12t-14 -31q0 -25 26.5 -37.5t58 -16t58 -25t26.5 -62.5q0 -42 -33.5 -69t-84.5 -27q-57 0 -90.5 28t-34.5 75l60 5q5 -58 66 -58q23 0 37 11t14 30q0 20 -17.5 30.5t-42.5 16.5t-49.5 13.5t-42 27.5t-17.5 53q0 43 33.5 70.5
t85.5 27.5q49 0 79 -26.5t26 -71.5z" />
    <glyph glyph-name="tsuperior" horiz-adv-x="247" 
d="M132 482q0 -32 14 -42t40 -10l39 4l5 -44q-26 -10 -68 -10q-39 0 -67 23.5t-28 72.5v179h-45v45h45v66l65 23v-89h86v-45h-86v-173z" />
    <glyph glyph-name="usuperior" horiz-adv-x="348" 
d="M225 495v189l65 23v-237q0 -22 9 -28.5t32 -6.5v-45q-21 -12 -54.5 -4t-43.5 44q-26 -50 -89 -50q-50 0 -78.5 28t-28.5 80v196l65 23v-209q0 -68 59 -68q30 0 47 20.5t17 44.5z" />
    <glyph glyph-name="vsuperior" horiz-adv-x="294" 
d="M161 500l60 200h66l-110 -310h-61l-109 310h69l62 -200l10 -43h1q7 30 12 43z" />
    <glyph glyph-name="zsuperior" horiz-adv-x="305" 
d="M278 440v-50h-237l-4 32l149 228h-147v50h226l4 -32l-152 -228h161z" />
    <glyph glyph-name="ct" horiz-adv-x="820" 
d="M664 138q0 -50 22 -66.5t61 -16.5l62 5l4 -60q-37 -15 -95 -15q-60 0 -99.5 36t-39.5 113v291h-70v60h70v63q0 132 -112 132q-75 0 -103 -53t-6 -115q-24 16 -66 19q-22 80 29 149.5t146 69.5q87 0 141.5 -50.5t55.5 -155.5v-59h134v-60h-134v-287zM250 -15
q-84 0 -136.5 45t-54.5 130q-3 85 0 160q3 86 54.5 133t132.5 47t127 -41t44 -109l-75 -5q-2 43 -29 64t-67 21q-45 0 -72.5 -28.5t-29.5 -81.5q-3 -78 0 -145q4 -120 106 -120q43 0 67 25t30 65l70 -5q3 -63 -42 -109t-125 -46z" />
    <glyph glyph-name="zeropropslash" horiz-adv-x="608" 
d="M526 195q-9 -97 -69.5 -153.5t-150.5 -56.5q-92 0 -153 57t-70 153q-5 59 -5.5 163.5t5.5 152.5q13 97 72.5 150.5t150.5 53.5q90 0 149.5 -54t70.5 -150q5 -47 5 -153t-5 -163zM173 201q3 -32 12 -56l216 451q-33 44 -95 44q-57 0 -91.5 -37t-41.5 -103q-5 -46 -5 -149
t5 -150zM436 500q-4 26 -7 39l-214 -442q35 -37 91 -37t90 37.5t40 103.5q4 47 4 150t-4 149z" />
    <glyph glyph-name="zeroprop" horiz-adv-x="609" 
d="M526 195q-9 -97 -69.5 -153.5t-150.5 -56.5q-92 0 -153 57t-70 153q-5 59 -5.5 163.5t5.5 152.5q13 97 72.5 150.5t150.5 53.5q90 0 149.5 -54t70.5 -150q5 -47 5 -153t-5 -163zM436 500q-7 67 -40.5 103.5t-89.5 36.5q-57 0 -91.5 -37t-41.5 -103q-5 -46 -5 -149t5 -150
q6 -65 41.5 -103t91.5 -38t90 37.5t40 103.5q4 47 4 150t-4 149z" />
    <glyph glyph-name="oneprop" horiz-adv-x="424" 
d="M262 700v-625l115 -5v-70h-320v70l115 5v536l-103 -16l-12 62l164 48z" />
    <glyph glyph-name="twoprop" horiz-adv-x="544" 
d="M66 0l-10 60q24 27 71 75.5t83.5 89t65.5 76.5q46 57 73 108t27 109q0 122 -109 122q-54 0 -90 -33t-36 -92l-80 -5q-5 87 54.5 146t151.5 59t145.5 -50t53.5 -141q0 -68 -33.5 -131.5t-93.5 -133.5q-86 -100 -176 -184h334v-75h-431z" />
    <glyph glyph-name="threeprop" horiz-adv-x="544" 
d="M402 203q0 81 -54.5 117.5t-141.5 34.5l-8 34l176 236h-307v75h399l10 -69l-182 -229q81 2 139.5 -50t58.5 -149q0 -101 -62.5 -159.5t-155.5 -58.5q-92 0 -156 51.5t-71 133.5l80 5q6 -52 46.5 -83.5t98.5 -31.5t94 38t36 105z" />
    <glyph glyph-name="fourprop" 
d="M344 190h-306l-11 64l312 451l90 -5v-440h123v-70h-123v-190h-85v190zM107 260h237v343z" />
    <glyph glyph-name="fiveprop" horiz-adv-x="544" 
d="M492 210q0 -103 -62.5 -164t-155.5 -61q-92 0 -156 51.5t-71 133.5l80 5q6 -52 46.5 -83.5t98.5 -31.5q60 0 95 39.5t35 109.5q0 75 -37 113t-95 38q-66 0 -102 -43h-76l23 383h326v-75h-250l-15 -237q5 5 13.5 12t39 18.5t64.5 11.5q82 0 140.5 -58t58.5 -162z" />
    <glyph glyph-name="sixprop" horiz-adv-x="579" 
d="M75 225q-6 142 0 266q5 107 66 165.5t153 58.5q86 0 139 -48t54 -137l-80 -5q-2 51 -31.5 83t-81.5 32q-60 0 -94.5 -38.5t-37.5 -110.5q-3 -80 -2 -167q20 45 63.5 73t98.5 28q82 0 138.5 -53t56.5 -159q0 -104 -59 -166t-155 -62q-100 0 -161.5 65t-66.5 175zM164 197
l-1 1q8 -64 44 -101t96 -37q58 0 91 40t33 113q0 72 -34 107t-88 35q-61 0 -104.5 -44.5t-36.5 -113.5z" />
    <glyph glyph-name="sevenprop" horiz-adv-x="514" 
d="M461 700l11 -63l-278 -637h-93l279 625h-343v75h424z" />
    <glyph glyph-name="eightprop" horiz-adv-x="589" 
d="M295 -15q-104 0 -166 60.5t-62 149.5q0 57 33.5 104.5t87.5 65.5q-48 23 -76.5 62t-28.5 90q0 93 62 145.5t150 52.5t149.5 -52.5t61.5 -145.5q0 -51 -28.5 -90t-76.5 -62q54 -18 87.5 -65.5t33.5 -104.5q0 -89 -62 -149.5t-165 -60.5zM295 395q57 0 89 35.5t32 87.5
t-32 87t-89 35t-89.5 -35t-32.5 -87t32.5 -87.5t89.5 -35.5zM295 60q63 0 100 39t37 96q0 55 -36 92.5t-101 37.5t-101.5 -37.5t-36.5 -92.5q0 -57 37 -96t101 -39z" />
    <glyph glyph-name="nineprop" horiz-adv-x="579" 
d="M62 487q0 103 62.5 165.5t156.5 62.5t156.5 -61.5t66.5 -178.5q5 -162 0 -256q-6 -115 -65.5 -174.5t-155.5 -59.5q-91 0 -153 49t-68 136l80 5q9 -53 44.5 -84t96.5 -31q125 0 134 159q3 71 2 148q-20 -42 -62.5 -68.5t-92.5 -26.5q-83 0 -142.5 55t-59.5 160zM281 347
q61 0 97.5 36.5t38.5 90.5v11q-3 76 -40.5 115.5t-95.5 39.5q-56 0 -92.5 -41t-36.5 -112t37 -105.5t92 -34.5z" />
    <glyph glyph-name="Asmall" horiz-adv-x="510" 
d="M205 540h87l201 -540h-91l-41 121h-217l-43 -121h-84l197 515zM238 384l-69 -193h168l-65 193l-16 57z" />
    <glyph glyph-name="Bsmall" horiz-adv-x="534" 
d="M482 155q0 -70 -50 -113t-158 -43l-177 1v540q98 1 169 1q96 0 149 -31t53 -106q0 -30 -13.5 -54t-33 -37t-35.5 -19.5t-28 -8.5v-2q5 -1 13.5 -2.5t30 -10t37.5 -21t29.5 -37.5t13.5 -57zM182 244v-174q49 -1 92 -1q58 0 90.5 17.5t32.5 68.5q0 45 -29 67.5t-100 22.5z
M182 470v-161q47 -1 92 -1q50 0 79.5 18t29.5 67q0 39 -23.5 58.5t-83.5 19.5z" />
    <glyph glyph-name="Csmall" horiz-adv-x="500" 
d="M447 395l-75 -5q0 46 -29 70.5t-75 24.5q-48 0 -79.5 -30.5t-34.5 -84.5q-5 -89 0 -197q2 -57 34 -87.5t82 -30.5t78.5 29t28.5 81l75 -5q3 -77 -49 -126t-133 -49q-83 0 -140 48.5t-61 134.5q-4 108 0 202q4 86 59 135.5t140 49.5q77 0 129.5 -41t49.5 -119z" />
    <glyph glyph-name="Dsmall" horiz-adv-x="555" 
d="M97 0v540q78 5 147 5q63 0 112.5 -16.5t85.5 -61t39 -113.5q3 -101 0 -161q-5 -99 -73.5 -148.5t-169.5 -49.5zM182 472v-405q24 -2 65 -2q139 0 149 127q6 78 0 162q-4 57 -41.5 89t-103.5 32z" />
    <glyph glyph-name="Esmall" horiz-adv-x="476" 
d="M97 0v540h322v-70h-237v-155h220v-70h-220v-175h237v-70h-322z" />
    <glyph glyph-name="Fsmall" horiz-adv-x="449" 
d="M97 0v540h320v-70h-235v-185h210v-70h-210v-215h-85z" />
    <glyph glyph-name="Gsmall" horiz-adv-x="527" 
d="M280 555q77 0 129.5 -41t49.5 -119l-75 -5q0 46 -29 70.5t-75 24.5q-49 0 -83.5 -30.5t-37.5 -84.5q-5 -85 1 -198q3 -56 36.5 -86.5t80.5 -30.5q56 0 87 28.5t31 86.5v55h-116v70h196v-121q0 -87 -55 -138t-143 -51q-84 0 -141 49.5t-61 130.5q-2 40 -2.5 107t1.5 98
q4 85 62 135t144 50z" />
    <glyph glyph-name="Hsmall" horiz-adv-x="604" 
d="M507 540v-540h-85v235h-240v-235h-85v540h85v-235h240v235h85z" />
    <glyph glyph-name="Ismall" horiz-adv-x="279" 
d="M182 540v-540h-85v540h85z" />
    <glyph glyph-name="Jsmall" horiz-adv-x="463" 
d="M291 540h85v-365q0 -88 -46 -139t-127 -51q-79 0 -126.5 46.5t-43.5 123.5l75 5q0 -48 25 -76.5t70 -28.5q88 0 88 120v365z" />
    <glyph glyph-name="Ksmall" horiz-adv-x="518" 
d="M187 279l206 261h93l-203 -255l218 -285h-95zM182 540v-540h-85v540h85z" />
    <glyph glyph-name="Lsmall" horiz-adv-x="431" 
d="M97 0v540h85v-470h237v-70h-322z" />
    <glyph glyph-name="Msmall" horiz-adv-x="682" 
d="M514 540h71v-540h-85v403l-159 -236h-18l-146 234v-401h-80v540h73l169 -267z" />
    <glyph glyph-name="Nsmall" horiz-adv-x="607" 
d="M510 0h-75l-258 395v-395h-80v540h75l258 -396v396h80v-540z" />
    <glyph glyph-name="Osmall" horiz-adv-x="554" 
d="M277 -15q-86 0 -142.5 51t-60.5 136q-6 108 0 196q6 80 59.5 133.5t143.5 53.5t143.5 -53.5t59.5 -133.5q6 -88 0 -196q-4 -85 -60.5 -136t-142.5 -51zM277 55q53 0 84.5 33t33.5 85q4 122 0 196q-2 53 -34 84.5t-84 31.5t-84 -31.5t-34 -84.5q-4 -74 0 -196
q2 -52 33.5 -85t84.5 -33z" />
    <glyph glyph-name="Psmall" horiz-adv-x="507" 
d="M182 0h-85v540q86 1 153 1q220 -2 220 -176q0 -82 -55.5 -130.5t-163.5 -48.5l-69 1v-187zM182 470v-213q31 -1 70 -1q64 0 98.5 23.5t34.5 84.5q0 107 -132 107z" />
    <glyph glyph-name="Qsmall" horiz-adv-x="541" 
d="M437 -45q102 -27 126 -27q17 0 23 1v-50q-12 -21 -49 -21q-45 0 -147 53q-28 15 -58 31t-43 23t-27.5 13.5t-28.5 10.5q-69 12 -112 61t-47 122q-6 108 0 196q6 80 59.5 133.5t143.5 53.5t143.5 -53.5t59.5 -133.5q6 -88 0 -196q-4 -75 -48.5 -124t-115.5 -60
q16 -1 33 -6t42.5 -13.5t45.5 -13.5zM277 55q53 0 84.5 33t33.5 85q4 122 0 196q-2 53 -34 84.5t-84 31.5t-84 -31.5t-34 -84.5q-4 -74 0 -196q2 -52 33.5 -85t84.5 -33z" />
    <glyph glyph-name="Rsmall" horiz-adv-x="528" 
d="M275 215h-93v-215h-85v540q89 1 162 1q213 0 213 -161q0 -62 -41.5 -102.5t-90.5 -42.5q17 -8 44 -51l112 -184h-95zM182 470v-190q36 -1 78 -1q59 0 93 20t34 79q0 46 -29.5 69.5t-98.5 23.5z" />
    <glyph glyph-name="Ssmall" horiz-adv-x="504" 
d="M362 126q0 39 -25.5 59t-104.5 49q-78 29 -114.5 66t-36.5 100q0 72 50 113.5t131 41.5q75 0 124.5 -44.5t43.5 -120.5l-75 -5q0 47 -25.5 73.5t-73.5 26.5q-39 0 -64.5 -19.5t-25.5 -55.5q0 -40 27 -63t95 -48q30 -11 46.5 -18t41.5 -21.5t38 -30t23 -39.5t10 -54
q0 -64 -54.5 -107.5t-132.5 -43.5q-87 0 -141.5 45.5t-56.5 134.5l73 5q3 -51 37.5 -83t89.5 -32q46 0 73 19.5t27 51.5z" />
    <glyph glyph-name="Tsmall" horiz-adv-x="449" 
d="M182 0v470h-165v70h415v-70h-165v-470h-85z" />
    <glyph glyph-name="Usmall" horiz-adv-x="564" 
d="M392 540h85v-363q0 -85 -55 -138.5t-141 -53.5q-87 0 -140.5 52t-53.5 138v365h85v-364q0 -59 28.5 -90t81.5 -31t81.5 31t28.5 90v364z" />
    <glyph glyph-name="Vsmall" horiz-adv-x="522" 
d="M306 0h-90l-184 540h94l138 -445l137 445h89z" />
    <glyph glyph-name="Wsmall" horiz-adv-x="789" 
d="M278 0h-88l-148 540h92l105 -441l118 441h77l113 -441l112 441h88l-161 -540h-85l-109 419z" />
    <glyph glyph-name="Xsmall" horiz-adv-x="504" 
d="M387 0l-135 221l-135 -221h-90l179 279l-164 261h95l123 -207l128 207h90l-170 -261l174 -279h-95z" />
    <glyph glyph-name="Ysmall" horiz-adv-x="506" 
d="M298 217v-217h-85v217l-196 323h95l126 -208l22 -49l22 50l117 207h95z" />
    <glyph glyph-name="Zsmall" horiz-adv-x="482" 
d="M440 70v-70h-388l-5 45l274 425h-270v70h370l5 -50l-274 -420h288z" />
    <glyph glyph-name="exclamsmall" horiz-adv-x="220" 
d="M61 530l103 42l-22 -397h-61zM47 46q0 27 18 45.5t44 18.5q27 0 45.5 -18.5t18.5 -45.5q0 -26 -18.5 -43.5t-45.5 -17.5q-26 0 -44 17.5t-18 43.5z" />
    <glyph glyph-name="questionsmall" horiz-adv-x="435" 
d="M246 175h-65q-4 24 -4 34q0 23 12 43.5t29 37l34 33t29 38t12 46.5q0 38 -20 58t-53 20q-37 0 -62.5 -24.5t-25.5 -68.5h-75q-2 76 45 119.5t120 43.5q71 0 113.5 -41t42.5 -107q0 -35 -19.5 -67.5t-43 -52.5t-44 -40.5t-22.5 -33.5q-3 -30 -3 -38zM154 46q0 27 18 45.5
t44 18.5q27 0 45.5 -18.5t18.5 -45.5q0 -26 -18.5 -43.5t-45.5 -17.5q-26 0 -44 17.5t-18 43.5z" />
    <glyph glyph-name="questiondownsmall" horiz-adv-x="435" 
d="M195 365h65q4 -24 4 -34q0 -23 -12 -43.5t-29 -37l-34 -33t-29 -38t-12 -46.5q0 -38 20 -58t53 -20q37 0 62.5 24.5t25.5 68.5h75q2 -76 -45 -119.5t-120 -43.5q-71 0 -113.5 41t-42.5 107q0 35 19.5 67.5t43 52.5t44 40.5t22.5 33.5q3 30 3 38zM287 494q0 -27 -18 -45.5
t-44 -18.5q-27 0 -45.5 18.5t-18.5 45.5q0 26 18.5 43.5t45.5 17.5q26 0 44 -17.5t18 -43.5z" />
    <glyph glyph-name="exclamdownsmall" horiz-adv-x="220" 
d="M164 -33l-103 42l20 355h61zM47 493q0 26 18 43.5t44 17.5q27 0 45.5 -17.5t18.5 -43.5q0 -27 -18.5 -45.5t-45.5 -18.5q-26 0 -44 18.5t-18 45.5z" />
    <glyph glyph-name="Aacutesmall" horiz-adv-x="510" 
d="M205 540h87l201 -540h-91l-41 121h-217l-43 -121h-84l197 515zM238 384l-69 -193h168l-65 193l-16 57zM316 715h90l-109 -130h-73z" />
    <glyph glyph-name="Agravesmall" horiz-adv-x="510" 
d="M205 540h87l201 -540h-91l-41 121h-217l-43 -121h-84l197 515zM238 384l-69 -193h168l-65 193l-16 57zM92 715h90l100 -130h-77z" />
    <glyph glyph-name="Acircumflexsmall" horiz-adv-x="510" 
d="M205 540h87l201 -540h-91l-41 121h-217l-43 -121h-84l197 515zM238 384l-69 -193h168l-65 193l-16 57zM234 715h43l113 -130h-76l-61 69l-62 -69h-72z" />
    <glyph glyph-name="Adieresissmall" horiz-adv-x="510" 
d="M205 540h87l201 -540h-91l-41 121h-217l-43 -121h-84l197 515zM238 384l-69 -193h168l-65 193l-16 57zM121 665q0 22 14 36t35 14q22 0 36.5 -14t14.5 -36t-14 -35.5t-37 -13.5q-21 0 -35 13.5t-14 35.5zM291 665q0 22 13.5 36t34.5 14q23 0 37.5 -14t14.5 -36
t-14.5 -35.5t-37.5 -13.5q-21 0 -34.5 13.5t-13.5 35.5z" />
    <glyph glyph-name="Atildesmall" horiz-adv-x="510" 
d="M205 540h87l201 -540h-91l-41 121h-217l-43 -121h-84l197 515zM238 384l-69 -193h168l-65 193l-16 57zM310 614q-22 0 -60 19.5t-47 19.5q-25 0 -25 -39h-56q-4 44 15.5 72t58.5 28q24 0 65 -21t48 -21q23 0 23 43h53q10 -101 -75 -101z" />
    <glyph glyph-name="Aringsmall" horiz-adv-x="510" 
d="M205 540h87l201 -540h-91l-41 121h-217l-43 -121h-84l197 515zM163 662q0 39 27 63.5t62 24.5q34 0 61 -24.5t28 -63.5t-26 -64.5t-63 -25.5t-62.5 25.5t-26.5 64.5zM238 384l-69 -193h168l-65 193l-16 57zM212 663q0 -21 11.5 -33.5t28.5 -12.5t28.5 13t11.5 33
q0 17 -11.5 29.5t-28.5 12.5q-16 0 -28 -12t-12 -30z" />
    <glyph glyph-name="AEsmall" horiz-adv-x="710" 
d="M361 0v180h-174l-96 -180h-89l298 540h353v-70h-207v-155h190v-70h-190v-175h207v-70h-292zM361 503l-136 -253h136v253z" />
    <glyph glyph-name="Ccedillasmall" horiz-adv-x="500" 
d="M447 395l-75 -5q0 46 -29 70.5t-75 24.5q-48 0 -79.5 -30.5t-34.5 -84.5q-5 -89 0 -197q2 -57 34 -87.5t82 -30.5t78.5 29t28.5 81l75 -5q3 -77 -49 -126t-133 -49q-83 0 -140 48.5t-61 134.5q-4 108 0 202q4 86 59 135.5t140 49.5q77 0 129.5 -41t49.5 -119zM159 -149
h55q0 -17 10 -26.5t27 -9.5q14 0 23.5 9t9.5 27q0 36 -39 36v55q43 4 71 -22t28 -69q0 -38 -25.5 -64.5t-67.5 -26.5q-41 0 -68.5 25t-23.5 66z" />
    <glyph glyph-name="Ethsmall" horiz-adv-x="550" 
d="M47 240v65h60v235q78 5 147 5q63 0 112.5 -16.5t85.5 -61t39 -113.5q3 -101 0 -161q-5 -99 -73.5 -148.5t-169.5 -49.5l-141 5v240h-60zM192 472v-167h85v-65h-85v-173q24 -2 65 -2q139 0 149 127q6 78 0 162q-4 57 -41.5 89t-103.5 32z" />
    <glyph glyph-name="Egravesmall" horiz-adv-x="476" 
d="M97 0v540h322v-70h-237v-155h220v-70h-220v-175h237v-70h-322zM119 715h90l100 -130h-77z" />
    <glyph glyph-name="Eacutesmall" horiz-adv-x="476" 
d="M97 0v540h322v-70h-237v-155h220v-70h-220v-175h237v-70h-322zM282 715h90l-109 -130h-73z" />
    <glyph glyph-name="Ecircumflexsmall" horiz-adv-x="476" 
d="M97 0v540h322v-70h-237v-155h220v-70h-220v-175h237v-70h-322zM239 715h43l113 -130h-76l-61 69l-62 -69h-72z" />
    <glyph glyph-name="Edieresissmall" horiz-adv-x="476" 
d="M97 0v540h322v-70h-237v-155h220v-70h-220v-175h237v-70h-322zM127 665q0 22 14 36t35 14q22 0 36.5 -14t14.5 -36t-14 -35.5t-37 -13.5q-21 0 -35 13.5t-14 35.5zM297 665q0 22 13.5 36t34.5 14q23 0 37.5 -14t14.5 -36t-14.5 -35.5t-37.5 -13.5q-21 0 -34.5 13.5
t-13.5 35.5z" />
    <glyph glyph-name="Igravesmall" horiz-adv-x="279" 
d="M182 540v-540h-85v540h85zM-13 715h90l100 -130h-77z" />
    <glyph glyph-name="Iacutesmall" horiz-adv-x="279" 
d="M182 540v-540h-85v540h85zM193 715h90l-109 -130h-73z" />
    <glyph glyph-name="Icircumflexsmall" horiz-adv-x="279" 
d="M182 540v-540h-85v540h85zM120 715h43l113 -130h-76l-61 69l-62 -69h-72z" />
    <glyph glyph-name="Idieresissmall" horiz-adv-x="279" 
d="M182 540v-540h-85v540h85zM5 665q0 22 14 36t35 14q22 0 36.5 -14t14.5 -36t-14 -35.5t-37 -13.5q-21 0 -35 13.5t-14 35.5zM175 665q0 22 13.5 36t34.5 14q23 0 37.5 -14t14.5 -36t-14.5 -35.5t-37.5 -13.5q-21 0 -34.5 13.5t-13.5 35.5z" />
    <glyph glyph-name="IJsmall" horiz-adv-x="543" 
d="M361 540h85v-500q0 -87 -46 -136t-127 -49q-80 0 -128 48.5t-48 131.5h85q1 -51 25.5 -80.5t65.5 -29.5q88 0 88 115v500zM182 540v-430h-85v430h85z" />
    <glyph glyph-name="Ntildesmall" horiz-adv-x="607" 
d="M510 0h-75l-258 395v-395h-80v540h75l258 -396v396h80v-540zM366 614q-22 0 -60 19.5t-47 19.5q-25 0 -25 -39h-56q-4 44 15.5 72t58.5 28q24 0 65 -21t48 -21q23 0 23 43h53q10 -101 -75 -101z" />
    <glyph glyph-name="Ogravesmall" horiz-adv-x="554" 
d="M277 -15q-86 0 -142.5 51t-60.5 136q-6 108 0 196q6 80 59.5 133.5t143.5 53.5t143.5 -53.5t59.5 -133.5q6 -88 0 -196q-4 -85 -60.5 -136t-142.5 -51zM277 55q53 0 84.5 33t33.5 85q4 122 0 196q-2 53 -34 84.5t-84 31.5t-84 -31.5t-34 -84.5q-4 -74 0 -196
q2 -52 33.5 -85t84.5 -33zM128 715h90l100 -130h-77z" />
    <glyph glyph-name="Oacutesmall" horiz-adv-x="554" 
d="M277 -15q-86 0 -142.5 51t-60.5 136q-6 108 0 196q6 80 59.5 133.5t143.5 53.5t143.5 -53.5t59.5 -133.5q6 -88 0 -196q-4 -85 -60.5 -136t-142.5 -51zM277 55q53 0 84.5 33t33.5 85q4 122 0 196q-2 53 -34 84.5t-84 31.5t-84 -31.5t-34 -84.5q-4 -74 0 -196
q2 -52 33.5 -85t84.5 -33zM314 715h90l-109 -130h-73z" />
    <glyph glyph-name="Ocircumflexsmall" horiz-adv-x="554" 
d="M277 -15q-86 0 -142.5 51t-60.5 136q-6 108 0 196q6 80 59.5 133.5t143.5 53.5t143.5 -53.5t59.5 -133.5q6 -88 0 -196q-4 -85 -60.5 -136t-142.5 -51zM277 55q53 0 84.5 33t33.5 85q4 122 0 196q-2 53 -34 84.5t-84 31.5t-84 -31.5t-34 -84.5q-4 -74 0 -196
q2 -52 33.5 -85t84.5 -33zM254 715h43l113 -130h-76l-61 69l-62 -69h-72z" />
    <glyph glyph-name="Otildesmall" horiz-adv-x="554" 
d="M277 -15q-86 0 -142.5 51t-60.5 136q-6 108 0 196q6 80 59.5 133.5t143.5 53.5t143.5 -53.5t59.5 -133.5q6 -88 0 -196q-4 -85 -60.5 -136t-142.5 -51zM277 55q53 0 84.5 33t33.5 85q4 122 0 196q-2 53 -34 84.5t-84 31.5t-84 -31.5t-34 -84.5q-4 -74 0 -196
q2 -52 33.5 -85t84.5 -33zM327 614q-22 0 -60 19.5t-47 19.5q-25 0 -25 -39h-56q-4 44 15.5 72t58.5 28q25 0 66 -21t47 -21q23 0 23 43h53q10 -101 -75 -101z" />
    <glyph glyph-name="Odieresissmall" horiz-adv-x="554" 
d="M277 -15q-86 0 -142.5 51t-60.5 136q-6 108 0 196q6 80 59.5 133.5t143.5 53.5t143.5 -53.5t59.5 -133.5q6 -88 0 -196q-4 -85 -60.5 -136t-142.5 -51zM277 55q53 0 84.5 33t33.5 85q4 122 0 196q-2 53 -34 84.5t-84 31.5t-84 -31.5t-34 -84.5q-4 -74 0 -196
q2 -52 33.5 -85t84.5 -33zM141 665q0 22 14 36t35 14q22 0 36.5 -14t14.5 -36t-14 -35.5t-37 -13.5q-21 0 -35 13.5t-14 35.5zM311 665q0 22 13.5 36t34.5 14q23 0 37.5 -14t14.5 -36t-14.5 -35.5t-37.5 -13.5q-21 0 -34.5 13.5t-13.5 35.5z" />
    <glyph glyph-name="Oslashsmall" horiz-adv-x="546" 
d="M282 -15q-83 0 -138 46l-31 -46h-65l60 89q-26 41 -29 98q-6 108 0 196q6 80 59.5 133.5t143.5 53.5q72 0 126 -39l26 39h65l-53 -77q34 -46 39 -110q6 -88 0 -196q-4 -85 -60.5 -136t-142.5 -51zM282 55q53 0 84.5 33t33.5 85q4 122 0 196q-2 23 -5 33l-206 -305
q32 -42 93 -42zM282 485q-52 0 -84 -31.5t-34 -84.5q-4 -74 0 -196q0 -10 1 -15l200 296q-31 31 -83 31z" />
    <glyph glyph-name="OEsmall" horiz-adv-x="723" 
d="M666 0h-302q-39 -15 -92 -15q-81 0 -137.5 47.5t-60.5 130.5q-2 42 -2 116t2 98q5 82 62.5 130t138.5 48q50 0 89 -15h301v-70h-216v-155h199v-70h-199v-175h217v-70zM273 55q66 0 91 23v382q-28 25 -91 25q-50 0 -81 -27.5t-33 -79.5q-4 -81 0 -214q1 -50 34 -79.5
t80 -29.5z" />
    <glyph glyph-name="Scaronsmall" horiz-adv-x="504" 
d="M362 126q0 39 -25.5 59t-104.5 49q-78 29 -114.5 66t-36.5 100q0 72 50 113.5t131 41.5q75 0 124.5 -44.5t43.5 -120.5l-75 -5q0 47 -25.5 73.5t-73.5 26.5q-39 0 -64.5 -19.5t-25.5 -55.5q0 -40 27 -63t95 -48q30 -11 46.5 -18t41.5 -21.5t38 -30t23 -39.5t10 -54
q0 -64 -54.5 -107.5t-132.5 -43.5q-87 0 -141.5 45.5t-56.5 134.5l73 5q3 -51 37.5 -83t89.5 -32q46 0 73 19.5t27 51.5zM278 585h-53l-108 130h74l61 -78l59 78h74z" />
    <glyph glyph-name="Thornsmall" horiz-adv-x="507" 
d="M182 540v-83h68q220 -2 220 -176q0 -82 -55.5 -130.5t-163.5 -48.5l-69 1v-103h-85v540h85zM182 386v-213q31 -1 70 -1q64 0 98.5 23.5t34.5 84.5q0 107 -132 107z" />
    <glyph glyph-name="Ugravesmall" horiz-adv-x="564" 
d="M392 540h85v-363q0 -85 -55 -138.5t-141 -53.5q-87 0 -140.5 52t-53.5 138v365h85v-364q0 -59 28.5 -90t81.5 -31t81.5 31t28.5 90v364zM157 715h90l100 -130h-77z" />
    <glyph glyph-name="Uacutesmall" horiz-adv-x="564" 
d="M392 540h85v-363q0 -85 -55 -138.5t-141 -53.5q-87 0 -140.5 52t-53.5 138v365h85v-364q0 -59 28.5 -90t81.5 -31t81.5 31t28.5 90v364zM327 715h90l-109 -130h-73z" />
    <glyph glyph-name="Ucircumflexsmall" horiz-adv-x="564" 
d="M392 540h85v-363q0 -85 -55 -138.5t-141 -53.5q-87 0 -140.5 52t-53.5 138v365h85v-364q0 -59 28.5 -90t81.5 -31t81.5 31t28.5 90v364zM264 715h43l113 -130h-76l-61 69l-62 -69h-72z" />
    <glyph glyph-name="Udieresissmall" horiz-adv-x="564" 
d="M392 540h85v-363q0 -85 -55 -138.5t-141 -53.5q-87 0 -140.5 52t-53.5 138v365h85v-364q0 -59 28.5 -90t81.5 -31t81.5 31t28.5 90v364zM149 665q0 22 14 36t35 14q22 0 36.5 -14t14.5 -36t-14 -35.5t-37 -13.5q-21 0 -35 13.5t-14 35.5zM319 665q0 22 13.5 36t34.5 14
q23 0 37.5 -14t14.5 -36t-14.5 -35.5t-37.5 -13.5q-21 0 -34.5 13.5t-13.5 35.5z" />
    <glyph glyph-name="Yacutesmall" horiz-adv-x="506" 
d="M298 217v-217h-85v217l-196 323h95l126 -208l22 -49l22 50l117 207h95zM297 715h90l-109 -130h-73z" />
    <glyph glyph-name="Ydieresissmall" horiz-adv-x="506" 
d="M298 217v-217h-85v217l-196 323h95l126 -208l22 -49l22 50l117 207h95zM125 665q0 22 14 36t35 14q22 0 36.5 -14t14.5 -36t-14 -35.5t-37 -13.5q-21 0 -35 13.5t-14 35.5zM295 665q0 22 13.5 36t34.5 14q23 0 37.5 -14t14.5 -36t-14.5 -35.5t-37.5 -13.5
q-21 0 -34.5 13.5t-13.5 35.5z" />
    <glyph glyph-name="Zcaronsmall" horiz-adv-x="482" 
d="M440 70v-70h-388l-5 45l274 425h-270v70h370l5 -50l-274 -420h288zM258 585h-53l-108 130h74l61 -78l59 78h74z" />
    <glyph glyph-name="Ssmall_Ssmall" horiz-adv-x="1000" 
d="M362 126q0 39 -25.5 59t-104.5 49q-78 29 -114.5 66t-36.5 100q0 72 50 113.5t131 41.5q75 0 124.5 -44.5t43.5 -120.5l-75 -5q0 47 -25.5 73.5t-73.5 26.5q-39 0 -64.5 -19.5t-25.5 -55.5q0 -40 27 -63t95 -48q30 -11 46.5 -18t41.5 -21.5t38 -30t23 -39.5t10 -54
q0 -64 -54.5 -107.5t-132.5 -43.5q-87 0 -141.5 45.5t-56.5 134.5l73 5q3 -51 37.5 -83t89.5 -32q46 0 73 19.5t27 51.5zM858 126q0 39 -25.5 59t-104.5 49q-78 29 -114.5 66t-36.5 100q0 72 50 113.5t131 41.5q75 0 124.5 -44.5t43.5 -120.5l-75 -5q0 47 -25.5 73.5
t-73.5 26.5q-39 0 -64.5 -19.5t-25.5 -55.5q0 -40 27 -63t95 -48q30 -11 46.5 -18t41.5 -21.5t38 -30t23 -39.5t10 -54q0 -64 -54.5 -107.5t-132.5 -43.5q-87 0 -141.5 45.5t-56.5 134.5l73 5q3 -51 37.5 -83t89.5 -32q46 0 73 19.5t27 51.5z" />
    <glyph glyph-name="acute.cap" horiz-adv-x="378" 
d="M222 715h90l-109 -130h-73z" />
    <glyph glyph-name="grave.cap" horiz-adv-x="389" 
d="M77 715h90l100 -130h-77z" />
    <glyph glyph-name="circumflex.cap" horiz-adv-x="475" 
d="M214 715h43l113 -130h-76l-61 69l-62 -69h-72z" />
    <glyph glyph-name="dieresis.cap" horiz-adv-x="456" 
d="M91 657q0 22 14 36t35 14q22 0 36.5 -14t14.5 -36t-14 -35.5t-37 -13.5q-21 0 -35 13.5t-14 35.5zM261 657q0 22 13.5 36t34.5 14q23 0 37.5 -14t14.5 -36t-14.5 -35.5t-37.5 -13.5q-21 0 -34.5 13.5t-13.5 35.5z" />
    <glyph glyph-name="tilde.cap" horiz-adv-x="464" 
d="M291 614q-22 0 -60 19.5t-47 19.5q-25 0 -25 -39h-56q-4 44 15.5 72t58.5 28q25 0 66 -21t47 -21q23 0 23 43h53q10 -101 -75 -101z" />
    <glyph glyph-name="caron.cap" horiz-adv-x="433" 
d="M240 585h-53l-108 130h74l61 -78l59 78h74z" />
    <glyph glyph-name="ring.cap" horiz-adv-x="361" 
d="M91 642q0 39 27 63.5t62 24.5q34 0 61 -24.5t28 -63.5t-26 -64.5t-63 -25.5t-62.5 25.5t-26.5 64.5zM140 643q0 -21 11.5 -33.5t28.5 -12.5t28.5 13t11.5 33q0 17 -11.5 29.5t-28.5 12.5q-16 0 -28 -12t-12 -30z" />
    <glyph glyph-name="hyphen.cap" horiz-adv-x="339" 
d="M37 275v75h265v-75h-265z" />
    <glyph glyph-name="endash.cap" horiz-adv-x="511" 
d="M37 275v75h437v-75h-437z" />
    <glyph glyph-name="emdash.cap" horiz-adv-x="644" 
d="M37 275v75h570v-75h-570z" />
    <glyph glyph-name="guilsinglleft.cap" horiz-adv-x="292" 
d="M135 324l135 -129l-44 -50l-184 178v7l187 170l40 -51l-134 -119v-6z" />
    <glyph glyph-name="guilsinglright.cap" horiz-adv-x="289" 
d="M152 321l-130 129l44 49l181 -178v-7l-184 -170l-40 50l129 120v7z" />
    <glyph glyph-name="guillemotleft.cap" horiz-adv-x="494" 
d="M337 324l135 -129l-44 -50l-184 178v7l187 170l40 -51l-134 -119v-6zM135 324l135 -129l-44 -50l-184 178v7l187 170l40 -51l-134 -119v-6z" />
    <glyph glyph-name="guillemotright.cap" horiz-adv-x="494" 
d="M357 316l-130 129l44 49l181 -178v-7l-184 -170l-40 50l129 120v7zM152 316l-130 129l44 49l181 -178v-7l-184 -170l-40 50l129 120v7z" />
    <glyph glyph-name="questiondown.cap" horiz-adv-x="445" 
d="M199 525h69l2 -28q4 -67 -7.5 -101.5t-55.5 -88.5q-49 -59 -60 -84q-12 -28 -12 -60q0 -48 25 -75.5t66 -27.5q52 0 81.5 33t31.5 92l80 5q7 -88 -49 -146.5t-147 -58.5q-74 0 -126 49t-52 125q0 53 24.5 96t74.5 99q38 43 46.5 66.5t8.5 69.5v35zM295 654
q0 -27 -18 -45.5t-44 -18.5q-27 0 -45.5 18.5t-18.5 45.5q0 26 18.5 43.5t45.5 17.5q26 0 44 -17.5t18 -43.5z" />
    <glyph glyph-name="exclamdown.cap" horiz-adv-x="216" 
d="M156 0l-97 -15l19 540h60zM171 654q0 -27 -18 -45.5t-44 -18.5q-27 0 -45.5 18.5t-18.5 45.5q0 26 18.5 43.5t45.5 17.5q26 0 44 -17.5t18 -43.5z" />
    <glyph glyph-name="bullet.cap" horiz-adv-x="327" 
d="M72 344q0 40 25.5 67t63.5 27q41 0 67.5 -27t26.5 -67q0 -38 -27 -63.5t-67 -25.5q-37 0 -63 25.5t-26 63.5z" />
    </font>
</defs>
</svg>
